<svg width="87" height="109" viewBox="0 0 87 109" fill="none" xmlns="http://www.w3.org/2000/svg">
<path d="M77.9376 29H74.3126V16.3125C74.3126 15.8318 74.1217 15.3708 73.7818 15.0309C73.4418 14.691 72.9808 14.5 72.5001 14.5H68.8751V10.875H72.5001C73.9422 10.875 75.3253 10.3021 76.345 9.28241C77.3647 8.26268 77.9376 6.87963 77.9376 5.43752C77.9376 3.9954 77.3647 2.61235 76.345 1.59262C75.3253 0.572893 73.9422 1.51195e-05 72.5001 1.51195e-05H39.8751C39.0592 -0.00191333 38.2534 0.180658 37.518 0.534075C36.7826 0.887491 36.1367 1.40261 35.6284 2.04089L25.1159 15.1797C24.9024 15.4464 24.7686 15.7681 24.7299 16.1076C24.6913 16.4471 24.7494 16.7906 24.8976 17.0985C25.0458 17.4064 25.2779 17.6661 25.5674 17.8477C25.8568 18.0294 26.1916 18.1255 26.5333 18.125H35.8169C36.0888 18.1251 36.3571 18.0641 36.6022 17.9464C36.8472 17.8288 37.0626 17.6575 37.2325 17.4453L42.4869 10.875H58.0001V14.5H54.3751C53.8944 14.5 53.4334 14.691 53.0935 15.0309C52.7536 15.3708 52.5626 15.8318 52.5626 16.3125V29H48.9376C46.535 29.0029 44.2316 29.9586 42.5327 31.6575C40.8337 33.3565 39.878 35.6599 39.8751 38.0625V67.0625C39.8751 67.5432 40.0661 68.0042 40.406 68.3441C40.7459 68.6841 41.2069 68.875 41.6876 68.875C42.1683 68.875 42.6294 68.6841 42.9693 68.3441C43.3092 68.0042 43.5001 67.5432 43.5001 67.0625V54.375H83.3751V83.375H74.3126C73.8319 83.375 73.3709 83.566 73.031 83.9059C72.6911 84.2458 72.5001 84.7068 72.5001 85.1875C72.5001 85.6682 72.6911 86.1292 73.031 86.4691C73.3709 86.8091 73.8319 87 74.3126 87H83.3751V103.313C83.3751 103.793 83.1842 104.254 82.8443 104.594C82.5044 104.934 82.0433 105.125 81.5626 105.125H72.5001C72.0194 105.125 71.5584 105.316 71.2185 105.656C70.8786 105.996 70.6876 106.457 70.6876 106.938C70.6876 107.418 70.8786 107.879 71.2185 108.219C71.5584 108.559 72.0194 108.75 72.5001 108.75H81.5626C83.0047 108.75 84.3878 108.177 85.4075 107.157C86.4272 106.138 87.0001 104.755 87.0001 103.313V38.0625C86.9973 35.6599 86.0415 33.3565 84.3426 31.6575C82.6437 29.9586 80.3403 29.0029 77.9376 29ZM41.6169 7.25001C41.3451 7.24991 41.0768 7.31095 40.8317 7.4286C40.5867 7.54626 40.3713 7.71752 40.2014 7.9297L34.9451 14.5H30.3051L38.4614 4.3047C38.6305 4.09206 38.8455 3.92045 39.0903 3.80274C39.3352 3.68502 39.6035 3.62426 39.8751 3.62502H72.5001C72.9808 3.62502 73.4418 3.81597 73.7818 4.15588C74.1217 4.49579 74.3126 4.95681 74.3126 5.43752C74.3126 5.91822 74.1217 6.37924 73.7818 6.71915C73.4418 7.05906 72.9808 7.25001 72.5001 7.25001H41.6169ZM61.6251 10.875H65.2501V14.5H61.6251V10.875ZM56.1876 18.125H70.6876V29H56.1876V18.125ZM48.9376 32.625H77.9376C79.3797 32.625 80.7628 33.1979 81.7825 34.2176C82.8022 35.2374 83.3751 36.6204 83.3751 38.0625V41.0966L82.8314 40.9408C76.074 38.9976 68.8741 39.2515 62.2704 41.6658C56.2296 43.8456 49.6466 44.0179 43.5001 42.157V38.0625C43.5001 36.6204 44.073 35.2374 45.0927 34.2176C46.1125 33.1979 47.4955 32.625 48.9376 32.625ZM43.5001 50.75V45.9288C50.0988 47.7076 57.0855 47.4089 63.5083 45.0733C69.3941 42.921 75.8116 42.6944 81.8345 44.4262L83.3751 44.8666V50.75H43.5001Z" fill="#C4C4C4"/>
<path d="M77.9376 29H74.3126V16.3125C74.3126 15.8318 74.1217 15.3708 73.7818 15.0309C73.4418 14.691 72.9808 14.5 72.5001 14.5H68.8751V10.875H72.5001C73.9422 10.875 75.3253 10.3021 76.345 9.28241C77.3647 8.26268 77.9376 6.87963 77.9376 5.43752C77.9376 3.9954 77.3647 2.61235 76.345 1.59262C75.3253 0.572893 73.9422 1.51195e-05 72.5001 1.51195e-05H39.8751C39.0592 -0.00191333 38.2534 0.180658 37.518 0.534075C36.7826 0.887491 36.1367 1.40261 35.6284 2.04089L25.1159 15.1797C24.9024 15.4464 24.7686 15.7681 24.7299 16.1076C24.6913 16.4471 24.7494 16.7906 24.8976 17.0985C25.0458 17.4064 25.2779 17.6661 25.5674 17.8477C25.8568 18.0294 26.1916 18.1255 26.5333 18.125H35.8169C36.0888 18.1251 36.3571 18.0641 36.6022 17.9464C36.8472 17.8288 37.0626 17.6575 37.2325 17.4453L42.4869 10.875H58.0001V14.5H54.3751C53.8944 14.5 53.4334 14.691 53.0935 15.0309C52.7536 15.3708 52.5626 15.8318 52.5626 16.3125V29H48.9376C46.535 29.0029 44.2316 29.9586 42.5327 31.6575C40.8337 33.3565 39.878 35.6599 39.8751 38.0625V67.0625C39.8751 67.5432 40.0661 68.0042 40.406 68.3441C40.7459 68.6841 41.2069 68.875 41.6876 68.875C42.1683 68.875 42.6294 68.6841 42.9693 68.3441C43.3092 68.0042 43.5001 67.5432 43.5001 67.0625V54.375H83.3751V83.375H74.3126C73.8319 83.375 73.3709 83.566 73.031 83.9059C72.6911 84.2458 72.5001 84.7068 72.5001 85.1875C72.5001 85.6682 72.6911 86.1292 73.031 86.4691C73.3709 86.8091 73.8319 87 74.3126 87H83.3751V103.313C83.3751 103.793 83.1842 104.254 82.8443 104.594C82.5044 104.934 82.0433 105.125 81.5626 105.125H72.5001C72.0194 105.125 71.5584 105.316 71.2185 105.656C70.8786 105.996 70.6876 106.457 70.6876 106.938C70.6876 107.418 70.8786 107.879 71.2185 108.219C71.5584 108.559 72.0194 108.75 72.5001 108.75H81.5626C83.0047 108.75 84.3878 108.177 85.4075 107.157C86.4272 106.138 87.0001 104.755 87.0001 103.313V38.0625C86.9973 35.6599 86.0415 33.3565 84.3426 31.6575C82.6437 29.9586 80.3403 29.0029 77.9376 29ZM41.6169 7.25001C41.3451 7.24991 41.0768 7.31095 40.8317 7.4286C40.5867 7.54626 40.3713 7.71752 40.2014 7.9297L34.9451 14.5H30.3051L38.4614 4.3047C38.6305 4.09206 38.8455 3.92045 39.0903 3.80274C39.3352 3.68502 39.6035 3.62426 39.8751 3.62502H72.5001C72.9808 3.62502 73.4418 3.81597 73.7818 4.15588C74.1217 4.49579 74.3126 4.95681 74.3126 5.43752C74.3126 5.91822 74.1217 6.37924 73.7818 6.71915C73.4418 7.05906 72.9808 7.25001 72.5001 7.25001H41.6169ZM61.6251 10.875H65.2501V14.5H61.6251V10.875ZM56.1876 18.125H70.6876V29H56.1876V18.125ZM48.9376 32.625H77.9376C79.3797 32.625 80.7628 33.1979 81.7825 34.2176C82.8022 35.2374 83.3751 36.6204 83.3751 38.0625V41.0966L82.8314 40.9408C76.074 38.9976 68.8741 39.2515 62.2704 41.6658C56.2296 43.8456 49.6466 44.0179 43.5001 42.157V38.0625C43.5001 36.6204 44.073 35.2374 45.0927 34.2176C46.1125 33.1979 47.4955 32.625 48.9376 32.625ZM43.5001 50.75V45.9288C50.0988 47.7076 57.0855 47.4089 63.5083 45.0733C69.3941 42.921 75.8116 42.6944 81.8345 44.4262L83.3751 44.8666V50.75H43.5001Z" fill="#3B31B3"/>
<path d="M72.5 76.125C72.9807 76.125 73.4417 75.934 73.7816 75.5941C74.1215 75.2542 74.3125 74.7932 74.3125 74.3125V63.4375C74.3125 62.9568 74.1215 62.4958 73.7816 62.1559C73.4417 61.816 72.9807 61.625 72.5 61.625H54.375C53.8943 61.625 53.4333 61.816 53.0934 62.1559C52.7535 62.4958 52.5625 62.9568 52.5625 63.4375V67.0625C52.5625 67.5432 52.7535 68.0042 53.0934 68.3441C53.4333 68.684 53.8943 68.875 54.375 68.875C54.8557 68.875 55.3167 68.684 55.6566 68.3441C55.9965 68.0042 56.1875 67.5432 56.1875 67.0625V65.25H70.6875V74.3125C70.6875 74.7932 70.8785 75.2542 71.2184 75.5941C71.5583 75.934 72.0193 76.125 72.5 76.125Z" fill="#C4C4C4"/>
<path d="M72.5 76.125C72.9807 76.125 73.4417 75.934 73.7816 75.5941C74.1215 75.2542 74.3125 74.7932 74.3125 74.3125V63.4375C74.3125 62.9568 74.1215 62.4958 73.7816 62.1559C73.4417 61.816 72.9807 61.625 72.5 61.625H54.375C53.8943 61.625 53.4333 61.816 53.0934 62.1559C52.7535 62.4958 52.5625 62.9568 52.5625 63.4375V67.0625C52.5625 67.5432 52.7535 68.0042 53.0934 68.3441C53.4333 68.684 53.8943 68.875 54.375 68.875C54.8557 68.875 55.3167 68.684 55.6566 68.3441C55.9965 68.0042 56.1875 67.5432 56.1875 67.0625V65.25H70.6875V74.3125C70.6875 74.7932 70.8785 75.2542 71.2184 75.5941C71.5583 75.934 72.0193 76.125 72.5 76.125Z" fill="#3B31B3"/>
<path d="M59.8125 72.5H23.5625C21.1599 72.5029 18.8564 73.4586 17.1575 75.1575C15.4586 76.8564 14.5029 79.1599 14.5 81.5625V99.6875H9.0625C8.58179 99.6875 8.12078 99.4965 7.78087 99.1566C7.44096 98.8167 7.25 98.3557 7.25 97.875V90.625H9.0625C9.54321 90.625 10.0042 90.434 10.3441 90.0941C10.684 89.7542 10.875 89.2932 10.875 88.8125C10.875 88.3318 10.684 87.8708 10.3441 87.5309C10.0042 87.191 9.54321 87 9.0625 87H7.12494L3.75913 39.875H28.8659L26.9319 66.9338C26.9144 67.1715 26.9439 67.4104 27.0188 67.6367C27.0937 67.863 27.2125 68.0722 27.3685 68.2526C27.5244 68.4329 27.7143 68.5807 27.9274 68.6875C28.1405 68.7943 28.3726 68.858 28.6103 68.875H28.7408C29.2 68.8762 29.6426 68.703 29.979 68.3904C30.3155 68.0779 30.5207 67.6492 30.5533 67.1912L32.625 38.1912C32.625 38.1694 32.625 38.1513 32.625 38.1296C32.625 38.1078 32.625 38.0861 32.625 38.0625V30.8125C32.625 30.3318 32.434 29.8708 32.0941 29.5309C31.7542 29.191 31.2932 29 30.8125 29H1.8125C1.3318 29 0.870779 29.191 0.530869 29.5309C0.19096 29.8708 0 30.3318 0 30.8125V38.0625C0 38.0861 0.0126874 38.106 0.0126874 38.1277C0.0126874 38.1495 0.0126874 38.1694 0.0126874 38.1912L3.625 88.8669V97.875C3.625 99.3171 4.19788 100.7 5.21761 101.72C6.23734 102.74 7.62039 103.312 9.0625 103.312H15.2685C15.973 104.927 17.1327 106.301 18.6057 107.266C20.0787 108.232 21.8012 108.748 23.5625 108.75H59.8125C62.2151 108.747 64.5185 107.791 66.2175 106.092C67.9164 104.394 68.8721 102.09 68.875 99.6875V81.5625C68.8721 79.1599 67.9164 76.8564 66.2175 75.1575C64.5185 73.4586 62.2151 72.5029 59.8125 72.5ZM3.625 32.625H29V36.25H3.625V32.625ZM18.125 94.25H29V97.875H18.125V94.25ZM59.8125 105.125H23.5625C22.4419 105.12 21.3501 104.77 20.4365 104.121C19.5229 103.472 18.832 102.557 18.4585 101.5H30.8125C31.2932 101.5 31.7542 101.309 32.0941 100.969C32.434 100.629 32.625 100.168 32.625 99.6875V92.4375C32.625 91.9568 32.434 91.4958 32.0941 91.1559C31.7542 90.816 31.2932 90.625 30.8125 90.625H18.125V87H59.8125C60.2932 87 60.7542 86.809 61.0941 86.4691C61.434 86.1292 61.625 85.6682 61.625 85.1875C61.625 84.7068 61.434 84.2458 61.0941 83.9059C60.7542 83.566 60.2932 83.375 59.8125 83.375H18.125V81.5625C18.125 80.1204 18.6979 78.7373 19.7176 77.7176C20.7373 76.6979 22.1204 76.125 23.5625 76.125H59.8125C61.2546 76.125 62.6377 76.6979 63.6574 77.7176C64.6771 78.7373 65.25 80.1204 65.25 81.5625V90.625H56.1875C55.7068 90.625 55.2458 90.816 54.9059 91.1559C54.566 91.4958 54.375 91.9568 54.375 92.4375C54.375 92.9182 54.566 93.3792 54.9059 93.7191C55.2458 94.059 55.7068 94.25 56.1875 94.25H65.25V99.6875C65.25 101.13 64.6771 102.513 63.6574 103.532C62.6377 104.552 61.2546 105.125 59.8125 105.125Z" fill="#C4C4C4"/>
<path d="M59.8125 72.5H23.5625C21.1599 72.5029 18.8564 73.4586 17.1575 75.1575C15.4586 76.8564 14.5029 79.1599 14.5 81.5625V99.6875H9.0625C8.58179 99.6875 8.12078 99.4965 7.78087 99.1566C7.44096 98.8167 7.25 98.3557 7.25 97.875V90.625H9.0625C9.54321 90.625 10.0042 90.434 10.3441 90.0941C10.684 89.7542 10.875 89.2932 10.875 88.8125C10.875 88.3318 10.684 87.8708 10.3441 87.5309C10.0042 87.191 9.54321 87 9.0625 87H7.12494L3.75913 39.875H28.8659L26.9319 66.9338C26.9144 67.1715 26.9439 67.4104 27.0188 67.6367C27.0937 67.863 27.2125 68.0722 27.3685 68.2526C27.5244 68.4329 27.7143 68.5807 27.9274 68.6875C28.1405 68.7943 28.3726 68.858 28.6103 68.875H28.7408C29.2 68.8762 29.6426 68.703 29.979 68.3904C30.3155 68.0779 30.5207 67.6492 30.5533 67.1912L32.625 38.1912C32.625 38.1694 32.625 38.1513 32.625 38.1296C32.625 38.1078 32.625 38.0861 32.625 38.0625V30.8125C32.625 30.3318 32.434 29.8708 32.0941 29.5309C31.7542 29.191 31.2932 29 30.8125 29H1.8125C1.3318 29 0.870779 29.191 0.530869 29.5309C0.19096 29.8708 0 30.3318 0 30.8125V38.0625C0 38.0861 0.0126874 38.106 0.0126874 38.1277C0.0126874 38.1495 0.0126874 38.1694 0.0126874 38.1912L3.625 88.8669V97.875C3.625 99.3171 4.19788 100.7 5.21761 101.72C6.23734 102.74 7.62039 103.312 9.0625 103.312H15.2685C15.973 104.927 17.1327 106.301 18.6057 107.266C20.0787 108.232 21.8012 108.748 23.5625 108.75H59.8125C62.2151 108.747 64.5185 107.791 66.2175 106.092C67.9164 104.394 68.8721 102.09 68.875 99.6875V81.5625C68.8721 79.1599 67.9164 76.8564 66.2175 75.1575C64.5185 73.4586 62.2151 72.5029 59.8125 72.5ZM3.625 32.625H29V36.25H3.625V32.625ZM18.125 94.25H29V97.875H18.125V94.25ZM59.8125 105.125H23.5625C22.4419 105.12 21.3501 104.77 20.4365 104.121C19.5229 103.472 18.832 102.557 18.4585 101.5H30.8125C31.2932 101.5 31.7542 101.309 32.0941 100.969C32.434 100.629 32.625 100.168 32.625 99.6875V92.4375C32.625 91.9568 32.434 91.4958 32.0941 91.1559C31.7542 90.816 31.2932 90.625 30.8125 90.625H18.125V87H59.8125C60.2932 87 60.7542 86.809 61.0941 86.4691C61.434 86.1292 61.625 85.6682 61.625 85.1875C61.625 84.7068 61.434 84.2458 61.0941 83.9059C60.7542 83.566 60.2932 83.375 59.8125 83.375H18.125V81.5625C18.125 80.1204 18.6979 78.7373 19.7176 77.7176C20.7373 76.6979 22.1204 76.125 23.5625 76.125H59.8125C61.2546 76.125 62.6377 76.6979 63.6574 77.7176C64.6771 78.7373 65.25 80.1204 65.25 81.5625V90.625H56.1875C55.7068 90.625 55.2458 90.816 54.9059 91.1559C54.566 91.4958 54.375 91.9568 54.375 92.4375C54.375 92.9182 54.566 93.3792 54.9059 93.7191C55.2458 94.059 55.7068 94.25 56.1875 94.25H65.25V99.6875C65.25 101.13 64.6771 102.513 63.6574 103.532C62.6377 104.552 61.2546 105.125 59.8125 105.125Z" fill="#3B31B3"/>
<path d="M56.1875 97.875H45.3125C44.8318 97.875 44.3708 98.066 44.0309 98.4059C43.691 98.7458 43.5 99.2068 43.5 99.6875C43.5 100.168 43.691 100.629 44.0309 100.969C44.3708 101.309 44.8318 101.5 45.3125 101.5H56.1875C56.6682 101.5 57.1292 101.309 57.4691 100.969C57.809 100.629 58 100.168 58 99.6875C58 99.2068 57.809 98.7458 57.4691 98.4059C57.1292 98.066 56.6682 97.875 56.1875 97.875Z" fill="#C4C4C4"/>
<path d="M56.1875 97.875H45.3125C44.8318 97.875 44.3708 98.066 44.0309 98.4059C43.691 98.7458 43.5 99.2068 43.5 99.6875C43.5 100.168 43.691 100.629 44.0309 100.969C44.3708 101.309 44.8318 101.5 45.3125 101.5H56.1875C56.6682 101.5 57.1292 101.309 57.4691 100.969C57.809 100.629 58 100.168 58 99.6875C58 99.2068 57.809 98.7458 57.4691 98.4059C57.1292 98.066 56.6682 97.875 56.1875 97.875Z" fill="#3B31B3"/>
<path d="M10.875 63.4375C10.875 64.8796 11.4479 66.2627 12.4676 67.2824C13.4873 68.3021 14.8704 68.875 16.3125 68.875C17.7546 68.875 19.1377 68.3021 20.1574 67.2824C21.1771 66.2627 21.75 64.8796 21.75 63.4375C21.75 61.3259 20.0535 54.375 16.3125 54.375C12.5715 54.375 10.875 61.3259 10.875 63.4375ZM16.3125 65.25C15.8318 65.25 15.3708 65.059 15.0309 64.7191C14.691 64.3792 14.5 63.9182 14.5 63.4375C14.6496 61.5513 15.273 59.7333 16.3125 58.1522C17.352 59.7333 17.9754 61.5513 18.125 63.4375C18.125 63.9182 17.934 64.3792 17.5941 64.7191C17.2542 65.059 16.7932 65.25 16.3125 65.25Z" fill="#C4C4C4"/>
<path d="M10.875 63.4375C10.875 64.8796 11.4479 66.2627 12.4676 67.2824C13.4873 68.3021 14.8704 68.875 16.3125 68.875C17.7546 68.875 19.1377 68.3021 20.1574 67.2824C21.1771 66.2627 21.75 64.8796 21.75 63.4375C21.75 61.3259 20.0535 54.375 16.3125 54.375C12.5715 54.375 10.875 61.3259 10.875 63.4375ZM16.3125 65.25C15.8318 65.25 15.3708 65.059 15.0309 64.7191C14.691 64.3792 14.5 63.9182 14.5 63.4375C14.6496 61.5513 15.273 59.7333 16.3125 58.1522C17.352 59.7333 17.9754 61.5513 18.125 63.4375C18.125 63.9182 17.934 64.3792 17.5941 64.7191C17.2542 65.059 16.7932 65.25 16.3125 65.25Z" fill="#3B31B3"/>
</svg>
