<svg width="158" height="122" viewBox="0 0 158 122" fill="none" xmlns="http://www.w3.org/2000/svg">
<path d="M107.625 55.3873C109.075 55.3873 110.25 54.2065 110.25 52.7498C110.25 51.2932 109.075 50.1123 107.625 50.1123C106.175 50.1123 105 51.2932 105 52.7498C105 54.2065 106.175 55.3873 107.625 55.3873Z" fill="#C4C4C4"/>
<path d="M107.625 55.3873C109.075 55.3873 110.25 54.2065 110.25 52.7498C110.25 51.2932 109.075 50.1123 107.625 50.1123C106.175 50.1123 105 51.2932 105 52.7498C105 54.2065 106.175 55.3873 107.625 55.3873Z" fill="#3B31B3"/>
<path d="M118.125 55.3873C119.575 55.3873 120.75 54.2065 120.75 52.7498C120.75 51.2932 119.575 50.1123 118.125 50.1123C116.675 50.1123 115.5 51.2932 115.5 52.7498C115.5 54.2065 116.675 55.3873 118.125 55.3873Z" fill="#C4C4C4"/>
<path d="M118.125 55.3873C119.575 55.3873 120.75 54.2065 120.75 52.7498C120.75 51.2932 119.575 50.1123 118.125 50.1123C116.675 50.1123 115.5 51.2932 115.5 52.7498C115.5 54.2065 116.675 55.3873 118.125 55.3873Z" fill="#3B31B3"/>
<path d="M154.875 116.05H141.682C143.419 113.781 144.365 111.001 144.375 108.138V97.5878C144.375 96.8883 144.098 96.2174 143.606 95.7228C143.114 95.2281 142.446 94.9503 141.75 94.9503H131.25V92.3128C131.25 91.6133 130.973 90.9424 130.481 90.4478C129.989 89.9531 129.321 89.6753 128.625 89.6753C127.929 89.6753 127.261 89.9531 126.769 90.4478C126.277 90.9424 126 91.6133 126 92.3128V105.5H119.356L120.65 100.951C120.842 100.278 120.759 99.5559 120.421 98.944C120.083 98.3322 119.517 97.8803 118.847 97.688C118.177 97.4956 117.459 97.5785 116.85 97.9183C116.241 98.2581 115.791 98.827 115.6 99.4999L113.442 107.083C112.454 107.814 111.651 108.767 111.097 109.866C110.542 110.966 110.252 112.18 110.25 113.413V116.05H97.0567C98.794 113.781 99.7403 111.001 99.75 108.138V92.3128C99.75 91.6133 99.4734 90.9424 98.9812 90.4478C98.4889 89.9531 97.8212 89.6753 97.125 89.6753C96.4288 89.6753 95.7611 89.9531 95.2688 90.4478C94.7766 90.9424 94.5 91.6133 94.5 92.3128V94.9503H86.625V87.0378C86.6292 83.5415 88.0133 80.1896 90.4738 77.7174C92.9343 75.2452 96.2703 73.8544 99.75 73.8503H102.375C102.375 74.5497 102.652 75.2205 103.144 75.715L111.019 83.6275C111.511 84.1219 112.179 84.3997 112.875 84.3997C113.571 84.3997 114.239 84.1219 114.731 83.6275L122.606 75.715C123.098 75.2205 123.375 74.5497 123.375 73.8503H126C129.48 73.8544 132.816 75.2452 135.276 77.7174C137.737 80.1896 139.121 83.5415 139.125 87.0378C139.125 87.7373 139.402 88.4081 139.894 88.9028C140.386 89.3974 141.054 89.6753 141.75 89.6753C142.446 89.6753 143.114 89.3974 143.606 88.9028C144.098 88.4081 144.375 87.7373 144.375 87.0378C144.369 82.1429 142.432 77.4501 138.987 73.989C135.542 70.5278 130.872 68.5808 126 68.5753H125.709C127.463 66.8609 128.857 64.8106 129.809 62.5454C130.76 60.2803 131.251 57.8465 131.25 55.3878V54.6466C133.669 52.9499 135.647 50.6942 137.017 48.0692C138.388 45.4443 139.111 42.5269 139.125 39.5628C139.134 36.8053 138.515 34.0822 137.314 31.6028C137.009 30.9732 136.468 30.491 135.81 30.2623C135.151 30.0335 134.429 30.0769 133.803 30.3829C133.176 30.689 132.696 31.2326 132.469 31.8941C132.241 32.5557 132.284 33.281 132.589 33.9106C133.442 35.6709 133.882 37.6046 133.875 39.5628C133.868 42.3996 132.947 45.1579 131.25 47.4251V42.2003C131.25 41.5008 130.973 40.8299 130.481 40.3353C129.989 39.8406 129.321 39.5628 128.625 39.5628H125.549C123.539 39.5684 121.548 39.1734 119.691 38.4005C117.834 37.6277 116.148 36.4925 114.731 35.0605C114.229 34.584 113.565 34.3185 112.875 34.3185C112.185 34.3185 111.521 34.584 111.019 35.0605C109.602 36.4925 107.916 37.6277 106.059 38.4005C104.202 39.1734 102.211 39.5684 100.201 39.5628H97.125C96.4288 39.5628 95.7611 39.8406 95.2688 40.3353C94.7766 40.8299 94.5 41.5008 94.5 42.2003V47.3803C93.037 45.4278 92.1461 43.1035 91.9276 40.6694C91.7091 38.2353 92.1718 35.7884 93.2635 33.6044C94.3553 31.4204 96.0326 29.5864 98.1063 28.3091C100.18 27.0317 102.568 26.362 105 26.3753H120.75C122.699 26.3683 124.623 26.8094 126.375 27.665C127.002 27.971 127.724 28.0144 128.382 27.7857C129.041 27.5569 129.582 27.0747 129.886 26.4452C130.191 25.8156 130.234 25.0903 130.006 24.4287C129.779 23.7671 129.299 23.2235 128.672 22.9175C126.205 21.7102 123.494 21.0885 120.75 21.1003H105C101.092 21.0904 97.2823 22.3361 94.1282 24.6554C90.9742 26.9747 88.6406 30.2463 87.468 33.9925C86.2955 37.7387 86.3454 41.7634 87.6104 45.4791C88.8755 49.1948 91.2895 52.4069 94.5 54.6466V55.3878C94.4994 57.8465 94.9895 60.2803 95.9413 62.5454C96.8931 64.8106 98.2873 66.8609 100.041 68.5753H99.75C96.5743 68.5803 93.4542 69.4122 90.6939 70.9899C87.9336 72.5675 85.6273 74.837 84 77.577V65.9378C84 65.2383 83.7234 64.5674 83.2312 64.0728C82.7389 63.5781 82.0712 63.3003 81.375 63.3003C80.6788 63.3003 80.0111 63.5781 79.5188 64.0728C79.0266 64.5674 78.75 65.2383 78.75 65.9378V84.4003C78.75 87.1983 77.6438 89.8817 75.6746 91.8602C73.7055 93.8387 71.0348 94.9503 68.25 94.9503H54.8179L53.4555 84.0126C53.097 81.2144 51.7364 78.6432 49.628 76.78C47.5196 74.9168 44.8079 73.889 42 73.889C39.1921 73.889 36.4804 74.9168 34.372 76.78C32.2636 78.6432 30.9029 81.2144 30.5445 84.0126L27.8696 105.5H21C17.9755 105.504 15.0447 106.556 12.7017 108.477C10.3587 110.399 8.74675 113.074 8.1375 116.05H2.625C1.92881 116.05 1.26113 116.328 0.768845 116.823C0.276562 117.317 0 117.988 0 118.688C0 119.387 0.276562 120.058 0.768845 120.553C1.26113 121.047 1.92881 121.325 2.625 121.325H36.75C37.4462 121.325 38.1139 121.047 38.6062 120.553C39.0984 120.058 39.375 119.387 39.375 118.688C39.375 117.988 39.0984 117.317 38.6062 116.823C38.1139 116.328 37.4462 116.05 36.75 116.05H31.8491L35.7525 84.664C35.9496 83.1392 36.6924 81.7387 37.8421 80.7239C38.9917 79.7092 40.4697 79.1495 42 79.1495C43.5303 79.1495 45.0083 79.7092 46.1579 80.7239C47.3076 81.7387 48.0504 83.1392 48.2475 84.664L52.1509 116.05H47.25C46.5538 116.05 45.8861 116.328 45.3938 116.823C44.9016 117.317 44.625 117.988 44.625 118.688C44.625 119.387 44.9016 120.058 45.3938 120.553C45.8861 121.047 46.5538 121.325 47.25 121.325H154.875C155.571 121.325 156.239 121.047 156.731 120.553C157.223 120.058 157.5 119.387 157.5 118.688C157.5 117.988 157.223 117.317 156.731 116.823C156.239 116.328 155.571 116.05 154.875 116.05ZM112.875 78.0333L108.048 73.183C111.205 74.0727 114.545 74.0727 117.702 73.183L112.875 78.0333ZM99.75 55.3878V44.8378H100.201C104.798 44.8518 109.264 43.3042 112.875 40.4463C116.486 43.3042 120.952 44.8518 125.549 44.8378H126V55.3878C126 58.8853 124.617 62.2396 122.156 64.7127C119.694 67.1859 116.356 68.5753 112.875 68.5753C109.394 68.5753 106.056 67.1859 103.594 64.7127C101.133 62.2396 99.75 58.8853 99.75 55.3878ZM13.608 116.05C14.149 114.513 15.1495 113.181 16.4727 112.237C17.7958 111.292 19.3771 110.782 21 110.775H27.2134L26.5571 116.05H13.608ZM94.5 108.138C94.5 110.236 93.6703 112.249 92.1935 113.733C90.7166 115.217 88.7136 116.05 86.625 116.05H75.8625C75.4593 114.137 74.6341 112.339 73.4475 110.788C73.4659 110.788 73.4816 110.775 73.5026 110.775H86.6276C87.3238 110.775 87.9915 110.497 88.4838 110.003C88.9761 109.508 89.2526 108.837 89.2526 108.138C89.2526 107.438 88.9761 106.767 88.4838 106.273C87.9915 105.778 87.3238 105.5 86.6276 105.5V100.225H94.5026L94.5 108.138ZM68.25 100.225C70.8506 100.223 73.4104 99.5744 75.7006 98.3364C77.9908 97.0984 79.9403 95.3098 81.375 93.1304V105.5H73.5C71.8723 105.519 70.2911 106.049 68.9771 107.014C67.1345 106.035 65.0844 105.516 63 105.5H56.1304L55.4741 100.225H68.25ZM56.7866 110.775H63C64.7012 110.781 66.3539 111.345 67.7066 112.382L67.7302 112.408H67.7486C68.9626 113.339 69.881 114.604 70.392 116.05H57.4429L56.7866 110.775ZM115.5 116.05V113.413C115.5 112.713 115.777 112.042 116.269 111.548C116.761 111.053 117.429 110.775 118.125 110.775H131.25C131.946 110.775 132.614 110.497 133.106 110.003C133.598 109.508 133.875 108.837 133.875 108.138C133.875 107.438 133.598 106.767 133.106 106.273C132.614 105.778 131.946 105.5 131.25 105.5V100.225H139.125V108.138C139.125 110.236 138.295 112.249 136.818 113.733C135.342 115.217 133.339 116.05 131.25 116.05H115.5Z" fill="#C4C4C4"/>
<path d="M154.875 116.05H141.682C143.419 113.781 144.365 111.001 144.375 108.138V97.5878C144.375 96.8883 144.098 96.2174 143.606 95.7228C143.114 95.2281 142.446 94.9503 141.75 94.9503H131.25V92.3128C131.25 91.6133 130.973 90.9424 130.481 90.4478C129.989 89.9531 129.321 89.6753 128.625 89.6753C127.929 89.6753 127.261 89.9531 126.769 90.4478C126.277 90.9424 126 91.6133 126 92.3128V105.5H119.356L120.65 100.951C120.842 100.278 120.759 99.5559 120.421 98.944C120.083 98.3322 119.517 97.8803 118.847 97.688C118.177 97.4956 117.459 97.5785 116.85 97.9183C116.241 98.2581 115.791 98.827 115.6 99.4999L113.442 107.083C112.454 107.814 111.651 108.767 111.097 109.866C110.542 110.966 110.252 112.18 110.25 113.413V116.05H97.0567C98.794 113.781 99.7403 111.001 99.75 108.138V92.3128C99.75 91.6133 99.4734 90.9424 98.9812 90.4478C98.4889 89.9531 97.8212 89.6753 97.125 89.6753C96.4288 89.6753 95.7611 89.9531 95.2688 90.4478C94.7766 90.9424 94.5 91.6133 94.5 92.3128V94.9503H86.625V87.0378C86.6292 83.5415 88.0133 80.1896 90.4738 77.7174C92.9343 75.2452 96.2703 73.8544 99.75 73.8503H102.375C102.375 74.5497 102.652 75.2205 103.144 75.715L111.019 83.6275C111.511 84.1219 112.179 84.3997 112.875 84.3997C113.571 84.3997 114.239 84.1219 114.731 83.6275L122.606 75.715C123.098 75.2205 123.375 74.5497 123.375 73.8503H126C129.48 73.8544 132.816 75.2452 135.276 77.7174C137.737 80.1896 139.121 83.5415 139.125 87.0378C139.125 87.7373 139.402 88.4081 139.894 88.9028C140.386 89.3974 141.054 89.6753 141.75 89.6753C142.446 89.6753 143.114 89.3974 143.606 88.9028C144.098 88.4081 144.375 87.7373 144.375 87.0378C144.369 82.1429 142.432 77.4501 138.987 73.989C135.542 70.5278 130.872 68.5808 126 68.5753H125.709C127.463 66.8609 128.857 64.8106 129.809 62.5454C130.76 60.2803 131.251 57.8465 131.25 55.3878V54.6466C133.669 52.9499 135.647 50.6942 137.017 48.0692C138.388 45.4443 139.111 42.5269 139.125 39.5628C139.134 36.8053 138.515 34.0822 137.314 31.6028C137.009 30.9732 136.468 30.491 135.81 30.2623C135.151 30.0335 134.429 30.0769 133.803 30.3829C133.176 30.689 132.696 31.2326 132.469 31.8941C132.241 32.5557 132.284 33.281 132.589 33.9106C133.442 35.6709 133.882 37.6046 133.875 39.5628C133.868 42.3996 132.947 45.1579 131.25 47.4251V42.2003C131.25 41.5008 130.973 40.8299 130.481 40.3353C129.989 39.8406 129.321 39.5628 128.625 39.5628H125.549C123.539 39.5684 121.548 39.1734 119.691 38.4005C117.834 37.6277 116.148 36.4925 114.731 35.0605C114.229 34.584 113.565 34.3185 112.875 34.3185C112.185 34.3185 111.521 34.584 111.019 35.0605C109.602 36.4925 107.916 37.6277 106.059 38.4005C104.202 39.1734 102.211 39.5684 100.201 39.5628H97.125C96.4288 39.5628 95.7611 39.8406 95.2688 40.3353C94.7766 40.8299 94.5 41.5008 94.5 42.2003V47.3803C93.037 45.4278 92.1461 43.1035 91.9276 40.6694C91.7091 38.2353 92.1718 35.7884 93.2635 33.6044C94.3553 31.4204 96.0326 29.5864 98.1063 28.3091C100.18 27.0317 102.568 26.362 105 26.3753H120.75C122.699 26.3683 124.623 26.8094 126.375 27.665C127.002 27.971 127.724 28.0144 128.382 27.7857C129.041 27.5569 129.582 27.0747 129.886 26.4452C130.191 25.8156 130.234 25.0903 130.006 24.4287C129.779 23.7671 129.299 23.2235 128.672 22.9175C126.205 21.7102 123.494 21.0885 120.75 21.1003H105C101.092 21.0904 97.2823 22.3361 94.1282 24.6554C90.9742 26.9747 88.6406 30.2463 87.468 33.9925C86.2955 37.7387 86.3454 41.7634 87.6104 45.4791C88.8755 49.1948 91.2895 52.4069 94.5 54.6466V55.3878C94.4994 57.8465 94.9895 60.2803 95.9413 62.5454C96.8931 64.8106 98.2873 66.8609 100.041 68.5753H99.75C96.5743 68.5803 93.4542 69.4122 90.6939 70.9899C87.9336 72.5675 85.6273 74.837 84 77.577V65.9378C84 65.2383 83.7234 64.5674 83.2312 64.0728C82.7389 63.5781 82.0712 63.3003 81.375 63.3003C80.6788 63.3003 80.0111 63.5781 79.5188 64.0728C79.0266 64.5674 78.75 65.2383 78.75 65.9378V84.4003C78.75 87.1983 77.6438 89.8817 75.6746 91.8602C73.7055 93.8387 71.0348 94.9503 68.25 94.9503H54.8179L53.4555 84.0126C53.097 81.2144 51.7364 78.6432 49.628 76.78C47.5196 74.9168 44.8079 73.889 42 73.889C39.1921 73.889 36.4804 74.9168 34.372 76.78C32.2636 78.6432 30.9029 81.2144 30.5445 84.0126L27.8696 105.5H21C17.9755 105.504 15.0447 106.556 12.7017 108.477C10.3587 110.399 8.74675 113.074 8.1375 116.05H2.625C1.92881 116.05 1.26113 116.328 0.768845 116.823C0.276562 117.317 0 117.988 0 118.688C0 119.387 0.276562 120.058 0.768845 120.553C1.26113 121.047 1.92881 121.325 2.625 121.325H36.75C37.4462 121.325 38.1139 121.047 38.6062 120.553C39.0984 120.058 39.375 119.387 39.375 118.688C39.375 117.988 39.0984 117.317 38.6062 116.823C38.1139 116.328 37.4462 116.05 36.75 116.05H31.8491L35.7525 84.664C35.9496 83.1392 36.6924 81.7387 37.8421 80.7239C38.9917 79.7092 40.4697 79.1495 42 79.1495C43.5303 79.1495 45.0083 79.7092 46.1579 80.7239C47.3076 81.7387 48.0504 83.1392 48.2475 84.664L52.1509 116.05H47.25C46.5538 116.05 45.8861 116.328 45.3938 116.823C44.9016 117.317 44.625 117.988 44.625 118.688C44.625 119.387 44.9016 120.058 45.3938 120.553C45.8861 121.047 46.5538 121.325 47.25 121.325H154.875C155.571 121.325 156.239 121.047 156.731 120.553C157.223 120.058 157.5 119.387 157.5 118.688C157.5 117.988 157.223 117.317 156.731 116.823C156.239 116.328 155.571 116.05 154.875 116.05ZM112.875 78.0333L108.048 73.183C111.205 74.0727 114.545 74.0727 117.702 73.183L112.875 78.0333ZM99.75 55.3878V44.8378H100.201C104.798 44.8518 109.264 43.3042 112.875 40.4463C116.486 43.3042 120.952 44.8518 125.549 44.8378H126V55.3878C126 58.8853 124.617 62.2396 122.156 64.7127C119.694 67.1859 116.356 68.5753 112.875 68.5753C109.394 68.5753 106.056 67.1859 103.594 64.7127C101.133 62.2396 99.75 58.8853 99.75 55.3878ZM13.608 116.05C14.149 114.513 15.1495 113.181 16.4727 112.237C17.7958 111.292 19.3771 110.782 21 110.775H27.2134L26.5571 116.05H13.608ZM94.5 108.138C94.5 110.236 93.6703 112.249 92.1935 113.733C90.7166 115.217 88.7136 116.05 86.625 116.05H75.8625C75.4593 114.137 74.6341 112.339 73.4475 110.788C73.4659 110.788 73.4816 110.775 73.5026 110.775H86.6276C87.3238 110.775 87.9915 110.497 88.4838 110.003C88.9761 109.508 89.2526 108.837 89.2526 108.138C89.2526 107.438 88.9761 106.767 88.4838 106.273C87.9915 105.778 87.3238 105.5 86.6276 105.5V100.225H94.5026L94.5 108.138ZM68.25 100.225C70.8506 100.223 73.4104 99.5744 75.7006 98.3364C77.9908 97.0984 79.9403 95.3098 81.375 93.1304V105.5H73.5C71.8723 105.519 70.2911 106.049 68.9771 107.014C67.1345 106.035 65.0844 105.516 63 105.5H56.1304L55.4741 100.225H68.25ZM56.7866 110.775H63C64.7012 110.781 66.3539 111.345 67.7066 112.382L67.7302 112.408H67.7486C68.9626 113.339 69.881 114.604 70.392 116.05H57.4429L56.7866 110.775ZM115.5 116.05V113.413C115.5 112.713 115.777 112.042 116.269 111.548C116.761 111.053 117.429 110.775 118.125 110.775H131.25C131.946 110.775 132.614 110.497 133.106 110.003C133.598 109.508 133.875 108.837 133.875 108.138C133.875 107.438 133.598 106.767 133.106 106.273C132.614 105.778 131.946 105.5 131.25 105.5V100.225H139.125V108.138C139.125 110.236 138.295 112.249 136.818 113.733C135.342 115.217 133.339 116.05 131.25 116.05H115.5Z" fill="#3B31B3"/>
<path d="M13.125 100.225H21C21.6962 100.225 22.3639 99.9471 22.8562 99.4525C23.3484 98.9579 23.625 98.287 23.625 97.5875C23.625 96.888 23.3484 96.2171 22.8562 95.7225C22.3639 95.2279 21.6962 94.95 21 94.95H13.125C11.0364 94.95 9.03338 94.1164 7.55653 92.6325C6.07969 91.1486 5.25 89.136 5.25 87.0375V55.3875C5.25 53.289 6.07969 51.2764 7.55653 49.7925C9.03338 48.3086 11.0364 47.475 13.125 47.475H70.875C72.9636 47.475 74.9666 48.3086 76.4435 49.7925C77.9203 51.2764 78.75 53.289 78.75 55.3875C78.75 56.087 79.0266 56.7579 79.5188 57.2525C80.0111 57.7471 80.6788 58.025 81.375 58.025C82.0712 58.025 82.7389 57.7471 83.2312 57.2525C83.7234 56.7579 84 56.087 84 55.3875C83.9958 51.8912 82.6117 48.5394 80.1512 46.0672C77.6907 43.5949 74.3547 42.2042 70.875 42.2H68.7461L75.6525 30.1809C75.794 29.9351 75.8951 29.6679 75.9518 29.3897L79.2776 13.0372C79.3831 12.4966 79.3174 11.9364 79.0899 11.4353C78.8623 10.9341 78.4843 10.5171 78.0089 10.2428C77.5335 9.96842 76.9845 9.85054 76.439 9.90564C75.8936 9.96074 75.3789 10.1861 74.9674 10.55L62.5459 21.6275C62.3369 21.8156 62.1596 22.0365 62.0209 22.2816L59.8159 26.1192C59.0785 24.2649 57.6725 22.758 55.8784 21.8992L57.6135 16.6637C57.8111 16.072 57.7934 15.429 57.5636 14.8491L52.3136 1.66162C52.1193 1.17129 51.783 0.75083 51.3482 0.454604C50.9135 0.158378 50.4003 1.75359e-05 49.875 7.76489e-07H39.375C38.8503 -0.000403649 38.3376 0.157181 37.9029 0.452421C37.4682 0.747661 37.1316 1.16701 36.9364 1.65635L31.6864 14.8439C31.4566 15.4237 31.4389 16.0667 31.6365 16.6585L33.3716 21.8939C31.9536 22.5633 30.7683 23.6451 29.969 24.999C29.1698 26.353 28.7934 27.9169 28.8887 29.4881C28.984 31.0594 29.5466 32.5658 30.5035 33.8122C31.4605 35.0587 32.7678 35.9878 34.2563 36.4793L34.6133 42.2H24.9506L24.5858 41.5617L26.859 40.243C27.1599 40.0711 27.4241 39.841 27.6362 39.5661C27.8483 39.2912 28.0042 38.9769 28.0949 38.6412C28.1856 38.3055 28.2093 37.9551 28.1647 37.6102C28.1201 37.2653 28.008 36.9326 27.8349 36.6314C27.6618 36.3301 27.4311 36.0663 27.1561 35.855C26.8811 35.6437 26.5672 35.4892 26.2325 35.4003C25.8978 35.3114 25.549 35.2898 25.206 35.337C24.863 35.3841 24.5326 35.4989 24.234 35.6748L21.9608 36.9936L19.3358 32.4281L21.609 31.1093C21.9099 30.9374 22.1741 30.7074 22.3862 30.4325C22.5983 30.1576 22.7542 29.8432 22.8449 29.5075C22.9356 29.1719 22.9593 28.8215 22.9147 28.4765C22.8701 28.1316 22.758 27.7989 22.5849 27.4977C22.4118 27.1965 22.1811 26.9326 21.9061 26.7213C21.6311 26.5101 21.3172 26.3555 20.9825 26.2666C20.6478 26.1777 20.299 26.1562 19.956 26.2033C19.613 26.2504 19.2826 26.3652 18.984 26.5412L16.7108 27.8599L14.0858 23.2918L16.359 21.973C16.6599 21.8011 16.9241 21.5711 17.1362 21.2962C17.3483 21.0213 17.5042 20.7069 17.5949 20.3712C17.6856 20.0356 17.7093 19.6852 17.6647 19.3402C17.6201 18.9953 17.508 18.6626 17.3349 18.3614C17.1618 18.0602 16.9311 17.7963 16.6561 17.585C16.3811 17.3738 16.0672 17.2192 15.7325 17.1303C15.3978 17.0414 15.049 17.0199 14.706 17.067C14.363 17.1141 14.0326 17.229 13.734 17.4049L11.4608 18.7236L8.83575 14.1555L17.9287 8.88046L24.3311 20.0213C24.5022 20.3236 24.7312 20.589 25.0048 20.8021C25.2784 21.0153 25.5912 21.1719 25.9253 21.263C26.2594 21.3542 26.6081 21.378 26.9514 21.3332C27.2947 21.2883 27.6258 21.1757 27.9256 21.0018C28.2254 20.8279 28.488 20.5961 28.6983 20.3198C28.9086 20.0435 29.0624 19.7281 29.1509 19.3918C29.2394 19.0555 29.2608 18.705 29.2139 18.3604C29.167 18.0157 29.0527 17.6838 28.8776 17.3838L21.1628 3.95625C20.8147 3.35334 20.2433 2.91338 19.5733 2.73249C18.9034 2.55161 18.1895 2.64453 17.5875 2.99093L3.9375 10.9034C3.33461 11.2532 2.89469 11.8293 2.71452 12.5049C2.53434 13.1806 2.62867 13.9005 2.97675 14.5063L18.9 42.2H13.125C9.64531 42.2042 6.30934 43.5949 3.84883 46.0672C1.38832 48.5394 0.00416813 51.8912 0 55.3875V87.0375C0.00416813 90.5338 1.38832 93.8856 3.84883 96.3578C6.30934 98.8301 9.64531 100.221 13.125 100.225ZM71.5365 24.7477L68.754 23.1335L72.5576 19.7417L71.5365 24.7477ZM65.2365 27.19L69.783 29.8275L62.685 42.2H56.6213L65.2365 27.19ZM41.1521 5.275H42V13.1875C42 13.887 42.2766 14.5579 42.7688 15.0525C43.2611 15.5471 43.9288 15.825 44.625 15.825C45.3212 15.825 45.9889 15.5471 46.4812 15.0525C46.9734 14.5579 47.25 13.887 47.25 13.1875V5.275H48.0979L52.332 15.9068L50.6074 21.1H38.6426L36.918 15.9068L41.1521 5.275ZM36.75 26.375H52.5C53.1962 26.375 53.8639 26.6529 54.3562 27.1475C54.8484 27.6421 55.125 28.313 55.125 29.0125C55.125 29.712 54.8484 30.3829 54.3562 30.8775C53.8639 31.3721 53.1962 31.65 52.5 31.65H36.75C36.0538 31.65 35.3861 31.3721 34.8938 30.8775C34.4016 30.3829 34.125 29.712 34.125 29.0125C34.125 28.313 34.4016 27.6421 34.8938 27.1475C35.3861 26.6529 36.0538 26.375 36.75 26.375ZM39.543 36.925H49.707L49.3789 42.2H39.8711L39.543 36.925Z" fill="#C4C4C4"/>
<path d="M13.125 100.225H21C21.6962 100.225 22.3639 99.9471 22.8562 99.4525C23.3484 98.9579 23.625 98.287 23.625 97.5875C23.625 96.888 23.3484 96.2171 22.8562 95.7225C22.3639 95.2279 21.6962 94.95 21 94.95H13.125C11.0364 94.95 9.03338 94.1164 7.55653 92.6325C6.07969 91.1486 5.25 89.136 5.25 87.0375V55.3875C5.25 53.289 6.07969 51.2764 7.55653 49.7925C9.03338 48.3086 11.0364 47.475 13.125 47.475H70.875C72.9636 47.475 74.9666 48.3086 76.4435 49.7925C77.9203 51.2764 78.75 53.289 78.75 55.3875C78.75 56.087 79.0266 56.7579 79.5188 57.2525C80.0111 57.7471 80.6788 58.025 81.375 58.025C82.0712 58.025 82.7389 57.7471 83.2312 57.2525C83.7234 56.7579 84 56.087 84 55.3875C83.9958 51.8912 82.6117 48.5394 80.1512 46.0672C77.6907 43.5949 74.3547 42.2042 70.875 42.2H68.7461L75.6525 30.1809C75.794 29.9351 75.8951 29.6679 75.9518 29.3897L79.2776 13.0372C79.3831 12.4966 79.3174 11.9364 79.0899 11.4353C78.8623 10.9341 78.4843 10.5171 78.0089 10.2428C77.5335 9.96842 76.9845 9.85054 76.439 9.90564C75.8936 9.96074 75.3789 10.1861 74.9674 10.55L62.5459 21.6275C62.3369 21.8156 62.1596 22.0365 62.0209 22.2816L59.8159 26.1192C59.0785 24.2649 57.6725 22.758 55.8784 21.8992L57.6135 16.6637C57.8111 16.072 57.7934 15.429 57.5636 14.8491L52.3136 1.66162C52.1193 1.17129 51.783 0.75083 51.3482 0.454604C50.9135 0.158378 50.4003 1.75359e-05 49.875 7.76489e-07H39.375C38.8503 -0.000403649 38.3376 0.157181 37.9029 0.452421C37.4682 0.747661 37.1316 1.16701 36.9364 1.65635L31.6864 14.8439C31.4566 15.4237 31.4389 16.0667 31.6365 16.6585L33.3716 21.8939C31.9536 22.5633 30.7683 23.6451 29.969 24.999C29.1698 26.353 28.7934 27.9169 28.8887 29.4881C28.984 31.0594 29.5466 32.5658 30.5035 33.8122C31.4605 35.0587 32.7678 35.9878 34.2563 36.4793L34.6133 42.2H24.9506L24.5858 41.5617L26.859 40.243C27.1599 40.0711 27.4241 39.841 27.6362 39.5661C27.8483 39.2912 28.0042 38.9769 28.0949 38.6412C28.1856 38.3055 28.2093 37.9551 28.1647 37.6102C28.1201 37.2653 28.008 36.9326 27.8349 36.6314C27.6618 36.3301 27.4311 36.0663 27.1561 35.855C26.8811 35.6437 26.5672 35.4892 26.2325 35.4003C25.8978 35.3114 25.549 35.2898 25.206 35.337C24.863 35.3841 24.5326 35.4989 24.234 35.6748L21.9608 36.9936L19.3358 32.4281L21.609 31.1093C21.9099 30.9374 22.1741 30.7074 22.3862 30.4325C22.5983 30.1576 22.7542 29.8432 22.8449 29.5075C22.9356 29.1719 22.9593 28.8215 22.9147 28.4765C22.8701 28.1316 22.758 27.7989 22.5849 27.4977C22.4118 27.1965 22.1811 26.9326 21.9061 26.7213C21.6311 26.5101 21.3172 26.3555 20.9825 26.2666C20.6478 26.1777 20.299 26.1562 19.956 26.2033C19.613 26.2504 19.2826 26.3652 18.984 26.5412L16.7108 27.8599L14.0858 23.2918L16.359 21.973C16.6599 21.8011 16.9241 21.5711 17.1362 21.2962C17.3483 21.0213 17.5042 20.7069 17.5949 20.3712C17.6856 20.0356 17.7093 19.6852 17.6647 19.3402C17.6201 18.9953 17.508 18.6626 17.3349 18.3614C17.1618 18.0602 16.9311 17.7963 16.6561 17.585C16.3811 17.3738 16.0672 17.2192 15.7325 17.1303C15.3978 17.0414 15.049 17.0199 14.706 17.067C14.363 17.1141 14.0326 17.229 13.734 17.4049L11.4608 18.7236L8.83575 14.1555L17.9287 8.88046L24.3311 20.0213C24.5022 20.3236 24.7312 20.589 25.0048 20.8021C25.2784 21.0153 25.5912 21.1719 25.9253 21.263C26.2594 21.3542 26.6081 21.378 26.9514 21.3332C27.2947 21.2883 27.6258 21.1757 27.9256 21.0018C28.2254 20.8279 28.488 20.5961 28.6983 20.3198C28.9086 20.0435 29.0624 19.7281 29.1509 19.3918C29.2394 19.0555 29.2608 18.705 29.2139 18.3604C29.167 18.0157 29.0527 17.6838 28.8776 17.3838L21.1628 3.95625C20.8147 3.35334 20.2433 2.91338 19.5733 2.73249C18.9034 2.55161 18.1895 2.64453 17.5875 2.99093L3.9375 10.9034C3.33461 11.2532 2.89469 11.8293 2.71452 12.5049C2.53434 13.1806 2.62867 13.9005 2.97675 14.5063L18.9 42.2H13.125C9.64531 42.2042 6.30934 43.5949 3.84883 46.0672C1.38832 48.5394 0.00416813 51.8912 0 55.3875V87.0375C0.00416813 90.5338 1.38832 93.8856 3.84883 96.3578C6.30934 98.8301 9.64531 100.221 13.125 100.225ZM71.5365 24.7477L68.754 23.1335L72.5576 19.7417L71.5365 24.7477ZM65.2365 27.19L69.783 29.8275L62.685 42.2H56.6213L65.2365 27.19ZM41.1521 5.275H42V13.1875C42 13.887 42.2766 14.5579 42.7688 15.0525C43.2611 15.5471 43.9288 15.825 44.625 15.825C45.3212 15.825 45.9889 15.5471 46.4812 15.0525C46.9734 14.5579 47.25 13.887 47.25 13.1875V5.275H48.0979L52.332 15.9068L50.6074 21.1H38.6426L36.918 15.9068L41.1521 5.275ZM36.75 26.375H52.5C53.1962 26.375 53.8639 26.6529 54.3562 27.1475C54.8484 27.6421 55.125 28.313 55.125 29.0125C55.125 29.712 54.8484 30.3829 54.3562 30.8775C53.8639 31.3721 53.1962 31.65 52.5 31.65H36.75C36.0538 31.65 35.3861 31.3721 34.8938 30.8775C34.4016 30.3829 34.125 29.712 34.125 29.0125C34.125 28.313 34.4016 27.6421 34.8938 27.1475C35.3861 26.6529 36.0538 26.375 36.75 26.375ZM39.543 36.925H49.707L49.3789 42.2H39.8711L39.543 36.925Z" fill="#3B31B3"/>
<path d="M31.5 60.6626C30.8038 60.6626 30.1361 60.9405 29.6438 61.4351C29.1516 61.9297 28.875 62.6006 28.875 63.3001C28.875 63.9996 29.1516 64.6705 29.6438 65.1651C30.1361 65.6597 30.8038 65.9376 31.5 65.9376H52.5C53.1962 65.9376 53.8639 65.6597 54.3562 65.1651C54.8484 64.6705 55.125 63.9996 55.125 63.3001C55.125 62.6006 54.8484 61.9297 54.3562 61.4351C53.8639 60.9405 53.1962 60.6626 52.5 60.6626H31.5Z" fill="#C4C4C4"/>
<path d="M31.5 60.6626C30.8038 60.6626 30.1361 60.9405 29.6438 61.4351C29.1516 61.9297 28.875 62.6006 28.875 63.3001C28.875 63.9996 29.1516 64.6705 29.6438 65.1651C30.1361 65.6597 30.8038 65.9376 31.5 65.9376H52.5C53.1962 65.9376 53.8639 65.6597 54.3562 65.1651C54.8484 64.6705 55.125 63.9996 55.125 63.3001C55.125 62.6006 54.8484 61.9297 54.3562 61.4351C53.8639 60.9405 53.1962 60.6626 52.5 60.6626H31.5Z" fill="#3B31B3"/>
</svg>
