<svg width="104" height="101" viewBox="0 0 104 101" fill="none" xmlns="http://www.w3.org/2000/svg">
<path d="M52.0004 0.756348C41.8245 0.756348 31.877 3.69264 23.416 9.19391C14.955 14.6952 8.36045 22.5144 4.46627 31.6626C0.572097 40.8109 -0.446796 50.8774 1.53844 60.5892C3.52367 70.3009 8.42387 79.2218 15.6194 86.2236C22.8149 93.2254 31.9825 97.9936 41.9629 99.9254C51.9434 101.857 62.2884 100.866 71.6897 97.0764C81.0911 93.2871 89.1266 86.87 94.7801 78.6368C100.434 70.4036 103.451 60.7239 103.451 50.8219C103.451 37.5437 98.0304 24.8093 88.3815 15.4202C78.7327 6.0311 65.646 0.756348 52.0004 0.756348V0.756348ZM92.6143 32.0473H52.0004C50.7485 32.044 49.4992 32.1593 48.2703 32.3915L62.7086 8.29747C69.1912 9.85071 75.2377 12.7875 80.41 16.8952C85.5824 21.0028 89.7511 26.1785 92.6143 32.0473ZM64.8631 50.8219C64.8737 53.8118 63.784 56.7065 61.7913 58.9823C59.7985 61.2582 57.0344 62.7647 53.9992 63.2293C50.9639 63.6938 47.858 63.0858 45.2435 61.5151C42.629 59.9445 40.6787 57.515 39.7455 54.6664C38.8123 51.8177 38.9578 48.7381 40.1558 45.9849C41.3538 43.2316 43.5251 40.9866 46.2767 39.6561C49.0283 38.3256 52.1784 37.9975 55.1571 38.7313C58.1357 39.465 60.746 41.212 62.5157 43.6563L62.7729 44.0005C64.1334 46.0295 64.8595 48.3992 64.8631 50.8219ZM52.0004 7.01454C53.3189 7.01454 54.6373 7.01454 55.9235 7.20229L36.3723 39.8701C35.7101 40.7576 35.129 41.7 34.6359 42.6862L20.4548 19.5309C28.8792 11.4989 40.2063 7.00467 52.0004 7.01454ZM6.98115 50.8219C6.98339 41.3578 10.1556 32.1523 16.0172 24.6001L32.7065 51.7606C32.9447 56.0581 34.693 60.1454 37.6586 63.3383H8.71761C7.51785 59.2702 6.9329 55.0539 6.98115 50.8219ZM11.3866 69.5965H52.0004C53.2524 69.5998 54.5016 69.4845 55.7306 69.2523L41.2923 93.3463C34.8096 91.7931 28.7632 88.8563 23.5908 84.7486C18.4185 80.6409 14.2498 75.4653 11.3866 69.5965ZM52.0004 94.6292C50.682 94.6292 49.3636 94.6292 48.0773 94.4415L67.6286 61.7737C69.0256 59.8878 70.0506 57.7657 70.6513 55.5155L86.7296 78.796C82.496 83.7607 77.1879 87.7542 71.1844 90.4912C65.1808 93.2283 58.6302 94.6413 52.0004 94.6292ZM68.0788 40.7149L67.6286 40.0578L67.3713 39.6823C67.0069 39.2025 66.6103 38.7331 66.1815 38.2742H95.1225C96.9359 44.0984 97.4693 50.2287 96.6882 56.2667C95.907 62.3046 93.8287 68.115 90.5884 73.3201L68.0788 40.7149Z" fill="#C4C4C4"/>
<path d="M52.0004 0.756348C41.8245 0.756348 31.877 3.69264 23.416 9.19391C14.955 14.6952 8.36045 22.5144 4.46627 31.6626C0.572097 40.8109 -0.446796 50.8774 1.53844 60.5892C3.52367 70.3009 8.42387 79.2218 15.6194 86.2236C22.8149 93.2254 31.9825 97.9936 41.9629 99.9254C51.9434 101.857 62.2884 100.866 71.6897 97.0764C81.0911 93.2871 89.1266 86.87 94.7801 78.6368C100.434 70.4036 103.451 60.7239 103.451 50.8219C103.451 37.5437 98.0304 24.8093 88.3815 15.4202C78.7327 6.0311 65.646 0.756348 52.0004 0.756348V0.756348ZM92.6143 32.0473H52.0004C50.7485 32.044 49.4992 32.1593 48.2703 32.3915L62.7086 8.29747C69.1912 9.85071 75.2377 12.7875 80.41 16.8952C85.5824 21.0028 89.7511 26.1785 92.6143 32.0473ZM64.8631 50.8219C64.8737 53.8118 63.784 56.7065 61.7913 58.9823C59.7985 61.2582 57.0344 62.7647 53.9992 63.2293C50.9639 63.6938 47.858 63.0858 45.2435 61.5151C42.629 59.9445 40.6787 57.515 39.7455 54.6664C38.8123 51.8177 38.9578 48.7381 40.1558 45.9849C41.3538 43.2316 43.5251 40.9866 46.2767 39.6561C49.0283 38.3256 52.1784 37.9975 55.1571 38.7313C58.1357 39.465 60.746 41.212 62.5157 43.6563L62.7729 44.0005C64.1334 46.0295 64.8595 48.3992 64.8631 50.8219ZM52.0004 7.01454C53.3189 7.01454 54.6373 7.01454 55.9235 7.20229L36.3723 39.8701C35.7101 40.7576 35.129 41.7 34.6359 42.6862L20.4548 19.5309C28.8792 11.4989 40.2063 7.00467 52.0004 7.01454ZM6.98115 50.8219C6.98339 41.3578 10.1556 32.1523 16.0172 24.6001L32.7065 51.7606C32.9447 56.0581 34.693 60.1454 37.6586 63.3383H8.71761C7.51785 59.2702 6.9329 55.0539 6.98115 50.8219ZM11.3866 69.5965H52.0004C53.2524 69.5998 54.5016 69.4845 55.7306 69.2523L41.2923 93.3463C34.8096 91.7931 28.7632 88.8563 23.5908 84.7486C18.4185 80.6409 14.2498 75.4653 11.3866 69.5965ZM52.0004 94.6292C50.682 94.6292 49.3636 94.6292 48.0773 94.4415L67.6286 61.7737C69.0256 59.8878 70.0506 57.7657 70.6513 55.5155L86.7296 78.796C82.496 83.7607 77.1879 87.7542 71.1844 90.4912C65.1808 93.2283 58.6302 94.6413 52.0004 94.6292ZM68.0788 40.7149L67.6286 40.0578L67.3713 39.6823C67.0069 39.2025 66.6103 38.7331 66.1815 38.2742H95.1225C96.9359 44.0984 97.4693 50.2287 96.6882 56.2667C95.907 62.3046 93.8287 68.115 90.5884 73.3201L68.0788 40.7149Z" fill="#3B31B3"/>
</svg>
