<svg width="102" height="102" viewBox="0 0 102 102" fill="none" xmlns="http://www.w3.org/2000/svg">
<mask id="path-1-outside-1" maskUnits="userSpaceOnUse" x="-0.131836" y="-0.0654297" width="103" height="102" fill="black">
<rect fill="white" x="-0.131836" y="-0.0654297" width="103" height="102"/>
<path d="M82.7076 0.950835C78.1494 0.7583 73.6383 2.27385 70.253 5.56544L49.6329 25.5889L32.3532 8.77564C32.2163 8.63925 32.0641 8.51813 31.8996 8.41451C28.3561 5.18035 23.863 3.52172 19.3213 3.51901C14.5935 3.51644 9.8472 5.27381 6.24815 8.77564C-0.949946 15.7793 -0.914027 27.1672 6.28939 34.176L23.5278 50.9893L9.46489 64.6727C5.13237 68.8923 3.83236 76.2157 2.99017 82.6496C2.14797 89.0836 2.16536 94.6876 2.16536 94.6876C2.16544 95.3687 2.44354 96.0219 2.9385 96.5035C3.43347 96.9851 4.10476 97.2558 4.80474 97.2559C4.80474 97.2559 10.5643 97.2326 17.1768 96.4131C23.7893 95.5936 31.2745 94.3287 35.6112 90.1132L49.7154 76.4299L55.7365 82.3285C56.2347 82.8101 56.9088 83.0798 57.6111 83.0787C58.3133 83.0775 58.9865 82.8056 59.4831 82.3224C59.9796 81.8392 60.2591 81.1842 60.2603 80.5009C60.2615 79.8175 59.9842 79.1617 59.4893 78.6769L10.001 30.5646C4.79839 25.5025 4.8088 17.439 10.001 12.3871C15.1932 7.33512 23.439 7.36513 28.6416 12.4271C28.7076 12.4839 28.7764 12.5375 28.8478 12.5877L91.9866 74.0623C97.1893 79.1246 97.1789 87.1476 91.9866 92.1997C86.7944 97.2515 78.5487 97.2216 73.3461 92.1599L66.1702 85.1776C65.9238 84.9378 65.6313 84.7476 65.3093 84.6178C64.9874 84.4881 64.6423 84.4213 64.2938 84.4213C63.59 84.4213 62.915 84.6934 62.4174 85.1776C61.9197 85.6618 61.6401 86.3186 61.6401 87.0034C61.6401 87.6882 61.9197 88.3449 62.4174 88.8292L69.6344 95.8112C76.8378 102.82 88.5414 102.815 95.7395 95.8112C102.938 88.8074 102.902 77.4198 95.6983 70.4109L75.8205 51.0295L96.3994 31.006C103.165 24.4182 102.535 13.4612 95.4096 6.52847C91.8471 3.06214 87.2658 1.14338 82.7076 0.950835ZM81.3879 6.08711C84.9489 5.92219 88.7195 7.24181 91.698 10.1399C96.9931 15.2921 97.2215 22.94 92.6465 27.3946L72.0676 47.418L64.6031 40.1149L83.2025 22.0175C83.6118 21.6435 83.8879 21.1522 83.9905 20.615C84.0932 20.0778 84.0171 19.5228 83.7734 19.0306C83.5297 18.5383 83.1309 18.1345 82.6352 17.8779C82.1394 17.6213 81.5725 17.5252 81.0167 17.6036C80.4351 17.6854 79.8981 17.9536 79.4908 18.366L60.8503 36.5034L53.3858 29.2003L73.9647 9.17688C75.9676 7.22937 78.6182 6.21538 81.3879 6.08711ZM28.2292 16.3195C27.6475 16.4013 27.1105 16.6696 26.7033 17.0819L24.0639 19.6902C23.7755 19.9164 23.5392 20.1991 23.3704 20.52C23.2017 20.8408 23.1042 21.1927 23.0844 21.5526C23.0645 21.9125 23.1228 22.2725 23.2553 22.6091C23.3879 22.9457 23.5918 23.2513 23.8537 23.5062C24.1156 23.761 24.4298 23.9594 24.7757 24.0884C25.1216 24.2174 25.4916 24.274 25.8615 24.2547C26.2314 24.2355 26.593 24.1407 26.9228 23.9764C27.2526 23.8122 27.5431 23.5823 27.7756 23.3017L30.4149 20.7335C30.8243 20.3594 31.1003 19.8681 31.203 19.331C31.3057 18.7938 31.2296 18.2387 30.9859 17.7465C30.7421 17.2543 30.3434 16.8505 29.8476 16.5939C29.3519 16.3372 28.7849 16.2412 28.2292 16.3195ZM41.4261 29.1602C40.8444 29.242 40.3074 29.5102 39.9002 29.9226L37.2608 32.4907C37.0065 32.7261 36.8029 33.0084 36.6621 33.3212C36.5212 33.634 36.4459 33.9711 36.4405 34.3125C36.4352 34.654 36.4998 34.9931 36.6308 35.31C36.7617 35.6268 36.9563 35.9152 37.2031 36.158C37.4499 36.4008 37.744 36.5933 38.0682 36.7242C38.3924 36.8551 38.7402 36.9217 39.0911 36.9203C39.4421 36.9188 39.7893 36.8493 40.1123 36.7157C40.4354 36.5821 40.7278 36.3872 40.9725 36.1423L43.6118 33.5741C44.0211 33.2001 44.2972 32.7088 44.3999 32.1716C44.5025 31.6344 44.4265 31.0794 44.1827 30.5872C43.939 30.0949 43.5403 29.6912 43.0445 29.4346C42.5488 29.178 41.9818 29.0818 41.4261 29.1602ZM54.623 42.0008C54.0413 42.0826 53.5043 42.3509 53.0971 42.7632L50.4577 45.3314C50.2034 45.5667 49.9998 45.8491 49.859 46.1619C49.7181 46.4748 49.6428 46.8117 49.6374 47.1532C49.632 47.4947 49.6967 47.8337 49.8277 48.1506C49.9586 48.4675 50.1531 48.7558 50.4 48.9986C50.6468 49.2415 50.9409 49.4339 51.2651 49.5648C51.5893 49.6957 51.937 49.7624 52.288 49.7609C52.639 49.7595 52.9862 49.6899 53.3092 49.5563C53.6323 49.4228 53.9247 49.2278 54.1693 48.983L56.8087 46.4149C57.218 46.0408 57.4941 45.5494 57.5968 45.0123C57.6994 44.4751 57.6234 43.92 57.3796 43.4278C57.1359 42.9356 56.7372 42.5319 56.2414 42.2752C55.7457 42.0186 55.1787 41.9225 54.623 42.0008ZM27.2807 54.6007L35.405 62.5459L21.4246 76.149C21.1703 76.3843 20.9668 76.6667 20.826 76.9795C20.6852 77.2923 20.61 77.6293 20.6046 77.9708C20.5993 78.3122 20.664 78.6512 20.7949 78.968C20.9258 79.2849 21.1204 79.5731 21.3672 79.8159C21.614 80.0587 21.908 80.2512 22.2322 80.3821C22.5563 80.513 22.904 80.5797 23.255 80.5783C23.6059 80.5768 23.9531 80.5073 24.2761 80.3738C24.5991 80.2402 24.8915 80.0454 25.1362 79.8006L39.1579 66.1573L45.9625 72.8185L31.8996 86.5018C29.6956 88.6441 22.7482 90.5449 16.517 91.317C15.3377 91.4632 14.2945 91.5971 13.3827 91.6781C13.3429 91.6365 13.3016 91.5963 13.259 91.5574L7.98024 86.4211C7.95335 86.3939 7.92585 86.3674 7.89776 86.3414C7.97718 85.4544 8.0775 84.4392 8.22768 83.2918C9.02133 77.2287 11.0159 70.4688 13.2178 68.3245L27.2807 54.6009L27.2807 54.6007ZM67.8199 54.8416C67.2382 54.9233 66.7012 55.1916 66.294 55.6039L63.6546 58.172C63.4003 58.4074 63.1968 58.6898 63.056 59.0026C62.9153 59.3154 62.84 59.6524 62.8346 59.9938C62.8293 60.3353 62.894 60.6743 63.0249 60.9911C63.1558 61.3079 63.3504 61.5962 63.5972 61.839C63.844 62.0818 64.138 62.2743 64.4622 62.4051C64.7863 62.536 65.134 62.6027 65.485 62.6013C65.836 62.5998 66.1831 62.5304 66.5061 62.3968C66.8291 62.2633 67.1215 62.0685 67.3662 61.8237L70.0056 59.2554C70.4149 58.8814 70.6909 58.3901 70.7935 57.8529C70.8962 57.3158 70.8201 56.7607 70.5763 56.2685C70.3326 55.7763 69.9339 55.3726 69.4382 55.116C68.9425 54.8593 68.3756 54.7632 67.8199 54.8416ZM81.0167 67.6821C80.4351 67.7639 79.8981 68.0322 79.4908 68.4445L76.8515 71.0128C76.5968 71.2481 76.393 71.5304 76.2519 71.8433C76.1109 72.1562 76.0354 72.4933 76.0299 72.8349C76.0244 73.1766 76.089 73.5158 76.2199 73.8329C76.3508 74.1499 76.5455 74.4383 76.7924 74.6813C77.0393 74.9242 77.3336 75.1167 77.658 75.2476C77.9823 75.3785 78.3303 75.4451 78.6814 75.4436C79.0326 75.442 79.3799 75.3722 79.703 75.2384C80.0261 75.1046 80.3185 74.9094 80.5631 74.6643L83.2025 72.0961C83.6118 71.722 83.8879 71.2307 83.9905 70.6936C84.0932 70.1564 84.0172 69.6013 83.7734 69.1091C83.5297 68.6169 83.1309 68.2131 82.6352 67.9565C82.1394 67.6998 81.5725 67.6038 81.0167 67.6821Z"/>
</mask>
<path d="M82.7076 0.950835C78.1494 0.7583 73.6383 2.27385 70.253 5.56544L49.6329 25.5889L32.3532 8.77564C32.2163 8.63925 32.0641 8.51813 31.8996 8.41451C28.3561 5.18035 23.863 3.52172 19.3213 3.51901C14.5935 3.51644 9.8472 5.27381 6.24815 8.77564C-0.949946 15.7793 -0.914027 27.1672 6.28939 34.176L23.5278 50.9893L9.46489 64.6727C5.13237 68.8923 3.83236 76.2157 2.99017 82.6496C2.14797 89.0836 2.16536 94.6876 2.16536 94.6876C2.16544 95.3687 2.44354 96.0219 2.9385 96.5035C3.43347 96.9851 4.10476 97.2558 4.80474 97.2559C4.80474 97.2559 10.5643 97.2326 17.1768 96.4131C23.7893 95.5936 31.2745 94.3287 35.6112 90.1132L49.7154 76.4299L55.7365 82.3285C56.2347 82.8101 56.9088 83.0798 57.6111 83.0787C58.3133 83.0775 58.9865 82.8056 59.4831 82.3224C59.9796 81.8392 60.2591 81.1842 60.2603 80.5009C60.2615 79.8175 59.9842 79.1617 59.4893 78.6769L10.001 30.5646C4.79839 25.5025 4.8088 17.439 10.001 12.3871C15.1932 7.33512 23.439 7.36513 28.6416 12.4271C28.7076 12.4839 28.7764 12.5375 28.8478 12.5877L91.9866 74.0623C97.1893 79.1246 97.1789 87.1476 91.9866 92.1997C86.7944 97.2515 78.5487 97.2216 73.3461 92.1599L66.1702 85.1776C65.9238 84.9378 65.6313 84.7476 65.3093 84.6178C64.9874 84.4881 64.6423 84.4213 64.2938 84.4213C63.59 84.4213 62.915 84.6934 62.4174 85.1776C61.9197 85.6618 61.6401 86.3186 61.6401 87.0034C61.6401 87.6882 61.9197 88.3449 62.4174 88.8292L69.6344 95.8112C76.8378 102.82 88.5414 102.815 95.7395 95.8112C102.938 88.8074 102.902 77.4198 95.6983 70.4109L75.8205 51.0295L96.3994 31.006C103.165 24.4182 102.535 13.4612 95.4096 6.52847C91.8471 3.06214 87.2658 1.14338 82.7076 0.950835ZM81.3879 6.08711C84.9489 5.92219 88.7195 7.24181 91.698 10.1399C96.9931 15.2921 97.2215 22.94 92.6465 27.3946L72.0676 47.418L64.6031 40.1149L83.2025 22.0175C83.6118 21.6435 83.8879 21.1522 83.9905 20.615C84.0932 20.0778 84.0171 19.5228 83.7734 19.0306C83.5297 18.5383 83.1309 18.1345 82.6352 17.8779C82.1394 17.6213 81.5725 17.5252 81.0167 17.6036C80.4351 17.6854 79.8981 17.9536 79.4908 18.366L60.8503 36.5034L53.3858 29.2003L73.9647 9.17688C75.9676 7.22937 78.6182 6.21538 81.3879 6.08711ZM28.2292 16.3195C27.6475 16.4013 27.1105 16.6696 26.7033 17.0819L24.0639 19.6902C23.7755 19.9164 23.5392 20.1991 23.3704 20.52C23.2017 20.8408 23.1042 21.1927 23.0844 21.5526C23.0645 21.9125 23.1228 22.2725 23.2553 22.6091C23.3879 22.9457 23.5918 23.2513 23.8537 23.5062C24.1156 23.761 24.4298 23.9594 24.7757 24.0884C25.1216 24.2174 25.4916 24.274 25.8615 24.2547C26.2314 24.2355 26.593 24.1407 26.9228 23.9764C27.2526 23.8122 27.5431 23.5823 27.7756 23.3017L30.4149 20.7335C30.8243 20.3594 31.1003 19.8681 31.203 19.331C31.3057 18.7938 31.2296 18.2387 30.9859 17.7465C30.7421 17.2543 30.3434 16.8505 29.8476 16.5939C29.3519 16.3372 28.7849 16.2412 28.2292 16.3195ZM41.4261 29.1602C40.8444 29.242 40.3074 29.5102 39.9002 29.9226L37.2608 32.4907C37.0065 32.7261 36.8029 33.0084 36.6621 33.3212C36.5212 33.634 36.4459 33.9711 36.4405 34.3125C36.4352 34.654 36.4998 34.9931 36.6308 35.31C36.7617 35.6268 36.9563 35.9152 37.2031 36.158C37.4499 36.4008 37.744 36.5933 38.0682 36.7242C38.3924 36.8551 38.7402 36.9217 39.0911 36.9203C39.4421 36.9188 39.7893 36.8493 40.1123 36.7157C40.4354 36.5821 40.7278 36.3872 40.9725 36.1423L43.6118 33.5741C44.0211 33.2001 44.2972 32.7088 44.3999 32.1716C44.5025 31.6344 44.4265 31.0794 44.1827 30.5872C43.939 30.0949 43.5403 29.6912 43.0445 29.4346C42.5488 29.178 41.9818 29.0818 41.4261 29.1602ZM54.623 42.0008C54.0413 42.0826 53.5043 42.3509 53.0971 42.7632L50.4577 45.3314C50.2034 45.5667 49.9998 45.8491 49.859 46.1619C49.7181 46.4748 49.6428 46.8117 49.6374 47.1532C49.632 47.4947 49.6967 47.8337 49.8277 48.1506C49.9586 48.4675 50.1531 48.7558 50.4 48.9986C50.6468 49.2415 50.9409 49.4339 51.2651 49.5648C51.5893 49.6957 51.937 49.7624 52.288 49.7609C52.639 49.7595 52.9862 49.6899 53.3092 49.5563C53.6323 49.4228 53.9247 49.2278 54.1693 48.983L56.8087 46.4149C57.218 46.0408 57.4941 45.5494 57.5968 45.0123C57.6994 44.4751 57.6234 43.92 57.3796 43.4278C57.1359 42.9356 56.7372 42.5319 56.2414 42.2752C55.7457 42.0186 55.1787 41.9225 54.623 42.0008ZM27.2807 54.6007L35.405 62.5459L21.4246 76.149C21.1703 76.3843 20.9668 76.6667 20.826 76.9795C20.6852 77.2923 20.61 77.6293 20.6046 77.9708C20.5993 78.3122 20.664 78.6512 20.7949 78.968C20.9258 79.2849 21.1204 79.5731 21.3672 79.8159C21.614 80.0587 21.908 80.2512 22.2322 80.3821C22.5563 80.513 22.904 80.5797 23.255 80.5783C23.6059 80.5768 23.9531 80.5073 24.2761 80.3738C24.5991 80.2402 24.8915 80.0454 25.1362 79.8006L39.1579 66.1573L45.9625 72.8185L31.8996 86.5018C29.6956 88.6441 22.7482 90.5449 16.517 91.317C15.3377 91.4632 14.2945 91.5971 13.3827 91.6781C13.3429 91.6365 13.3016 91.5963 13.259 91.5574L7.98024 86.4211C7.95335 86.3939 7.92585 86.3674 7.89776 86.3414C7.97718 85.4544 8.0775 84.4392 8.22768 83.2918C9.02133 77.2287 11.0159 70.4688 13.2178 68.3245L27.2807 54.6009L27.2807 54.6007ZM67.8199 54.8416C67.2382 54.9233 66.7012 55.1916 66.294 55.6039L63.6546 58.172C63.4003 58.4074 63.1968 58.6898 63.056 59.0026C62.9153 59.3154 62.84 59.6524 62.8346 59.9938C62.8293 60.3353 62.894 60.6743 63.0249 60.9911C63.1558 61.3079 63.3504 61.5962 63.5972 61.839C63.844 62.0818 64.138 62.2743 64.4622 62.4051C64.7863 62.536 65.134 62.6027 65.485 62.6013C65.836 62.5998 66.1831 62.5304 66.5061 62.3968C66.8291 62.2633 67.1215 62.0685 67.3662 61.8237L70.0056 59.2554C70.4149 58.8814 70.6909 58.3901 70.7935 57.8529C70.8962 57.3158 70.8201 56.7607 70.5763 56.2685C70.3326 55.7763 69.9339 55.3726 69.4382 55.116C68.9425 54.8593 68.3756 54.7632 67.8199 54.8416ZM81.0167 67.6821C80.4351 67.7639 79.8981 68.0322 79.4908 68.4445L76.8515 71.0128C76.5968 71.2481 76.393 71.5304 76.2519 71.8433C76.1109 72.1562 76.0354 72.4933 76.0299 72.8349C76.0244 73.1766 76.089 73.5158 76.2199 73.8329C76.3508 74.1499 76.5455 74.4383 76.7924 74.6813C77.0393 74.9242 77.3336 75.1167 77.658 75.2476C77.9823 75.3785 78.3303 75.4451 78.6814 75.4436C79.0326 75.442 79.3799 75.3722 79.703 75.2384C80.0261 75.1046 80.3185 74.9094 80.5631 74.6643L83.2025 72.0961C83.6118 71.722 83.8879 71.2307 83.9905 70.6936C84.0932 70.1564 84.0172 69.6013 83.7734 69.1091C83.5297 68.6169 83.1309 68.2131 82.6352 67.9565C82.1394 67.6998 81.5725 67.6038 81.0167 67.6821Z" fill="#C4C4C4"/>
<path d="M82.7076 0.950835C78.1494 0.7583 73.6383 2.27385 70.253 5.56544L49.6329 25.5889L32.3532 8.77564C32.2163 8.63925 32.0641 8.51813 31.8996 8.41451C28.3561 5.18035 23.863 3.52172 19.3213 3.51901C14.5935 3.51644 9.8472 5.27381 6.24815 8.77564C-0.949946 15.7793 -0.914027 27.1672 6.28939 34.176L23.5278 50.9893L9.46489 64.6727C5.13237 68.8923 3.83236 76.2157 2.99017 82.6496C2.14797 89.0836 2.16536 94.6876 2.16536 94.6876C2.16544 95.3687 2.44354 96.0219 2.9385 96.5035C3.43347 96.9851 4.10476 97.2558 4.80474 97.2559C4.80474 97.2559 10.5643 97.2326 17.1768 96.4131C23.7893 95.5936 31.2745 94.3287 35.6112 90.1132L49.7154 76.4299L55.7365 82.3285C56.2347 82.8101 56.9088 83.0798 57.6111 83.0787C58.3133 83.0775 58.9865 82.8056 59.4831 82.3224C59.9796 81.8392 60.2591 81.1842 60.2603 80.5009C60.2615 79.8175 59.9842 79.1617 59.4893 78.6769L10.001 30.5646C4.79839 25.5025 4.8088 17.439 10.001 12.3871C15.1932 7.33512 23.439 7.36513 28.6416 12.4271C28.7076 12.4839 28.7764 12.5375 28.8478 12.5877L91.9866 74.0623C97.1893 79.1246 97.1789 87.1476 91.9866 92.1997C86.7944 97.2515 78.5487 97.2216 73.3461 92.1599L66.1702 85.1776C65.9238 84.9378 65.6313 84.7476 65.3093 84.6178C64.9874 84.4881 64.6423 84.4213 64.2938 84.4213C63.59 84.4213 62.915 84.6934 62.4174 85.1776C61.9197 85.6618 61.6401 86.3186 61.6401 87.0034C61.6401 87.6882 61.9197 88.3449 62.4174 88.8292L69.6344 95.8112C76.8378 102.82 88.5414 102.815 95.7395 95.8112C102.938 88.8074 102.902 77.4198 95.6983 70.4109L75.8205 51.0295L96.3994 31.006C103.165 24.4182 102.535 13.4612 95.4096 6.52847C91.8471 3.06214 87.2658 1.14338 82.7076 0.950835ZM81.3879 6.08711C84.9489 5.92219 88.7195 7.24181 91.698 10.1399C96.9931 15.2921 97.2215 22.94 92.6465 27.3946L72.0676 47.418L64.6031 40.1149L83.2025 22.0175C83.6118 21.6435 83.8879 21.1522 83.9905 20.615C84.0932 20.0778 84.0171 19.5228 83.7734 19.0306C83.5297 18.5383 83.1309 18.1345 82.6352 17.8779C82.1394 17.6213 81.5725 17.5252 81.0167 17.6036C80.4351 17.6854 79.8981 17.9536 79.4908 18.366L60.8503 36.5034L53.3858 29.2003L73.9647 9.17688C75.9676 7.22937 78.6182 6.21538 81.3879 6.08711ZM28.2292 16.3195C27.6475 16.4013 27.1105 16.6696 26.7033 17.0819L24.0639 19.6902C23.7755 19.9164 23.5392 20.1991 23.3704 20.52C23.2017 20.8408 23.1042 21.1927 23.0844 21.5526C23.0645 21.9125 23.1228 22.2725 23.2553 22.6091C23.3879 22.9457 23.5918 23.2513 23.8537 23.5062C24.1156 23.761 24.4298 23.9594 24.7757 24.0884C25.1216 24.2174 25.4916 24.274 25.8615 24.2547C26.2314 24.2355 26.593 24.1407 26.9228 23.9764C27.2526 23.8122 27.5431 23.5823 27.7756 23.3017L30.4149 20.7335C30.8243 20.3594 31.1003 19.8681 31.203 19.331C31.3057 18.7938 31.2296 18.2387 30.9859 17.7465C30.7421 17.2543 30.3434 16.8505 29.8476 16.5939C29.3519 16.3372 28.7849 16.2412 28.2292 16.3195ZM41.4261 29.1602C40.8444 29.242 40.3074 29.5102 39.9002 29.9226L37.2608 32.4907C37.0065 32.7261 36.8029 33.0084 36.6621 33.3212C36.5212 33.634 36.4459 33.9711 36.4405 34.3125C36.4352 34.654 36.4998 34.9931 36.6308 35.31C36.7617 35.6268 36.9563 35.9152 37.2031 36.158C37.4499 36.4008 37.744 36.5933 38.0682 36.7242C38.3924 36.8551 38.7402 36.9217 39.0911 36.9203C39.4421 36.9188 39.7893 36.8493 40.1123 36.7157C40.4354 36.5821 40.7278 36.3872 40.9725 36.1423L43.6118 33.5741C44.0211 33.2001 44.2972 32.7088 44.3999 32.1716C44.5025 31.6344 44.4265 31.0794 44.1827 30.5872C43.939 30.0949 43.5403 29.6912 43.0445 29.4346C42.5488 29.178 41.9818 29.0818 41.4261 29.1602ZM54.623 42.0008C54.0413 42.0826 53.5043 42.3509 53.0971 42.7632L50.4577 45.3314C50.2034 45.5667 49.9998 45.8491 49.859 46.1619C49.7181 46.4748 49.6428 46.8117 49.6374 47.1532C49.632 47.4947 49.6967 47.8337 49.8277 48.1506C49.9586 48.4675 50.1531 48.7558 50.4 48.9986C50.6468 49.2415 50.9409 49.4339 51.2651 49.5648C51.5893 49.6957 51.937 49.7624 52.288 49.7609C52.639 49.7595 52.9862 49.6899 53.3092 49.5563C53.6323 49.4228 53.9247 49.2278 54.1693 48.983L56.8087 46.4149C57.218 46.0408 57.4941 45.5494 57.5968 45.0123C57.6994 44.4751 57.6234 43.92 57.3796 43.4278C57.1359 42.9356 56.7372 42.5319 56.2414 42.2752C55.7457 42.0186 55.1787 41.9225 54.623 42.0008ZM27.2807 54.6007L35.405 62.5459L21.4246 76.149C21.1703 76.3843 20.9668 76.6667 20.826 76.9795C20.6852 77.2923 20.61 77.6293 20.6046 77.9708C20.5993 78.3122 20.664 78.6512 20.7949 78.968C20.9258 79.2849 21.1204 79.5731 21.3672 79.8159C21.614 80.0587 21.908 80.2512 22.2322 80.3821C22.5563 80.513 22.904 80.5797 23.255 80.5783C23.6059 80.5768 23.9531 80.5073 24.2761 80.3738C24.5991 80.2402 24.8915 80.0454 25.1362 79.8006L39.1579 66.1573L45.9625 72.8185L31.8996 86.5018C29.6956 88.6441 22.7482 90.5449 16.517 91.317C15.3377 91.4632 14.2945 91.5971 13.3827 91.6781C13.3429 91.6365 13.3016 91.5963 13.259 91.5574L7.98024 86.4211C7.95335 86.3939 7.92585 86.3674 7.89776 86.3414C7.97718 85.4544 8.0775 84.4392 8.22768 83.2918C9.02133 77.2287 11.0159 70.4688 13.2178 68.3245L27.2807 54.6009L27.2807 54.6007ZM67.8199 54.8416C67.2382 54.9233 66.7012 55.1916 66.294 55.6039L63.6546 58.172C63.4003 58.4074 63.1968 58.6898 63.056 59.0026C62.9153 59.3154 62.84 59.6524 62.8346 59.9938C62.8293 60.3353 62.894 60.6743 63.0249 60.9911C63.1558 61.3079 63.3504 61.5962 63.5972 61.839C63.844 62.0818 64.138 62.2743 64.4622 62.4051C64.7863 62.536 65.134 62.6027 65.485 62.6013C65.836 62.5998 66.1831 62.5304 66.5061 62.3968C66.8291 62.2633 67.1215 62.0685 67.3662 61.8237L70.0056 59.2554C70.4149 58.8814 70.6909 58.3901 70.7935 57.8529C70.8962 57.3158 70.8201 56.7607 70.5763 56.2685C70.3326 55.7763 69.9339 55.3726 69.4382 55.116C68.9425 54.8593 68.3756 54.7632 67.8199 54.8416ZM81.0167 67.6821C80.4351 67.7639 79.8981 68.0322 79.4908 68.4445L76.8515 71.0128C76.5968 71.2481 76.393 71.5304 76.2519 71.8433C76.1109 72.1562 76.0354 72.4933 76.0299 72.8349C76.0244 73.1766 76.089 73.5158 76.2199 73.8329C76.3508 74.1499 76.5455 74.4383 76.7924 74.6813C77.0393 74.9242 77.3336 75.1167 77.658 75.2476C77.9823 75.3785 78.3303 75.4451 78.6814 75.4436C79.0326 75.442 79.3799 75.3722 79.703 75.2384C80.0261 75.1046 80.3185 74.9094 80.5631 74.6643L83.2025 72.0961C83.6118 71.722 83.8879 71.2307 83.9905 70.6936C84.0932 70.1564 84.0172 69.6013 83.7734 69.1091C83.5297 68.6169 83.1309 68.2131 82.6352 67.9565C82.1394 67.6998 81.5725 67.6038 81.0167 67.6821Z" fill="#3B31B3"/>
<path d="M82.7076 0.950835C78.1494 0.7583 73.6383 2.27385 70.253 5.56544L49.6329 25.5889L32.3532 8.77564C32.2163 8.63925 32.0641 8.51813 31.8996 8.41451C28.3561 5.18035 23.863 3.52172 19.3213 3.51901C14.5935 3.51644 9.8472 5.27381 6.24815 8.77564C-0.949946 15.7793 -0.914027 27.1672 6.28939 34.176L23.5278 50.9893L9.46489 64.6727C5.13237 68.8923 3.83236 76.2157 2.99017 82.6496C2.14797 89.0836 2.16536 94.6876 2.16536 94.6876C2.16544 95.3687 2.44354 96.0219 2.9385 96.5035C3.43347 96.9851 4.10476 97.2558 4.80474 97.2559C4.80474 97.2559 10.5643 97.2326 17.1768 96.4131C23.7893 95.5936 31.2745 94.3287 35.6112 90.1132L49.7154 76.4299L55.7365 82.3285C56.2347 82.8101 56.9088 83.0798 57.6111 83.0787C58.3133 83.0775 58.9865 82.8056 59.4831 82.3224C59.9796 81.8392 60.2591 81.1842 60.2603 80.5009C60.2615 79.8175 59.9842 79.1617 59.4893 78.6769L10.001 30.5646C4.79839 25.5025 4.8088 17.439 10.001 12.3871C15.1932 7.33512 23.439 7.36513 28.6416 12.4271C28.7076 12.4839 28.7764 12.5375 28.8478 12.5877L91.9866 74.0623C97.1893 79.1246 97.1789 87.1476 91.9866 92.1997C86.7944 97.2515 78.5487 97.2216 73.3461 92.1599L66.1702 85.1776C65.9238 84.9378 65.6313 84.7476 65.3093 84.6178C64.9874 84.4881 64.6423 84.4213 64.2938 84.4213C63.59 84.4213 62.915 84.6934 62.4174 85.1776C61.9197 85.6618 61.6401 86.3186 61.6401 87.0034C61.6401 87.6882 61.9197 88.3449 62.4174 88.8292L69.6344 95.8112C76.8378 102.82 88.5414 102.815 95.7395 95.8112C102.938 88.8074 102.902 77.4198 95.6983 70.4109L75.8205 51.0295L96.3994 31.006C103.165 24.4182 102.535 13.4612 95.4096 6.52847C91.8471 3.06214 87.2658 1.14338 82.7076 0.950835ZM81.3879 6.08711C84.9489 5.92219 88.7195 7.24181 91.698 10.1399C96.9931 15.2921 97.2215 22.94 92.6465 27.3946L72.0676 47.418L64.6031 40.1149L83.2025 22.0175C83.6118 21.6435 83.8879 21.1522 83.9905 20.615C84.0932 20.0778 84.0171 19.5228 83.7734 19.0306C83.5297 18.5383 83.1309 18.1345 82.6352 17.8779C82.1394 17.6213 81.5725 17.5252 81.0167 17.6036C80.4351 17.6854 79.8981 17.9536 79.4908 18.366L60.8503 36.5034L53.3858 29.2003L73.9647 9.17688C75.9676 7.22937 78.6182 6.21538 81.3879 6.08711ZM28.2292 16.3195C27.6475 16.4013 27.1105 16.6696 26.7033 17.0819L24.0639 19.6902C23.7755 19.9164 23.5392 20.1991 23.3704 20.52C23.2017 20.8408 23.1042 21.1927 23.0844 21.5526C23.0645 21.9125 23.1228 22.2725 23.2553 22.6091C23.3879 22.9457 23.5918 23.2513 23.8537 23.5062C24.1156 23.761 24.4298 23.9594 24.7757 24.0884C25.1216 24.2174 25.4916 24.274 25.8615 24.2547C26.2314 24.2355 26.593 24.1407 26.9228 23.9764C27.2526 23.8122 27.5431 23.5823 27.7756 23.3017L30.4149 20.7335C30.8243 20.3594 31.1003 19.8681 31.203 19.331C31.3057 18.7938 31.2296 18.2387 30.9859 17.7465C30.7421 17.2543 30.3434 16.8505 29.8476 16.5939C29.3519 16.3372 28.7849 16.2412 28.2292 16.3195ZM41.4261 29.1602C40.8444 29.242 40.3074 29.5102 39.9002 29.9226L37.2608 32.4907C37.0065 32.7261 36.8029 33.0084 36.6621 33.3212C36.5212 33.634 36.4459 33.9711 36.4405 34.3125C36.4352 34.654 36.4998 34.9931 36.6308 35.31C36.7617 35.6268 36.9563 35.9152 37.2031 36.158C37.4499 36.4008 37.744 36.5933 38.0682 36.7242C38.3924 36.8551 38.7402 36.9217 39.0911 36.9203C39.4421 36.9188 39.7893 36.8493 40.1123 36.7157C40.4354 36.5821 40.7278 36.3872 40.9725 36.1423L43.6118 33.5741C44.0211 33.2001 44.2972 32.7088 44.3999 32.1716C44.5025 31.6344 44.4265 31.0794 44.1827 30.5872C43.939 30.0949 43.5403 29.6912 43.0445 29.4346C42.5488 29.178 41.9818 29.0818 41.4261 29.1602ZM54.623 42.0008C54.0413 42.0826 53.5043 42.3509 53.0971 42.7632L50.4577 45.3314C50.2034 45.5667 49.9998 45.8491 49.859 46.1619C49.7181 46.4748 49.6428 46.8117 49.6374 47.1532C49.632 47.4947 49.6967 47.8337 49.8277 48.1506C49.9586 48.4675 50.1531 48.7558 50.4 48.9986C50.6468 49.2415 50.9409 49.4339 51.2651 49.5648C51.5893 49.6957 51.937 49.7624 52.288 49.7609C52.639 49.7595 52.9862 49.6899 53.3092 49.5563C53.6323 49.4228 53.9247 49.2278 54.1693 48.983L56.8087 46.4149C57.218 46.0408 57.4941 45.5494 57.5968 45.0123C57.6994 44.4751 57.6234 43.92 57.3796 43.4278C57.1359 42.9356 56.7372 42.5319 56.2414 42.2752C55.7457 42.0186 55.1787 41.9225 54.623 42.0008ZM27.2807 54.6007L35.405 62.5459L21.4246 76.149C21.1703 76.3843 20.9668 76.6667 20.826 76.9795C20.6852 77.2923 20.61 77.6293 20.6046 77.9708C20.5993 78.3122 20.664 78.6512 20.7949 78.968C20.9258 79.2849 21.1204 79.5731 21.3672 79.8159C21.614 80.0587 21.908 80.2512 22.2322 80.3821C22.5563 80.513 22.904 80.5797 23.255 80.5783C23.6059 80.5768 23.9531 80.5073 24.2761 80.3738C24.5991 80.2402 24.8915 80.0454 25.1362 79.8006L39.1579 66.1573L45.9625 72.8185L31.8996 86.5018C29.6956 88.6441 22.7482 90.5449 16.517 91.317C15.3377 91.4632 14.2945 91.5971 13.3827 91.6781C13.3429 91.6365 13.3016 91.5963 13.259 91.5574L7.98024 86.4211C7.95335 86.3939 7.92585 86.3674 7.89776 86.3414C7.97718 85.4544 8.0775 84.4392 8.22768 83.2918C9.02133 77.2287 11.0159 70.4688 13.2178 68.3245L27.2807 54.6009L27.2807 54.6007ZM67.8199 54.8416C67.2382 54.9233 66.7012 55.1916 66.294 55.6039L63.6546 58.172C63.4003 58.4074 63.1968 58.6898 63.056 59.0026C62.9153 59.3154 62.84 59.6524 62.8346 59.9938C62.8293 60.3353 62.894 60.6743 63.0249 60.9911C63.1558 61.3079 63.3504 61.5962 63.5972 61.839C63.844 62.0818 64.138 62.2743 64.4622 62.4051C64.7863 62.536 65.134 62.6027 65.485 62.6013C65.836 62.5998 66.1831 62.5304 66.5061 62.3968C66.8291 62.2633 67.1215 62.0685 67.3662 61.8237L70.0056 59.2554C70.4149 58.8814 70.6909 58.3901 70.7935 57.8529C70.8962 57.3158 70.8201 56.7607 70.5763 56.2685C70.3326 55.7763 69.9339 55.3726 69.4382 55.116C68.9425 54.8593 68.3756 54.7632 67.8199 54.8416ZM81.0167 67.6821C80.4351 67.7639 79.8981 68.0322 79.4908 68.4445L76.8515 71.0128C76.5968 71.2481 76.393 71.5304 76.2519 71.8433C76.1109 72.1562 76.0354 72.4933 76.0299 72.8349C76.0244 73.1766 76.089 73.5158 76.2199 73.8329C76.3508 74.1499 76.5455 74.4383 76.7924 74.6813C77.0393 74.9242 77.3336 75.1167 77.658 75.2476C77.9823 75.3785 78.3303 75.4451 78.6814 75.4436C79.0326 75.442 79.3799 75.3722 79.703 75.2384C80.0261 75.1046 80.3185 74.9094 80.5631 74.6643L83.2025 72.0961C83.6118 71.722 83.8879 71.2307 83.9905 70.6936C84.0932 70.1564 84.0172 69.6013 83.7734 69.1091C83.5297 68.6169 83.1309 68.2131 82.6352 67.9565C82.1394 67.6998 81.5725 67.6038 81.0167 67.6821Z" stroke="#C4C4C4" stroke-width="1.5" mask="url(#path-1-outside-1)"/>
<path d="M82.7076 0.950835C78.1494 0.7583 73.6383 2.27385 70.253 5.56544L49.6329 25.5889L32.3532 8.77564C32.2163 8.63925 32.0641 8.51813 31.8996 8.41451C28.3561 5.18035 23.863 3.52172 19.3213 3.51901C14.5935 3.51644 9.8472 5.27381 6.24815 8.77564C-0.949946 15.7793 -0.914027 27.1672 6.28939 34.176L23.5278 50.9893L9.46489 64.6727C5.13237 68.8923 3.83236 76.2157 2.99017 82.6496C2.14797 89.0836 2.16536 94.6876 2.16536 94.6876C2.16544 95.3687 2.44354 96.0219 2.9385 96.5035C3.43347 96.9851 4.10476 97.2558 4.80474 97.2559C4.80474 97.2559 10.5643 97.2326 17.1768 96.4131C23.7893 95.5936 31.2745 94.3287 35.6112 90.1132L49.7154 76.4299L55.7365 82.3285C56.2347 82.8101 56.9088 83.0798 57.6111 83.0787C58.3133 83.0775 58.9865 82.8056 59.4831 82.3224C59.9796 81.8392 60.2591 81.1842 60.2603 80.5009C60.2615 79.8175 59.9842 79.1617 59.4893 78.6769L10.001 30.5646C4.79839 25.5025 4.8088 17.439 10.001 12.3871C15.1932 7.33512 23.439 7.36513 28.6416 12.4271C28.7076 12.4839 28.7764 12.5375 28.8478 12.5877L91.9866 74.0623C97.1893 79.1246 97.1789 87.1476 91.9866 92.1997C86.7944 97.2515 78.5487 97.2216 73.3461 92.1599L66.1702 85.1776C65.9238 84.9378 65.6313 84.7476 65.3093 84.6178C64.9874 84.4881 64.6423 84.4213 64.2938 84.4213C63.59 84.4213 62.915 84.6934 62.4174 85.1776C61.9197 85.6618 61.6401 86.3186 61.6401 87.0034C61.6401 87.6882 61.9197 88.3449 62.4174 88.8292L69.6344 95.8112C76.8378 102.82 88.5414 102.815 95.7395 95.8112C102.938 88.8074 102.902 77.4198 95.6983 70.4109L75.8205 51.0295L96.3994 31.006C103.165 24.4182 102.535 13.4612 95.4096 6.52847C91.8471 3.06214 87.2658 1.14338 82.7076 0.950835ZM81.3879 6.08711C84.9489 5.92219 88.7195 7.24181 91.698 10.1399C96.9931 15.2921 97.2215 22.94 92.6465 27.3946L72.0676 47.418L64.6031 40.1149L83.2025 22.0175C83.6118 21.6435 83.8879 21.1522 83.9905 20.615C84.0932 20.0778 84.0171 19.5228 83.7734 19.0306C83.5297 18.5383 83.1309 18.1345 82.6352 17.8779C82.1394 17.6213 81.5725 17.5252 81.0167 17.6036C80.4351 17.6854 79.8981 17.9536 79.4908 18.366L60.8503 36.5034L53.3858 29.2003L73.9647 9.17688C75.9676 7.22937 78.6182 6.21538 81.3879 6.08711ZM28.2292 16.3195C27.6475 16.4013 27.1105 16.6696 26.7033 17.0819L24.0639 19.6902C23.7755 19.9164 23.5392 20.1991 23.3704 20.52C23.2017 20.8408 23.1042 21.1927 23.0844 21.5526C23.0645 21.9125 23.1228 22.2725 23.2553 22.6091C23.3879 22.9457 23.5918 23.2513 23.8537 23.5062C24.1156 23.761 24.4298 23.9594 24.7757 24.0884C25.1216 24.2174 25.4916 24.274 25.8615 24.2547C26.2314 24.2355 26.593 24.1407 26.9228 23.9764C27.2526 23.8122 27.5431 23.5823 27.7756 23.3017L30.4149 20.7335C30.8243 20.3594 31.1003 19.8681 31.203 19.331C31.3057 18.7938 31.2296 18.2387 30.9859 17.7465C30.7421 17.2543 30.3434 16.8505 29.8476 16.5939C29.3519 16.3372 28.7849 16.2412 28.2292 16.3195ZM41.4261 29.1602C40.8444 29.242 40.3074 29.5102 39.9002 29.9226L37.2608 32.4907C37.0065 32.7261 36.8029 33.0084 36.6621 33.3212C36.5212 33.634 36.4459 33.9711 36.4405 34.3125C36.4352 34.654 36.4998 34.9931 36.6308 35.31C36.7617 35.6268 36.9563 35.9152 37.2031 36.158C37.4499 36.4008 37.744 36.5933 38.0682 36.7242C38.3924 36.8551 38.7402 36.9217 39.0911 36.9203C39.4421 36.9188 39.7893 36.8493 40.1123 36.7157C40.4354 36.5821 40.7278 36.3872 40.9725 36.1423L43.6118 33.5741C44.0211 33.2001 44.2972 32.7088 44.3999 32.1716C44.5025 31.6344 44.4265 31.0794 44.1827 30.5872C43.939 30.0949 43.5403 29.6912 43.0445 29.4346C42.5488 29.178 41.9818 29.0818 41.4261 29.1602ZM54.623 42.0008C54.0413 42.0826 53.5043 42.3509 53.0971 42.7632L50.4577 45.3314C50.2034 45.5667 49.9998 45.8491 49.859 46.1619C49.7181 46.4748 49.6428 46.8117 49.6374 47.1532C49.632 47.4947 49.6967 47.8337 49.8277 48.1506C49.9586 48.4675 50.1531 48.7558 50.4 48.9986C50.6468 49.2415 50.9409 49.4339 51.2651 49.5648C51.5893 49.6957 51.937 49.7624 52.288 49.7609C52.639 49.7595 52.9862 49.6899 53.3092 49.5563C53.6323 49.4228 53.9247 49.2278 54.1693 48.983L56.8087 46.4149C57.218 46.0408 57.4941 45.5494 57.5968 45.0123C57.6994 44.4751 57.6234 43.92 57.3796 43.4278C57.1359 42.9356 56.7372 42.5319 56.2414 42.2752C55.7457 42.0186 55.1787 41.9225 54.623 42.0008ZM27.2807 54.6007L35.405 62.5459L21.4246 76.149C21.1703 76.3843 20.9668 76.6667 20.826 76.9795C20.6852 77.2923 20.61 77.6293 20.6046 77.9708C20.5993 78.3122 20.664 78.6512 20.7949 78.968C20.9258 79.2849 21.1204 79.5731 21.3672 79.8159C21.614 80.0587 21.908 80.2512 22.2322 80.3821C22.5563 80.513 22.904 80.5797 23.255 80.5783C23.6059 80.5768 23.9531 80.5073 24.2761 80.3738C24.5991 80.2402 24.8915 80.0454 25.1362 79.8006L39.1579 66.1573L45.9625 72.8185L31.8996 86.5018C29.6956 88.6441 22.7482 90.5449 16.517 91.317C15.3377 91.4632 14.2945 91.5971 13.3827 91.6781C13.3429 91.6365 13.3016 91.5963 13.259 91.5574L7.98024 86.4211C7.95335 86.3939 7.92585 86.3674 7.89776 86.3414C7.97718 85.4544 8.0775 84.4392 8.22768 83.2918C9.02133 77.2287 11.0159 70.4688 13.2178 68.3245L27.2807 54.6009L27.2807 54.6007ZM67.8199 54.8416C67.2382 54.9233 66.7012 55.1916 66.294 55.6039L63.6546 58.172C63.4003 58.4074 63.1968 58.6898 63.056 59.0026C62.9153 59.3154 62.84 59.6524 62.8346 59.9938C62.8293 60.3353 62.894 60.6743 63.0249 60.9911C63.1558 61.3079 63.3504 61.5962 63.5972 61.839C63.844 62.0818 64.138 62.2743 64.4622 62.4051C64.7863 62.536 65.134 62.6027 65.485 62.6013C65.836 62.5998 66.1831 62.5304 66.5061 62.3968C66.8291 62.2633 67.1215 62.0685 67.3662 61.8237L70.0056 59.2554C70.4149 58.8814 70.6909 58.3901 70.7935 57.8529C70.8962 57.3158 70.8201 56.7607 70.5763 56.2685C70.3326 55.7763 69.9339 55.3726 69.4382 55.116C68.9425 54.8593 68.3756 54.7632 67.8199 54.8416ZM81.0167 67.6821C80.4351 67.7639 79.8981 68.0322 79.4908 68.4445L76.8515 71.0128C76.5968 71.2481 76.393 71.5304 76.2519 71.8433C76.1109 72.1562 76.0354 72.4933 76.0299 72.8349C76.0244 73.1766 76.089 73.5158 76.2199 73.8329C76.3508 74.1499 76.5455 74.4383 76.7924 74.6813C77.0393 74.9242 77.3336 75.1167 77.658 75.2476C77.9823 75.3785 78.3303 75.4451 78.6814 75.4436C79.0326 75.442 79.3799 75.3722 79.703 75.2384C80.0261 75.1046 80.3185 74.9094 80.5631 74.6643L83.2025 72.0961C83.6118 71.722 83.8879 71.2307 83.9905 70.6936C84.0932 70.1564 84.0172 69.6013 83.7734 69.1091C83.5297 68.6169 83.1309 68.2131 82.6352 67.9565C82.1394 67.6998 81.5725 67.6038 81.0167 67.6821Z" stroke="#3B31B3" stroke-width="1.5" mask="url(#path-1-outside-1)"/>
</svg>
