<svg width="96" height="101" viewBox="0 0 96 101" fill="none" xmlns="http://www.w3.org/2000/svg">
<path d="M94.4354 94.2396L83.2771 84.9376C84.5334 82.7331 85.2556 80.2784 85.3886 77.7609C85.5216 75.2435 85.0619 72.7297 84.0446 70.4114C83.0273 68.0931 81.4793 66.0315 79.5186 64.384C77.558 62.7364 75.2365 61.5464 72.7313 60.9048C71.3247 60.5241 69.8708 60.3347 68.4109 60.342C63.8997 60.342 59.5732 62.0858 56.3834 65.1898C53.1935 68.2939 51.4014 72.5038 51.4014 76.8936C51.4014 81.2833 53.1935 85.4933 56.3834 88.5973C59.5732 91.7013 63.8997 93.4451 68.4109 93.4451C69.8466 93.4597 71.2775 93.2814 72.6632 92.9155C74.9048 92.346 77.0012 91.3317 78.8207 89.9362L90.0129 99.2713C90.3524 99.5538 90.7458 99.7686 91.1706 99.9032C91.5954 100.038 92.0433 100.09 92.4887 100.056C92.9341 100.022 93.3683 99.9032 93.7666 99.7061C94.1648 99.509 94.5192 99.2375 94.8096 98.9071C95.0999 98.5768 95.3206 98.194 95.459 97.7806C95.5973 97.3672 95.6506 96.9314 95.6159 96.498C95.5811 96.0645 95.459 95.642 95.2564 95.2545C95.0539 94.867 94.7749 94.5222 94.4354 94.2396ZM70.8942 86.5266C70.0846 86.7373 69.2488 86.8376 68.4109 86.8245C65.7042 86.8245 63.1083 85.7782 61.1944 83.9158C59.2804 82.0534 58.2052 79.5274 58.2052 76.8936C58.2052 74.2597 59.2804 71.7337 61.1944 69.8713C63.1083 68.0089 65.7042 66.9626 68.4109 66.9626C69.273 66.9568 70.1318 67.0682 70.9623 67.2937C73.1538 67.8435 75.0953 69.0865 76.4815 70.8273C77.8678 72.5681 78.62 74.7079 78.62 76.9101C78.62 79.1124 77.8678 81.2521 76.4815 82.9929C75.0953 84.7337 73.1538 85.9768 70.9623 86.5266H70.8942Z" fill="#C4C4C4"/>
<path d="M94.4354 94.2396L83.2771 84.9376C84.5334 82.7331 85.2556 80.2784 85.3886 77.7609C85.5216 75.2435 85.0619 72.7297 84.0446 70.4114C83.0273 68.0931 81.4793 66.0315 79.5186 64.384C77.558 62.7364 75.2365 61.5464 72.7313 60.9048C71.3247 60.5241 69.8708 60.3347 68.4109 60.342C63.8997 60.342 59.5732 62.0858 56.3834 65.1898C53.1935 68.2939 51.4014 72.5038 51.4014 76.8936C51.4014 81.2833 53.1935 85.4933 56.3834 88.5973C59.5732 91.7013 63.8997 93.4451 68.4109 93.4451C69.8466 93.4597 71.2775 93.2814 72.6632 92.9155C74.9048 92.346 77.0012 91.3317 78.8207 89.9362L90.0129 99.2713C90.3524 99.5538 90.7458 99.7686 91.1706 99.9032C91.5954 100.038 92.0433 100.09 92.4887 100.056C92.9341 100.022 93.3683 99.9032 93.7666 99.7061C94.1648 99.509 94.5192 99.2375 94.8096 98.9071C95.0999 98.5768 95.3206 98.194 95.459 97.7806C95.5973 97.3672 95.6506 96.9314 95.6159 96.498C95.5811 96.0645 95.459 95.642 95.2564 95.2545C95.0539 94.867 94.7749 94.5222 94.4354 94.2396ZM70.8942 86.5266C70.0846 86.7373 69.2488 86.8376 68.4109 86.8245C65.7042 86.8245 63.1083 85.7782 61.1944 83.9158C59.2804 82.0534 58.2052 79.5274 58.2052 76.8936C58.2052 74.2597 59.2804 71.7337 61.1944 69.8713C63.1083 68.0089 65.7042 66.9626 68.4109 66.9626C69.273 66.9568 70.1318 67.0682 70.9623 67.2937C73.1538 67.8435 75.0953 69.0865 76.4815 70.8273C77.8678 72.5681 78.62 74.7079 78.62 76.9101C78.62 79.1124 77.8678 81.2521 76.4815 82.9929C75.0953 84.7337 73.1538 85.9768 70.9623 86.5266H70.8942Z" fill="#3B31B3"/>
<path d="M54.8033 100.066H3.77494C2.8727 100.066 2.00742 99.717 1.36944 99.0962C0.731459 98.4754 0.373047 97.6334 0.373047 96.7555V4.06666C0.373047 3.18871 0.731459 2.34672 1.36944 1.72592C2.00742 1.10511 2.8727 0.756348 3.77494 0.756348H71.8128C72.715 0.756348 73.5803 1.10511 74.2183 1.72592C74.8563 2.34672 75.2147 3.18871 75.2147 4.06666V54.1517C75.2147 55.0297 74.8563 55.8717 74.2183 56.4925C73.5803 57.1133 72.715 57.462 71.8128 57.462C70.9106 57.462 70.0453 57.1133 69.4073 56.4925C68.7693 55.8717 68.4109 55.0297 68.4109 54.1517V7.37698H7.17683V93.4452H54.8033C55.7056 93.4452 56.5709 93.7939 57.2088 94.4147C57.8468 95.0355 58.2052 95.8775 58.2052 96.7555C58.2052 97.6334 57.8468 98.4754 57.2088 99.0962C56.5709 99.717 55.7056 100.066 54.8033 100.066Z" fill="#C4C4C4"/>
<path d="M54.8033 100.066H3.77494C2.8727 100.066 2.00742 99.717 1.36944 99.0962C0.731459 98.4754 0.373047 97.6334 0.373047 96.7555V4.06666C0.373047 3.18871 0.731459 2.34672 1.36944 1.72592C2.00742 1.10511 2.8727 0.756348 3.77494 0.756348H71.8128C72.715 0.756348 73.5803 1.10511 74.2183 1.72592C74.8563 2.34672 75.2147 3.18871 75.2147 4.06666V54.1517C75.2147 55.0297 74.8563 55.8717 74.2183 56.4925C73.5803 57.1133 72.715 57.462 71.8128 57.462C70.9106 57.462 70.0453 57.1133 69.4073 56.4925C68.7693 55.8717 68.4109 55.0297 68.4109 54.1517V7.37698H7.17683V93.4452H54.8033C55.7056 93.4452 56.5709 93.7939 57.2088 94.4147C57.8468 95.0355 58.2052 95.8775 58.2052 96.7555C58.2052 97.6334 57.8468 98.4754 57.2088 99.0962C56.5709 99.717 55.7056 100.066 54.8033 100.066Z" fill="#3B31B3"/>
<path d="M20.7838 40.4799C20.1081 40.4837 19.4465 40.2917 18.8835 39.9282C18.3204 39.5647 17.8813 39.0463 17.6222 38.439C17.3631 37.8318 17.2957 37.1632 17.4286 36.5185C17.5615 35.8738 17.8887 35.2823 18.3685 34.8193L28.5741 24.8883C29.0141 24.4685 29.5629 24.1728 30.1621 24.0329C30.7613 23.893 31.3882 23.914 31.976 24.0938L40.4808 26.8414L52.7616 17.9697C53.119 17.7089 53.5257 17.5191 53.9585 17.4112C54.3912 17.3033 54.8416 17.2794 55.2839 17.3409C55.7261 17.4024 56.1516 17.548 56.536 17.7695C56.9204 17.991 57.2562 18.284 57.5243 18.6317C57.7923 18.9795 57.9873 19.3753 58.0982 19.7964C58.2091 20.2175 58.2336 20.6557 58.1705 21.0861C58.1073 21.5164 57.9576 21.9305 57.73 22.3045C57.5024 22.6786 57.2013 23.0054 56.8439 23.2662L43.2363 33.1972C42.7953 33.5211 42.2798 33.7355 41.7345 33.822C41.1892 33.9085 40.6305 33.8645 40.1066 33.6937L31.908 31.0455L23.1991 39.5199C22.8813 39.8267 22.5043 40.0695 22.0898 40.2342C21.6753 40.3989 21.2315 40.4824 20.7838 40.4799Z" fill="#C4C4C4"/>
<path d="M20.7838 40.4799C20.1081 40.4837 19.4465 40.2917 18.8835 39.9282C18.3204 39.5647 17.8813 39.0463 17.6222 38.439C17.3631 37.8318 17.2957 37.1632 17.4286 36.5185C17.5615 35.8738 17.8887 35.2823 18.3685 34.8193L28.5741 24.8883C29.0141 24.4685 29.5629 24.1728 30.1621 24.0329C30.7613 23.893 31.3882 23.914 31.976 24.0938L40.4808 26.8414L52.7616 17.9697C53.119 17.7089 53.5257 17.5191 53.9585 17.4112C54.3912 17.3033 54.8416 17.2794 55.2839 17.3409C55.7261 17.4024 56.1516 17.548 56.536 17.7695C56.9204 17.991 57.2562 18.284 57.5243 18.6317C57.7923 18.9795 57.9873 19.3753 58.0982 19.7964C58.2091 20.2175 58.2336 20.6557 58.1705 21.0861C58.1073 21.5164 57.9576 21.9305 57.73 22.3045C57.5024 22.6786 57.2013 23.0054 56.8439 23.2662L43.2363 33.1972C42.7953 33.5211 42.2798 33.7355 41.7345 33.822C41.1892 33.9085 40.6305 33.8645 40.1066 33.6937L31.908 31.0455L23.1991 39.5199C22.8813 39.8267 22.5043 40.0695 22.0898 40.2342C21.6753 40.3989 21.2315 40.4824 20.7838 40.4799Z" fill="#3B31B3"/>
<path d="M54.8036 57.0319H20.7846C19.8824 57.0319 19.0171 56.6831 18.3791 56.0623C17.7411 55.4415 17.3827 54.5995 17.3827 53.7215C17.3827 52.8435 17.7411 52.0015 18.3791 51.3807C19.0171 50.7599 19.8824 50.4111 20.7846 50.4111H54.8036C55.7058 50.4111 56.5711 50.7599 57.2091 51.3807C57.847 52.0015 58.2054 52.8435 58.2054 53.7215C58.2054 54.5995 57.847 55.4415 57.2091 56.0623C56.5711 56.6831 55.7058 57.0319 54.8036 57.0319Z" fill="#C4C4C4"/>
<path d="M54.8036 57.0319H20.7846C19.8824 57.0319 19.0171 56.6831 18.3791 56.0623C17.7411 55.4415 17.3827 54.5995 17.3827 53.7215C17.3827 52.8435 17.7411 52.0015 18.3791 51.3807C19.0171 50.7599 19.8824 50.4111 20.7846 50.4111H54.8036C55.7058 50.4111 56.5711 50.7599 57.2091 51.3807C57.847 52.0015 58.2054 52.8435 58.2054 53.7215C58.2054 54.5995 57.847 55.4415 57.2091 56.0623C56.5711 56.6831 55.7058 57.0319 54.8036 57.0319Z" fill="#3B31B3"/>
<path d="M44.5979 70.2729H20.7846C19.8824 70.2729 19.0171 69.9242 18.3791 69.3034C17.7411 68.6826 17.3827 67.8406 17.3827 66.9626C17.3827 66.0847 17.7411 65.2427 18.3791 64.6219C19.0171 64.0011 19.8824 63.6523 20.7846 63.6523H44.5979C45.5001 63.6523 46.3654 64.0011 47.0034 64.6219C47.6413 65.2427 47.9998 66.0847 47.9998 66.9626C47.9998 67.8406 47.6413 68.6826 47.0034 69.3034C46.3654 69.9242 45.5001 70.2729 44.5979 70.2729Z" fill="#C4C4C4"/>
<path d="M44.5979 70.2729H20.7846C19.8824 70.2729 19.0171 69.9242 18.3791 69.3034C17.7411 68.6826 17.3827 67.8406 17.3827 66.9626C17.3827 66.0847 17.7411 65.2427 18.3791 64.6219C19.0171 64.0011 19.8824 63.6523 20.7846 63.6523H44.5979C45.5001 63.6523 46.3654 64.0011 47.0034 64.6219C47.6413 65.2427 47.9998 66.0847 47.9998 66.9626C47.9998 67.8406 47.6413 68.6826 47.0034 69.3034C46.3654 69.9242 45.5001 70.2729 44.5979 70.2729Z" fill="#3B31B3"/>
<path d="M44.5979 83.514H20.7846C19.8824 83.514 19.0171 83.1653 18.3791 82.5445C17.7411 81.9237 17.3827 81.0817 17.3827 80.2038C17.3827 79.3259 17.7411 78.4839 18.3791 77.8631C19.0171 77.2423 19.8824 76.8936 20.7846 76.8936H44.5979C45.5001 76.8936 46.3654 77.2423 47.0034 77.8631C47.6413 78.4839 47.9998 79.3259 47.9998 80.2038C47.9998 81.0817 47.6413 81.9237 47.0034 82.5445C46.3654 83.1653 45.5001 83.514 44.5979 83.514Z" fill="#C4C4C4"/>
<path d="M44.5979 83.514H20.7846C19.8824 83.514 19.0171 83.1653 18.3791 82.5445C17.7411 81.9237 17.3827 81.0817 17.3827 80.2038C17.3827 79.3259 17.7411 78.4839 18.3791 77.8631C19.0171 77.2423 19.8824 76.8936 20.7846 76.8936H44.5979C45.5001 76.8936 46.3654 77.2423 47.0034 77.8631C47.6413 78.4839 47.9998 79.3259 47.9998 80.2038C47.9998 81.0817 47.6413 81.9237 47.0034 82.5445C46.3654 83.1653 45.5001 83.514 44.5979 83.514Z" fill="#3B31B3"/>
</svg>
