<svg width="115" height="118" viewBox="0 0 115 118" fill="none" xmlns="http://www.w3.org/2000/svg">
<path d="M57.0333 13.7667H45.2333V1.96667C45.2333 1.44507 45.0261 0.944845 44.6573 0.576023C44.2885 0.207202 43.7883 0 43.2667 0H23.6C23.0784 0 22.5782 0.207202 22.2094 0.576023C21.8405 0.944845 21.6333 1.44507 21.6333 1.96667V13.7667H9.83333C7.22633 13.7698 4.727 14.8068 2.88357 16.6502C1.04013 18.4937 0.00312279 20.993 0 23.6V100.3C0.00312279 102.907 1.04013 105.406 2.88357 107.25C4.727 109.093 7.22633 110.13 9.83333 110.133V116.033C9.83333 116.555 10.0405 117.055 10.4094 117.424C10.7782 117.793 11.2784 118 11.8 118H19.6667C20.1883 118 20.6885 117.793 21.0573 117.424C21.4261 117.055 21.6333 116.555 21.6333 116.033V110.133H45.2333V116.033C45.2333 116.555 45.4405 117.055 45.8094 117.424C46.1782 117.793 46.6784 118 47.2 118H55.0667C55.5883 118 56.0885 117.793 56.4573 117.424C56.8261 117.055 57.0333 116.555 57.0333 116.033V110.133C59.6403 110.13 62.1397 109.093 63.9831 107.25C65.8265 105.406 66.8635 102.907 66.8667 100.3V23.6C66.8635 20.993 65.8265 18.4937 63.9831 16.6502C62.1397 14.8068 59.6403 13.7698 57.0333 13.7667ZM47.2 98.3333C46.6784 98.3333 46.1782 98.5405 45.8094 98.9094C45.4405 99.2782 45.2333 99.7784 45.2333 100.3V106.2H21.6333V100.3C21.6333 99.7784 21.4261 99.2782 21.0573 98.9094C20.6885 98.5405 20.1883 98.3333 19.6667 98.3333H3.93333V25.5667H19.6667C20.1883 25.5667 20.6885 25.3595 21.0573 24.9906C21.4261 24.6218 21.6333 24.1216 21.6333 23.6V17.7H45.2333V23.6C45.2333 24.1216 45.4405 24.6218 45.8094 24.9906C46.1782 25.3595 46.6784 25.5667 47.2 25.5667H62.9333V98.3333H47.2ZM62.5715 21.6333H49.1667V17.7H57.0333C58.2492 17.705 59.4339 18.0856 60.4252 18.7897C61.4166 19.4938 62.1662 20.4869 62.5715 21.6333ZM41.3 3.93333V5.9H25.5667V3.93333H41.3ZM25.5667 9.83333H41.3V13.7667H25.5667V9.83333ZM9.83333 17.7H17.7V21.6333H4.2952C4.7005 20.4869 5.45009 19.4938 6.44143 18.7897C7.43276 18.0856 8.61742 17.705 9.83333 17.7ZM4.2952 102.267H17.7V106.2H9.83333C8.61742 106.195 7.43276 105.814 6.44143 105.11C5.45009 104.406 4.7005 103.413 4.2952 102.267ZM17.7 114.067H13.7667V110.133H17.7V114.067ZM53.1 114.067H49.1667V110.133H53.1V114.067ZM57.0333 106.2H49.1667V102.267H62.5715C62.1662 103.413 61.4166 104.406 60.4252 105.11C59.4339 105.814 58.2492 106.195 57.0333 106.2Z" fill="#C4C4C4"/>
<path d="M57.0333 13.7667H45.2333V1.96667C45.2333 1.44507 45.0261 0.944845 44.6573 0.576023C44.2885 0.207202 43.7883 0 43.2667 0H23.6C23.0784 0 22.5782 0.207202 22.2094 0.576023C21.8405 0.944845 21.6333 1.44507 21.6333 1.96667V13.7667H9.83333C7.22633 13.7698 4.727 14.8068 2.88357 16.6502C1.04013 18.4937 0.00312279 20.993 0 23.6V100.3C0.00312279 102.907 1.04013 105.406 2.88357 107.25C4.727 109.093 7.22633 110.13 9.83333 110.133V116.033C9.83333 116.555 10.0405 117.055 10.4094 117.424C10.7782 117.793 11.2784 118 11.8 118H19.6667C20.1883 118 20.6885 117.793 21.0573 117.424C21.4261 117.055 21.6333 116.555 21.6333 116.033V110.133H45.2333V116.033C45.2333 116.555 45.4405 117.055 45.8094 117.424C46.1782 117.793 46.6784 118 47.2 118H55.0667C55.5883 118 56.0885 117.793 56.4573 117.424C56.8261 117.055 57.0333 116.555 57.0333 116.033V110.133C59.6403 110.13 62.1397 109.093 63.9831 107.25C65.8265 105.406 66.8635 102.907 66.8667 100.3V23.6C66.8635 20.993 65.8265 18.4937 63.9831 16.6502C62.1397 14.8068 59.6403 13.7698 57.0333 13.7667ZM47.2 98.3333C46.6784 98.3333 46.1782 98.5405 45.8094 98.9094C45.4405 99.2782 45.2333 99.7784 45.2333 100.3V106.2H21.6333V100.3C21.6333 99.7784 21.4261 99.2782 21.0573 98.9094C20.6885 98.5405 20.1883 98.3333 19.6667 98.3333H3.93333V25.5667H19.6667C20.1883 25.5667 20.6885 25.3595 21.0573 24.9906C21.4261 24.6218 21.6333 24.1216 21.6333 23.6V17.7H45.2333V23.6C45.2333 24.1216 45.4405 24.6218 45.8094 24.9906C46.1782 25.3595 46.6784 25.5667 47.2 25.5667H62.9333V98.3333H47.2ZM62.5715 21.6333H49.1667V17.7H57.0333C58.2492 17.705 59.4339 18.0856 60.4252 18.7897C61.4166 19.4938 62.1662 20.4869 62.5715 21.6333ZM41.3 3.93333V5.9H25.5667V3.93333H41.3ZM25.5667 9.83333H41.3V13.7667H25.5667V9.83333ZM9.83333 17.7H17.7V21.6333H4.2952C4.7005 20.4869 5.45009 19.4938 6.44143 18.7897C7.43276 18.0856 8.61742 17.705 9.83333 17.7ZM4.2952 102.267H17.7V106.2H9.83333C8.61742 106.195 7.43276 105.814 6.44143 105.11C5.45009 104.406 4.7005 103.413 4.2952 102.267ZM17.7 114.067H13.7667V110.133H17.7V114.067ZM53.1 114.067H49.1667V110.133H53.1V114.067ZM57.0333 106.2H49.1667V102.267H62.5715C62.1662 103.413 61.4166 104.406 60.4252 105.11C59.4339 105.814 58.2492 106.195 57.0333 106.2Z" fill="#3B31B3"/>
<path d="M37.3667 31.4668H29.5C28.9784 31.4668 28.4782 31.674 28.1093 32.0428C27.7405 32.4116 27.5333 32.9119 27.5333 33.4335V92.4335C27.5333 92.9551 27.7405 93.4553 28.1093 93.8241C28.4782 94.1929 28.9784 94.4001 29.5 94.4001H37.3667C37.8883 94.4001 38.3885 94.1929 38.7573 93.8241C39.1261 93.4553 39.3333 92.9551 39.3333 92.4335V33.4335C39.3333 32.9119 39.1261 32.4116 38.7573 32.0428C38.3885 31.674 37.8883 31.4668 37.3667 31.4668ZM35.4 90.4668H31.4667V35.4001H35.4V90.4668Z" fill="#C4C4C4"/>
<path d="M37.3667 31.4668H29.5C28.9784 31.4668 28.4782 31.674 28.1093 32.0428C27.7405 32.4116 27.5333 32.9119 27.5333 33.4335V92.4335C27.5333 92.9551 27.7405 93.4553 28.1093 93.8241C28.4782 94.1929 28.9784 94.4001 29.5 94.4001H37.3667C37.8883 94.4001 38.3885 94.1929 38.7573 93.8241C39.1261 93.4553 39.3333 92.9551 39.3333 92.4335V33.4335C39.3333 32.9119 39.1261 32.4116 38.7573 32.0428C38.3885 31.674 37.8883 31.4668 37.3667 31.4668ZM35.4 90.4668H31.4667V35.4001H35.4V90.4668Z" fill="#3B31B3"/>
<path d="M53.1002 31.4668H45.2335C44.7119 31.4668 44.2117 31.674 43.8429 32.0428C43.474 32.4116 43.2668 32.9119 43.2668 33.4335V92.4335C43.2668 92.9551 43.474 93.4553 43.8429 93.8241C44.2117 94.1929 44.7119 94.4001 45.2335 94.4001H53.1002C53.6218 94.4001 54.122 94.1929 54.4908 93.8241C54.8596 93.4553 55.0668 92.9551 55.0668 92.4335V33.4335C55.0668 32.9119 54.8596 32.4116 54.4908 32.0428C54.122 31.674 53.6218 31.4668 53.1002 31.4668ZM51.1335 90.4668H47.2002V35.4001H51.1335V90.4668Z" fill="#C4C4C4"/>
<path d="M53.1002 31.4668H45.2335C44.7119 31.4668 44.2117 31.674 43.8429 32.0428C43.474 32.4116 43.2668 32.9119 43.2668 33.4335V92.4335C43.2668 92.9551 43.474 93.4553 43.8429 93.8241C44.2117 94.1929 44.7119 94.4001 45.2335 94.4001H53.1002C53.6218 94.4001 54.122 94.1929 54.4908 93.8241C54.8596 93.4553 55.0668 92.9551 55.0668 92.4335V33.4335C55.0668 32.9119 54.8596 32.4116 54.4908 32.0428C54.122 31.674 53.6218 31.4668 53.1002 31.4668ZM51.1335 90.4668H47.2002V35.4001H51.1335V90.4668Z" fill="#3B31B3"/>
<path d="M21.6331 31.4668H13.7665C13.2449 31.4668 12.7446 31.674 12.3758 32.0428C12.007 32.4116 11.7998 32.9119 11.7998 33.4335V92.4335C11.7998 92.9551 12.007 93.4553 12.3758 93.8241C12.7446 94.1929 13.2449 94.4001 13.7665 94.4001H21.6331C22.1547 94.4001 22.655 94.1929 23.0238 93.8241C23.3926 93.4553 23.5998 92.9551 23.5998 92.4335V33.4335C23.5998 32.9119 23.3926 32.4116 23.0238 32.0428C22.655 31.674 22.1547 31.4668 21.6331 31.4668ZM19.6665 90.4668H15.7331V35.4001H19.6665V90.4668Z" fill="#C4C4C4"/>
<path d="M21.6331 31.4668H13.7665C13.2449 31.4668 12.7446 31.674 12.3758 32.0428C12.007 32.4116 11.7998 32.9119 11.7998 33.4335V92.4335C11.7998 92.9551 12.007 93.4553 12.3758 93.8241C12.7446 94.1929 13.2449 94.4001 13.7665 94.4001H21.6331C22.1547 94.4001 22.655 94.1929 23.0238 93.8241C23.3926 93.4553 23.5998 92.9551 23.5998 92.4335V33.4335C23.5998 32.9119 23.3926 32.4116 23.0238 32.0428C22.655 31.674 22.1547 31.4668 21.6331 31.4668ZM19.6665 90.4668H15.7331V35.4001H19.6665V90.4668Z" fill="#3B31B3"/>
<path d="M106.2 51.33V23.6C106.2 23.0784 105.993 22.5781 105.624 22.2093C105.255 21.8405 104.755 21.6333 104.233 21.6333H80.6332C80.1116 21.6333 79.6114 21.8405 79.2426 22.2093C78.8737 22.5781 78.6665 23.0784 78.6665 23.6V51.33C76.447 51.7864 74.4526 52.9941 73.0197 54.7495C71.5867 56.5049 70.8027 58.7006 70.7999 60.9666V100.3C70.803 102.907 71.84 105.406 73.6834 107.25C75.5269 109.093 78.0262 110.13 80.6332 110.133V114.067C80.6332 114.588 80.8404 115.088 81.2092 115.457C81.578 115.826 82.0783 116.033 82.5999 116.033H86.5332C87.0548 116.033 87.555 115.826 87.9238 115.457C88.2927 115.088 88.4999 114.588 88.4999 114.067V110.133H96.3665V114.067C96.3665 114.588 96.5737 115.088 96.9426 115.457C97.3114 115.826 97.8116 116.033 98.3332 116.033H102.267C102.788 116.033 103.288 115.826 103.657 115.457C104.026 115.088 104.233 114.588 104.233 114.067V110.133C106.84 110.13 109.34 109.093 111.183 107.25C113.026 105.406 114.063 102.907 114.067 100.3V60.9666C114.064 58.7006 113.28 56.5049 111.847 54.7495C110.414 52.9941 108.419 51.7864 106.2 51.33ZM96.3665 45.2333H88.4999V43.2666H96.3665V45.2333ZM88.4999 49.1666H96.3665V51.1333H88.4999V49.1666ZM98.3332 39.3333H86.5332C86.0116 39.3333 85.5114 39.5405 85.1426 39.9093C84.7737 40.2781 84.5665 40.7784 84.5665 41.3V51.1333H82.5999V31.4666H102.267V51.1333H100.3V41.3C100.3 40.7784 100.093 40.2781 99.7238 39.9093C99.355 39.5405 98.8548 39.3333 98.3332 39.3333ZM102.267 25.5666V27.5333H82.5999V25.5666H102.267ZM80.6332 55.0666H104.233C105.798 55.0666 107.299 55.6882 108.405 56.7947C109.512 57.9012 110.133 59.4019 110.133 60.9666V68.8333H100.3V66.8666C100.3 66.345 100.093 65.8448 99.7238 65.476C99.355 65.1072 98.8548 64.9 98.3332 64.9H86.5332C86.0116 64.9 85.5114 65.1072 85.1426 65.476C84.7737 65.8448 84.5665 66.345 84.5665 66.8666V68.8333H74.7332V60.9666C74.7332 59.4019 75.3548 57.9012 76.4613 56.7947C77.5677 55.6882 79.0684 55.0666 80.6332 55.0666ZM98.3332 84.5666H86.5332C86.0116 84.5666 85.5114 84.7738 85.1426 85.1427C84.7737 85.5115 84.5665 86.0117 84.5665 86.5333V88.5H74.7332V72.7666H84.5665V74.7333C84.5665 75.2549 84.7737 75.7551 85.1426 76.1239C85.5114 76.4928 86.0116 76.7 86.5332 76.7H98.3332C98.8548 76.7 99.355 76.4928 99.7238 76.1239C100.093 75.7551 100.3 75.2549 100.3 74.7333V72.7666H110.133V88.5H100.3V86.5333C100.3 86.0117 100.093 85.5115 99.7238 85.1427C99.355 84.7738 98.8548 84.5666 98.3332 84.5666ZM96.3665 88.5V92.4333H88.4999V88.5H96.3665ZM88.4999 72.7666V68.8333H96.3665V72.7666H88.4999ZM104.233 106.2H80.6332C79.0684 106.2 77.5677 105.578 76.4613 104.472C75.3548 103.365 74.7332 101.865 74.7332 100.3V92.4333H84.5665V94.4C84.5665 94.9216 84.7737 95.4218 85.1426 95.7906C85.5114 96.1594 86.0116 96.3666 86.5332 96.3666H98.3332C98.8548 96.3666 99.355 96.1594 99.7238 95.7906C100.093 95.4218 100.3 94.9216 100.3 94.4V92.4333H110.133V100.3C110.133 101.865 109.512 103.365 108.405 104.472C107.299 105.578 105.798 106.2 104.233 106.2Z" fill="#C4C4C4"/>
<path d="M106.2 51.33V23.6C106.2 23.0784 105.993 22.5781 105.624 22.2093C105.255 21.8405 104.755 21.6333 104.233 21.6333H80.6332C80.1116 21.6333 79.6114 21.8405 79.2426 22.2093C78.8737 22.5781 78.6665 23.0784 78.6665 23.6V51.33C76.447 51.7864 74.4526 52.9941 73.0197 54.7495C71.5867 56.5049 70.8027 58.7006 70.7999 60.9666V100.3C70.803 102.907 71.84 105.406 73.6834 107.25C75.5269 109.093 78.0262 110.13 80.6332 110.133V114.067C80.6332 114.588 80.8404 115.088 81.2092 115.457C81.578 115.826 82.0783 116.033 82.5999 116.033H86.5332C87.0548 116.033 87.555 115.826 87.9238 115.457C88.2927 115.088 88.4999 114.588 88.4999 114.067V110.133H96.3665V114.067C96.3665 114.588 96.5737 115.088 96.9426 115.457C97.3114 115.826 97.8116 116.033 98.3332 116.033H102.267C102.788 116.033 103.288 115.826 103.657 115.457C104.026 115.088 104.233 114.588 104.233 114.067V110.133C106.84 110.13 109.34 109.093 111.183 107.25C113.026 105.406 114.063 102.907 114.067 100.3V60.9666C114.064 58.7006 113.28 56.5049 111.847 54.7495C110.414 52.9941 108.419 51.7864 106.2 51.33ZM96.3665 45.2333H88.4999V43.2666H96.3665V45.2333ZM88.4999 49.1666H96.3665V51.1333H88.4999V49.1666ZM98.3332 39.3333H86.5332C86.0116 39.3333 85.5114 39.5405 85.1426 39.9093C84.7737 40.2781 84.5665 40.7784 84.5665 41.3V51.1333H82.5999V31.4666H102.267V51.1333H100.3V41.3C100.3 40.7784 100.093 40.2781 99.7238 39.9093C99.355 39.5405 98.8548 39.3333 98.3332 39.3333ZM102.267 25.5666V27.5333H82.5999V25.5666H102.267ZM80.6332 55.0666H104.233C105.798 55.0666 107.299 55.6882 108.405 56.7947C109.512 57.9012 110.133 59.4019 110.133 60.9666V68.8333H100.3V66.8666C100.3 66.345 100.093 65.8448 99.7238 65.476C99.355 65.1072 98.8548 64.9 98.3332 64.9H86.5332C86.0116 64.9 85.5114 65.1072 85.1426 65.476C84.7737 65.8448 84.5665 66.345 84.5665 66.8666V68.8333H74.7332V60.9666C74.7332 59.4019 75.3548 57.9012 76.4613 56.7947C77.5677 55.6882 79.0684 55.0666 80.6332 55.0666ZM98.3332 84.5666H86.5332C86.0116 84.5666 85.5114 84.7738 85.1426 85.1427C84.7737 85.5115 84.5665 86.0117 84.5665 86.5333V88.5H74.7332V72.7666H84.5665V74.7333C84.5665 75.2549 84.7737 75.7551 85.1426 76.1239C85.5114 76.4928 86.0116 76.7 86.5332 76.7H98.3332C98.8548 76.7 99.355 76.4928 99.7238 76.1239C100.093 75.7551 100.3 75.2549 100.3 74.7333V72.7666H110.133V88.5H100.3V86.5333C100.3 86.0117 100.093 85.5115 99.7238 85.1427C99.355 84.7738 98.8548 84.5666 98.3332 84.5666ZM96.3665 88.5V92.4333H88.4999V88.5H96.3665ZM88.4999 72.7666V68.8333H96.3665V72.7666H88.4999ZM104.233 106.2H80.6332C79.0684 106.2 77.5677 105.578 76.4613 104.472C75.3548 103.365 74.7332 101.865 74.7332 100.3V92.4333H84.5665V94.4C84.5665 94.9216 84.7737 95.4218 85.1426 95.7906C85.5114 96.1594 86.0116 96.3666 86.5332 96.3666H98.3332C98.8548 96.3666 99.355 96.1594 99.7238 95.7906C100.093 95.4218 100.3 94.9216 100.3 94.4V92.4333H110.133V100.3C110.133 101.865 109.512 103.365 108.405 104.472C107.299 105.578 105.798 106.2 104.233 106.2Z" fill="#3B31B3"/>
</svg>
