<svg width="131" height="109" viewBox="0 0 131 109" fill="none" xmlns="http://www.w3.org/2000/svg">
<path d="M117.9 15.26C116.506 15.2605 115.132 15.5946 113.893 16.2343C112.655 16.874 111.588 17.8006 110.782 18.9366C109.76 17.7808 108.503 16.8552 107.096 16.2213C105.688 15.5874 104.161 15.2597 102.617 15.26H98.25C94.198 15.2646 90.3133 16.8738 87.4481 19.7346C84.5829 22.5954 82.9713 26.4742 82.9667 30.52V38.3371L56.6569 12.0674C54.5093 9.92875 51.5993 8.72859 48.5662 8.73058C45.533 8.73257 42.6246 9.93653 40.4798 12.078C38.3351 14.2195 37.1293 17.1235 37.1273 20.152C37.1253 23.1805 38.3273 26.0861 40.4692 28.2304L74.0253 61.7352L70.8027 76.2148L21.4833 24.919L13.4313 7.23163C12.447 5.07722 10.8637 3.2504 8.86972 1.9684C6.87573 0.686412 4.55494 0.00319448 2.18333 9.0109e-10C1.89661 -8.23012e-06 1.6127 0.0563735 1.3478 0.165926C1.0829 0.275478 0.842208 0.436056 0.639465 0.638489C0.436722 0.840922 0.275899 1.08125 0.16618 1.34574C0.0564597 1.61023 -8.2427e-06 1.89372 9.02467e-10 2.18V37.06C-8.2427e-06 37.3463 0.0564597 37.6298 0.16618 37.8943C0.275899 38.1588 0.436722 38.3991 0.639465 38.6015C0.842208 38.8039 1.0829 38.9645 1.3478 39.0741C1.6127 39.1836 1.89661 39.24 2.18333 39.24H7.58485L44.8963 93.4283C48.1102 98.0957 52.3846 101.938 57.3702 104.64H30.5667V109H115.717V104.64H91.6751C98.4541 100.976 103.877 95.2378 107.147 88.2681C111.34 79.2631 113.519 69.4549 113.533 59.5245V55.9128C115.372 58.1939 117.699 60.0344 120.344 61.2989C122.989 62.5635 125.884 63.2199 128.817 63.22C129.103 63.22 129.387 63.1636 129.652 63.0541C129.917 62.9445 130.158 62.7839 130.361 62.5815C130.563 62.3791 130.724 62.1388 130.834 61.8743C130.944 61.6098 131 61.3263 131 61.04V28.34C130.996 24.8722 129.615 21.5475 127.159 19.0954C124.703 16.6432 121.373 15.2639 117.9 15.26ZM96.0667 45.78H93.8833C92.1468 45.7781 90.4819 45.0884 89.2539 43.8623C88.026 42.6363 87.3353 40.9739 87.3333 39.24V30.52C87.3331 29.7878 87.4067 29.0575 87.553 28.34H93.8833V32.7C93.8833 32.9863 93.9398 33.2698 94.0495 33.5342C94.1593 33.7987 94.3201 34.039 94.5229 34.2415L103.256 42.9615C103.459 43.1639 103.7 43.3245 103.964 43.4341C104.229 43.5436 104.513 43.6 104.8 43.6H109.167V50.14H98.25V47.96C98.25 47.6737 98.1935 47.3902 98.0838 47.1257C97.9741 46.8612 97.8133 46.6209 97.6105 46.4185C97.4078 46.2161 97.1671 46.0555 96.9022 45.9459C96.6373 45.8364 96.3534 45.78 96.0667 45.78ZM98.25 19.62H102.617C104.353 19.6219 106.018 20.3116 107.246 21.5377C108.474 22.7637 109.165 24.4261 109.167 26.16V39.24H105.704L98.25 31.7971V26.16C98.25 25.8737 98.1935 25.5902 98.0838 25.3257C97.9741 25.0612 97.8133 24.8209 97.6105 24.6185C97.4078 24.4161 97.1671 24.2555 96.9022 24.1459C96.6373 24.0364 96.3534 23.98 96.0667 23.98H89.5226C90.5383 22.6265 91.8558 21.5278 93.3707 20.771C94.8855 20.0142 96.5561 19.6201 98.25 19.62ZM41.4833 20.1489C41.4834 18.7508 41.8986 17.3841 42.6765 16.2216C43.4545 15.0592 44.5602 14.1531 45.8538 13.6181C47.1474 13.0831 48.5709 12.9431 49.9443 13.2158C51.3176 13.4886 52.5791 14.1618 53.5692 15.1504L89.6265 51.1526C90.9532 52.4785 91.6982 54.2762 91.6977 56.1504C91.6973 58.0246 90.9514 59.822 89.6241 61.1473C88.2968 62.4725 86.4967 63.2173 84.6196 63.2177C82.7425 63.2182 80.9421 62.4743 79.6141 61.1496L43.5569 25.1474C42.8974 24.4925 42.3746 23.7135 42.0187 22.8555C41.6627 21.9975 41.4808 21.0776 41.4833 20.1489ZM57.0918 68.2501L42.0507 81.5996L11.5613 37.3192L19.6182 29.2747L57.0918 68.2501ZM4.36667 4.6651C5.48125 4.98248 6.51354 5.53766 7.39225 6.29228C8.27096 7.04691 8.97513 7.98299 9.45614 9.03588L17.0362 25.6867L7.82903 34.88H4.36667V4.6651ZM74.5438 104.64C69.416 104.641 64.3649 103.395 59.8266 101.012C55.2884 98.6281 51.3991 95.1777 48.4945 90.9582L44.5439 85.2205L60.1182 71.3978L70.475 82.1697C70.6641 82.3654 70.8884 82.524 71.1361 82.6371L71.135 82.6393L97.4789 94.7794C94.5227 97.8866 90.966 100.362 87.0238 102.057C83.0816 103.752 78.8359 104.631 74.5438 104.64ZM109.167 59.5245C109.153 68.8179 107.114 77.997 103.19 86.4243C102.392 88.1316 101.441 89.7635 100.349 91.2999L74.5632 79.4172L77.7131 65.2642C79.4115 66.5477 81.4348 67.3325 83.5555 67.5304C85.6762 67.7283 87.8101 67.3315 89.7173 66.3845C91.6244 65.4376 93.2291 63.9781 94.3508 62.1702C95.4725 60.3623 96.0667 58.2778 96.0667 56.1511C96.0665 55.5986 96.0268 55.0468 95.9479 54.5H109.167V59.5245ZM126.633 58.7047C122.998 58.1758 119.674 56.3589 117.269 53.5858C114.864 50.8126 113.538 47.2683 113.533 43.6V23.98C113.535 22.8241 113.995 21.7158 114.814 20.8985C115.632 20.0811 116.742 19.6213 117.9 19.62C120.215 19.6226 122.435 20.5421 124.073 22.1769C125.71 23.8117 126.631 26.0281 126.633 28.34V58.7047Z" fill="#C4C4C4"/>
<path d="M117.9 15.26C116.506 15.2605 115.132 15.5946 113.893 16.2343C112.655 16.874 111.588 17.8006 110.782 18.9366C109.76 17.7808 108.503 16.8552 107.096 16.2213C105.688 15.5874 104.161 15.2597 102.617 15.26H98.25C94.198 15.2646 90.3133 16.8738 87.4481 19.7346C84.5829 22.5954 82.9713 26.4742 82.9667 30.52V38.3371L56.6569 12.0674C54.5093 9.92875 51.5993 8.72859 48.5662 8.73058C45.533 8.73257 42.6246 9.93653 40.4798 12.078C38.3351 14.2195 37.1293 17.1235 37.1273 20.152C37.1253 23.1805 38.3273 26.0861 40.4692 28.2304L74.0253 61.7352L70.8027 76.2148L21.4833 24.919L13.4313 7.23163C12.447 5.07722 10.8637 3.2504 8.86972 1.9684C6.87573 0.686412 4.55494 0.00319448 2.18333 9.0109e-10C1.89661 -8.23012e-06 1.6127 0.0563735 1.3478 0.165926C1.0829 0.275478 0.842208 0.436056 0.639465 0.638489C0.436722 0.840922 0.275899 1.08125 0.16618 1.34574C0.0564597 1.61023 -8.2427e-06 1.89372 9.02467e-10 2.18V37.06C-8.2427e-06 37.3463 0.0564597 37.6298 0.16618 37.8943C0.275899 38.1588 0.436722 38.3991 0.639465 38.6015C0.842208 38.8039 1.0829 38.9645 1.3478 39.0741C1.6127 39.1836 1.89661 39.24 2.18333 39.24H7.58485L44.8963 93.4283C48.1102 98.0957 52.3846 101.938 57.3702 104.64H30.5667V109H115.717V104.64H91.6751C98.4541 100.976 103.877 95.2378 107.147 88.2681C111.34 79.2631 113.519 69.4549 113.533 59.5245V55.9128C115.372 58.1939 117.699 60.0344 120.344 61.2989C122.989 62.5635 125.884 63.2199 128.817 63.22C129.103 63.22 129.387 63.1636 129.652 63.0541C129.917 62.9445 130.158 62.7839 130.361 62.5815C130.563 62.3791 130.724 62.1388 130.834 61.8743C130.944 61.6098 131 61.3263 131 61.04V28.34C130.996 24.8722 129.615 21.5475 127.159 19.0954C124.703 16.6432 121.373 15.2639 117.9 15.26ZM96.0667 45.78H93.8833C92.1468 45.7781 90.4819 45.0884 89.2539 43.8623C88.026 42.6363 87.3353 40.9739 87.3333 39.24V30.52C87.3331 29.7878 87.4067 29.0575 87.553 28.34H93.8833V32.7C93.8833 32.9863 93.9398 33.2698 94.0495 33.5342C94.1593 33.7987 94.3201 34.039 94.5229 34.2415L103.256 42.9615C103.459 43.1639 103.7 43.3245 103.964 43.4341C104.229 43.5436 104.513 43.6 104.8 43.6H109.167V50.14H98.25V47.96C98.25 47.6737 98.1935 47.3902 98.0838 47.1257C97.9741 46.8612 97.8133 46.6209 97.6105 46.4185C97.4078 46.2161 97.1671 46.0555 96.9022 45.9459C96.6373 45.8364 96.3534 45.78 96.0667 45.78ZM98.25 19.62H102.617C104.353 19.6219 106.018 20.3116 107.246 21.5377C108.474 22.7637 109.165 24.4261 109.167 26.16V39.24H105.704L98.25 31.7971V26.16C98.25 25.8737 98.1935 25.5902 98.0838 25.3257C97.9741 25.0612 97.8133 24.8209 97.6105 24.6185C97.4078 24.4161 97.1671 24.2555 96.9022 24.1459C96.6373 24.0364 96.3534 23.98 96.0667 23.98H89.5226C90.5383 22.6265 91.8558 21.5278 93.3707 20.771C94.8855 20.0142 96.5561 19.6201 98.25 19.62ZM41.4833 20.1489C41.4834 18.7508 41.8986 17.3841 42.6765 16.2216C43.4545 15.0592 44.5602 14.1531 45.8538 13.6181C47.1474 13.0831 48.5709 12.9431 49.9443 13.2158C51.3176 13.4886 52.5791 14.1618 53.5692 15.1504L89.6265 51.1526C90.9532 52.4785 91.6982 54.2762 91.6977 56.1504C91.6973 58.0246 90.9514 59.822 89.6241 61.1473C88.2968 62.4725 86.4967 63.2173 84.6196 63.2177C82.7425 63.2182 80.9421 62.4743 79.6141 61.1496L43.5569 25.1474C42.8974 24.4925 42.3746 23.7135 42.0187 22.8555C41.6627 21.9975 41.4808 21.0776 41.4833 20.1489ZM57.0918 68.2501L42.0507 81.5996L11.5613 37.3192L19.6182 29.2747L57.0918 68.2501ZM4.36667 4.6651C5.48125 4.98248 6.51354 5.53766 7.39225 6.29228C8.27096 7.04691 8.97513 7.98299 9.45614 9.03588L17.0362 25.6867L7.82903 34.88H4.36667V4.6651ZM74.5438 104.64C69.416 104.641 64.3649 103.395 59.8266 101.012C55.2884 98.6281 51.3991 95.1777 48.4945 90.9582L44.5439 85.2205L60.1182 71.3978L70.475 82.1697C70.6641 82.3654 70.8884 82.524 71.1361 82.6371L71.135 82.6393L97.4789 94.7794C94.5227 97.8866 90.966 100.362 87.0238 102.057C83.0816 103.752 78.8359 104.631 74.5438 104.64ZM109.167 59.5245C109.153 68.8179 107.114 77.997 103.19 86.4243C102.392 88.1316 101.441 89.7635 100.349 91.2999L74.5632 79.4172L77.7131 65.2642C79.4115 66.5477 81.4348 67.3325 83.5555 67.5304C85.6762 67.7283 87.8101 67.3315 89.7173 66.3845C91.6244 65.4376 93.2291 63.9781 94.3508 62.1702C95.4725 60.3623 96.0667 58.2778 96.0667 56.1511C96.0665 55.5986 96.0268 55.0468 95.9479 54.5H109.167V59.5245ZM126.633 58.7047C122.998 58.1758 119.674 56.3589 117.269 53.5858C114.864 50.8126 113.538 47.2683 113.533 43.6V23.98C113.535 22.8241 113.995 21.7158 114.814 20.8985C115.632 20.0811 116.742 19.6213 117.9 19.62C120.215 19.6226 122.435 20.5421 124.073 22.1769C125.71 23.8117 126.631 26.0281 126.633 28.34V58.7047Z" fill="#3B31B3"/>
</svg>
