<?xml version="1.0" encoding="utf-8"?><svg xmlns="http://www.w3.org/2000/svg" xmlns:xlink="http://www.w3.org/1999/xlink"><symbol fill="none" viewBox="0 0 87 109" id="beauty" xmlns="http://www.w3.org/2000/svg"><path d="M77.938 29h-3.625V16.312A1.812 1.812 0 0072.5 14.5h-3.625v-3.625H72.5A5.438 5.438 0 0072.5 0H39.875a5.412 5.412 0 00-4.247 2.04L25.116 15.18a1.813 1.813 0 001.417 2.945h9.284a1.812 1.812 0 001.416-.68l5.254-6.57H58V14.5h-3.625a1.812 1.812 0 00-1.812 1.813V29h-3.625a9.073 9.073 0 00-9.063 9.063v29a1.812 1.812 0 003.625 0V54.374h39.875v29h-9.062a1.812 1.812 0 000 3.625h9.062v16.313a1.812 1.812 0 01-1.812 1.812H72.5a1.812 1.812 0 000 3.625h9.063A5.437 5.437 0 0087 103.313v-65.25A9.073 9.073 0 0077.938 29zM41.617 7.25a1.813 1.813 0 00-1.416.68l-5.256 6.57h-4.64l8.156-10.195a1.8 1.8 0 011.414-.68H72.5a1.813 1.813 0 010 3.625H41.617zm20.008 3.625h3.625V14.5h-3.625v-3.625zm-5.437 7.25h14.5V29h-14.5V18.125zm-7.25 14.5h29a5.438 5.438 0 015.437 5.438v3.034l-.544-.156a33.177 33.177 0 00-20.56.725 29.832 29.832 0 01-18.77.491v-4.094a5.438 5.438 0 015.437-5.438zM43.5 50.75v-4.821a33.235 33.235 0 0020.008-.856 29.57 29.57 0 0118.327-.647l1.54.44v5.884H43.5z" fill="#C4C4C4"/><path d="M77.938 29h-3.625V16.312A1.812 1.812 0 0072.5 14.5h-3.625v-3.625H72.5A5.438 5.438 0 0072.5 0H39.875a5.412 5.412 0 00-4.247 2.04L25.116 15.18a1.813 1.813 0 001.417 2.945h9.284a1.812 1.812 0 001.416-.68l5.254-6.57H58V14.5h-3.625a1.812 1.812 0 00-1.812 1.813V29h-3.625a9.073 9.073 0 00-9.063 9.063v29a1.812 1.812 0 003.625 0V54.374h39.875v29h-9.062a1.812 1.812 0 000 3.625h9.062v16.313a1.812 1.812 0 01-1.812 1.812H72.5a1.812 1.812 0 000 3.625h9.063A5.437 5.437 0 0087 103.313v-65.25A9.073 9.073 0 0077.938 29zM41.617 7.25a1.813 1.813 0 00-1.416.68l-5.256 6.57h-4.64l8.156-10.195a1.8 1.8 0 011.414-.68H72.5a1.813 1.813 0 010 3.625H41.617zm20.008 3.625h3.625V14.5h-3.625v-3.625zm-5.437 7.25h14.5V29h-14.5V18.125zm-7.25 14.5h29a5.438 5.438 0 015.437 5.438v3.034l-.544-.156a33.177 33.177 0 00-20.56.725 29.832 29.832 0 01-18.77.491v-4.094a5.438 5.438 0 015.437-5.438zM43.5 50.75v-4.821a33.235 33.235 0 0020.008-.856 29.57 29.57 0 0118.327-.647l1.54.44v5.884H43.5z" fill="#3B31B3"/><path d="M72.5 76.125a1.812 1.812 0 001.813-1.813V63.438a1.812 1.812 0 00-1.813-1.813H54.375a1.812 1.812 0 00-1.813 1.813v3.624a1.812 1.812 0 003.626 0V65.25h14.5v9.063a1.812 1.812 0 001.812 1.812z" fill="#C4C4C4"/><path d="M72.5 76.125a1.812 1.812 0 001.813-1.813V63.438a1.812 1.812 0 00-1.813-1.813H54.375a1.812 1.812 0 00-1.813 1.813v3.624a1.812 1.812 0 003.626 0V65.25h14.5v9.063a1.812 1.812 0 001.812 1.812z" fill="#3B31B3"/><path d="M59.813 72.5h-36.25a9.074 9.074 0 00-9.063 9.063v18.124H9.062a1.813 1.813 0 01-1.812-1.812v-7.25h1.813a1.812 1.812 0 000-3.625H7.125L3.759 39.875h25.107l-1.934 27.059a1.813 1.813 0 001.678 1.941h.13a1.812 1.812 0 001.813-1.684l2.072-29v-.061-7.318A1.812 1.812 0 0030.812 29h-29A1.813 1.813 0 000 30.813v7.25c0 .023.013.043.013.065v.063l3.612 50.676v9.008a5.438 5.438 0 005.438 5.437h6.205a9.058 9.058 0 008.294 5.438h36.25a9.074 9.074 0 009.063-9.063V81.564a9.074 9.074 0 00-9.063-9.063zM3.624 32.625H29v3.625H3.625v-3.625zm14.5 61.625H29v3.625H18.125V94.25zm41.688 10.875h-36.25a5.439 5.439 0 01-5.104-3.625h12.354a1.812 1.812 0 001.812-1.813v-7.25a1.812 1.812 0 00-1.813-1.812H18.126V87h41.688a1.812 1.812 0 000-3.625H18.124v-1.813a5.438 5.438 0 015.438-5.437h36.25a5.438 5.438 0 015.437 5.438v9.062h-9.063a1.812 1.812 0 000 3.625h9.063v5.438a5.435 5.435 0 01-5.438 5.437z" fill="#C4C4C4"/><path d="M59.813 72.5h-36.25a9.074 9.074 0 00-9.063 9.063v18.124H9.062a1.813 1.813 0 01-1.812-1.812v-7.25h1.813a1.812 1.812 0 000-3.625H7.125L3.759 39.875h25.107l-1.934 27.059a1.813 1.813 0 001.678 1.941h.13a1.812 1.812 0 001.813-1.684l2.072-29v-.061-7.318A1.812 1.812 0 0030.812 29h-29A1.813 1.813 0 000 30.813v7.25c0 .023.013.043.013.065v.063l3.612 50.676v9.008a5.438 5.438 0 005.438 5.437h6.205a9.058 9.058 0 008.294 5.438h36.25a9.074 9.074 0 009.063-9.063V81.564a9.074 9.074 0 00-9.063-9.063zM3.624 32.625H29v3.625H3.625v-3.625zm14.5 61.625H29v3.625H18.125V94.25zm41.688 10.875h-36.25a5.439 5.439 0 01-5.104-3.625h12.354a1.812 1.812 0 001.812-1.813v-7.25a1.812 1.812 0 00-1.813-1.812H18.126V87h41.688a1.812 1.812 0 000-3.625H18.124v-1.813a5.438 5.438 0 015.438-5.437h36.25a5.438 5.438 0 015.437 5.438v9.062h-9.063a1.812 1.812 0 000 3.625h9.063v5.438a5.435 5.435 0 01-5.438 5.437z" fill="#3B31B3"/><path d="M56.188 97.875H45.312a1.812 1.812 0 000 3.625h10.876a1.812 1.812 0 000-3.625z" fill="#C4C4C4"/><path d="M56.188 97.875H45.312a1.812 1.812 0 000 3.625h10.876a1.812 1.812 0 000-3.625z" fill="#3B31B3"/><path d="M10.875 63.438a5.438 5.438 0 0010.875 0c0-2.112-1.697-9.063-5.438-9.063-3.74 0-5.437 6.95-5.437 9.063zm5.438 1.812a1.812 1.812 0 01-1.813-1.813c.15-1.886.773-3.704 1.813-5.285a11.238 11.238 0 011.812 5.285 1.812 1.812 0 01-1.813 1.813z" fill="#C4C4C4"/><path d="M10.875 63.438a5.438 5.438 0 0010.875 0c0-2.112-1.697-9.063-5.438-9.063-3.74 0-5.437 6.95-5.437 9.063zm5.438 1.812a1.812 1.812 0 01-1.813-1.813c.15-1.886.773-3.704 1.813-5.285a11.238 11.238 0 011.812 5.285 1.812 1.812 0 01-1.813 1.813z" fill="#3B31B3"/></symbol><symbol fill="none" viewBox="0 0 158 122" id="creativity" xmlns="http://www.w3.org/2000/svg"><path d="M107.625 55.387c1.45 0 2.625-1.18 2.625-2.637a2.631 2.631 0 00-2.625-2.638A2.631 2.631 0 00105 52.75a2.631 2.631 0 002.625 2.637z" fill="#C4C4C4"/><path d="M107.625 55.387c1.45 0 2.625-1.18 2.625-2.637a2.631 2.631 0 00-2.625-2.638A2.631 2.631 0 00105 52.75a2.631 2.631 0 002.625 2.637z" fill="#3B31B3"/><path d="M118.125 55.387c1.45 0 2.625-1.18 2.625-2.637a2.631 2.631 0 00-2.625-2.638 2.631 2.631 0 00-2.625 2.638 2.631 2.631 0 002.625 2.637z" fill="#C4C4C4"/><path d="M118.125 55.387c1.45 0 2.625-1.18 2.625-2.637a2.631 2.631 0 00-2.625-2.638 2.631 2.631 0 00-2.625 2.638 2.631 2.631 0 002.625 2.637z" fill="#3B31B3"/><path d="M154.875 116.05h-13.193a13.092 13.092 0 002.693-7.912v-10.55c0-.7-.277-1.37-.769-1.865a2.618 2.618 0 00-1.856-.773h-10.5v-2.637c0-.7-.277-1.37-.769-1.865a2.618 2.618 0 00-3.712 0 2.645 2.645 0 00-.769 1.865V105.5h-6.644l1.294-4.549a2.65 2.65 0 00-.229-2.007 2.627 2.627 0 00-1.574-1.256 2.615 2.615 0 00-1.997.23 2.635 2.635 0 00-1.25 1.582l-2.158 7.583a7.9 7.9 0 00-3.192 6.33v2.637H97.057a13.088 13.088 0 002.693-7.912V92.313c0-.7-.277-1.37-.769-1.865a2.619 2.619 0 00-3.712 0 2.644 2.644 0 00-.769 1.865v2.637h-7.875v-7.912a13.235 13.235 0 013.849-9.32 13.109 13.109 0 019.276-3.868h2.625c0 .7.277 1.37.769 1.865l7.875 7.912a2.619 2.619 0 003.712 0l7.875-7.912a2.645 2.645 0 00.769-1.865H126a13.107 13.107 0 019.276 3.867 13.233 13.233 0 013.849 9.32c0 .7.277 1.371.769 1.866a2.618 2.618 0 003.712 0 2.645 2.645 0 00.769-1.865 18.529 18.529 0 00-5.388-13.049A18.351 18.351 0 00126 68.575h-.291a18.399 18.399 0 004.1-6.03 18.473 18.473 0 001.441-7.157v-.741a18.472 18.472 0 005.767-6.578 18.565 18.565 0 002.108-8.506c.009-2.758-.61-5.48-1.811-7.96a2.633 2.633 0 00-1.504-1.34 2.615 2.615 0 00-2.007.12 2.648 2.648 0 00-1.214 3.528 12.857 12.857 0 011.286 5.652 13.176 13.176 0 01-2.625 7.862V42.2c0-.7-.277-1.37-.769-1.865a2.618 2.618 0 00-1.856-.772h-3.076c-2.01.005-4.001-.39-5.858-1.163a15.187 15.187 0 01-4.96-3.34 2.696 2.696 0 00-3.712 0 15.187 15.187 0 01-4.96 3.34 15.134 15.134 0 01-5.858 1.163h-3.076c-.696 0-1.364.278-1.856.772A2.644 2.644 0 0094.5 42.2v5.18a13.17 13.17 0 01-1.237-13.776 13.093 13.093 0 014.843-5.295A13.008 13.008 0 01105 26.375h15.75a12.712 12.712 0 015.625 1.29c.627.306 1.349.35 2.007.12a2.628 2.628 0 001.504-1.34 2.648 2.648 0 00-1.214-3.527 17.848 17.848 0 00-7.922-1.818H105a18.273 18.273 0 00-10.872 3.555 18.415 18.415 0 00-6.66 9.337 18.502 18.502 0 00.142 11.487 18.41 18.41 0 006.89 9.168v.74c0 2.46.49 4.893 1.441 7.158a18.4 18.4 0 004.1 6.03h-.291a18.306 18.306 0 00-9.056 2.415A18.416 18.416 0 0084 77.577v-11.64c0-.699-.277-1.37-.769-1.864a2.619 2.619 0 00-3.712 0 2.644 2.644 0 00-.769 1.865V84.4c0 2.798-1.106 5.482-3.075 7.46a10.475 10.475 0 01-7.425 3.09H54.818l-1.362-10.937a11.622 11.622 0 00-3.828-7.233A11.519 11.519 0 0042 73.889c-2.808 0-5.52 1.028-7.628 2.891a11.621 11.621 0 00-3.828 7.233L27.87 105.5H21a13.116 13.116 0 00-8.298 2.977 13.225 13.225 0 00-4.565 7.573H2.625c-.696 0-1.364.278-1.856.773a2.645 2.645 0 000 3.73 2.62 2.62 0 001.856.772H36.75c.696 0 1.364-.278 1.856-.772a2.646 2.646 0 000-3.73 2.618 2.618 0 00-1.856-.773h-4.9l3.902-31.386a6.339 6.339 0 012.09-3.94A6.283 6.283 0 0142 79.149c1.53 0 3.008.56 4.158 1.575a6.339 6.339 0 012.09 3.94l3.903 31.386H47.25c-.696 0-1.364.278-1.856.773a2.642 2.642 0 000 3.73c.492.494 1.16.772 1.856.772h107.625a2.62 2.62 0 001.856-.772 2.647 2.647 0 000-3.73 2.617 2.617 0 00-1.856-.773zm-42-38.017l-4.827-4.85c3.157.89 6.497.89 9.654 0l-4.827 4.85zM99.75 55.388v-10.55h.451a20.32 20.32 0 0012.674-4.392 20.32 20.32 0 0012.674 4.392H126v10.55a13.22 13.22 0 01-3.844 9.325 13.095 13.095 0 01-9.281 3.862c-3.481 0-6.819-1.39-9.281-3.862a13.22 13.22 0 01-3.844-9.325zM13.608 116.05a7.908 7.908 0 012.865-3.813A7.846 7.846 0 0121 110.775h6.213l-.656 5.275H13.608zm80.892-7.912c0 2.098-.83 4.111-2.306 5.595a7.855 7.855 0 01-5.569 2.317H75.862a13.11 13.11 0 00-2.414-5.262c.018 0 .034-.013.055-.013h13.125c.696 0 1.364-.278 1.856-.772a2.645 2.645 0 000-3.73 2.618 2.618 0 00-1.856-.773v-5.275h7.875l-.003 7.913zm-26.25-7.913c2.6-.002 5.16-.65 7.45-1.889a15.778 15.778 0 005.675-5.206v12.37H73.5a7.795 7.795 0 00-4.523 1.514A12.95 12.95 0 0063 105.5h-6.87l-.656-5.275H68.25zm-11.463 10.55H63a7.78 7.78 0 014.707 1.607l.023.026h.019a7.91 7.91 0 012.643 3.642h-12.95l-.655-5.275zm58.713 5.275v-2.637c0-.7.277-1.371.769-1.865a2.617 2.617 0 011.856-.773h13.125a2.62 2.62 0 001.856-.772 2.647 2.647 0 000-3.73 2.617 2.617 0 00-1.856-.773v-5.275h7.875v7.913c0 2.098-.83 4.111-2.307 5.595a7.852 7.852 0 01-5.568 2.317H115.5z" fill="#C4C4C4"/><path d="M154.875 116.05h-13.193a13.092 13.092 0 002.693-7.912v-10.55c0-.7-.277-1.37-.769-1.865a2.618 2.618 0 00-1.856-.773h-10.5v-2.637c0-.7-.277-1.37-.769-1.865a2.618 2.618 0 00-3.712 0 2.645 2.645 0 00-.769 1.865V105.5h-6.644l1.294-4.549a2.65 2.65 0 00-.229-2.007 2.627 2.627 0 00-1.574-1.256 2.615 2.615 0 00-1.997.23 2.635 2.635 0 00-1.25 1.582l-2.158 7.583a7.9 7.9 0 00-3.192 6.33v2.637H97.057a13.088 13.088 0 002.693-7.912V92.313c0-.7-.277-1.37-.769-1.865a2.619 2.619 0 00-3.712 0 2.644 2.644 0 00-.769 1.865v2.637h-7.875v-7.912a13.235 13.235 0 013.849-9.32 13.109 13.109 0 019.276-3.868h2.625c0 .7.277 1.37.769 1.865l7.875 7.912a2.619 2.619 0 003.712 0l7.875-7.912a2.645 2.645 0 00.769-1.865H126a13.107 13.107 0 019.276 3.867 13.233 13.233 0 013.849 9.32c0 .7.277 1.371.769 1.866a2.618 2.618 0 003.712 0 2.645 2.645 0 00.769-1.865 18.529 18.529 0 00-5.388-13.049A18.351 18.351 0 00126 68.575h-.291a18.399 18.399 0 004.1-6.03 18.473 18.473 0 001.441-7.157v-.741a18.472 18.472 0 005.767-6.578 18.565 18.565 0 002.108-8.506c.009-2.758-.61-5.48-1.811-7.96a2.633 2.633 0 00-1.504-1.34 2.615 2.615 0 00-2.007.12 2.648 2.648 0 00-1.214 3.528 12.857 12.857 0 011.286 5.652 13.176 13.176 0 01-2.625 7.862V42.2c0-.7-.277-1.37-.769-1.865a2.618 2.618 0 00-1.856-.772h-3.076c-2.01.005-4.001-.39-5.858-1.163a15.187 15.187 0 01-4.96-3.34 2.696 2.696 0 00-3.712 0 15.187 15.187 0 01-4.96 3.34 15.134 15.134 0 01-5.858 1.163h-3.076c-.696 0-1.364.278-1.856.772A2.644 2.644 0 0094.5 42.2v5.18a13.17 13.17 0 01-1.237-13.776 13.093 13.093 0 014.843-5.295A13.008 13.008 0 01105 26.375h15.75a12.712 12.712 0 015.625 1.29c.627.306 1.349.35 2.007.12a2.628 2.628 0 001.504-1.34 2.648 2.648 0 00-1.214-3.527 17.848 17.848 0 00-7.922-1.818H105a18.273 18.273 0 00-10.872 3.555 18.415 18.415 0 00-6.66 9.337 18.502 18.502 0 00.142 11.487 18.41 18.41 0 006.89 9.168v.74c0 2.46.49 4.893 1.441 7.158a18.4 18.4 0 004.1 6.03h-.291a18.306 18.306 0 00-9.056 2.415A18.416 18.416 0 0084 77.577v-11.64c0-.699-.277-1.37-.769-1.864a2.619 2.619 0 00-3.712 0 2.644 2.644 0 00-.769 1.865V84.4c0 2.798-1.106 5.482-3.075 7.46a10.475 10.475 0 01-7.425 3.09H54.818l-1.362-10.937a11.622 11.622 0 00-3.828-7.233A11.519 11.519 0 0042 73.889c-2.808 0-5.52 1.028-7.628 2.891a11.621 11.621 0 00-3.828 7.233L27.87 105.5H21a13.116 13.116 0 00-8.298 2.977 13.225 13.225 0 00-4.565 7.573H2.625c-.696 0-1.364.278-1.856.773a2.645 2.645 0 000 3.73 2.62 2.62 0 001.856.772H36.75c.696 0 1.364-.278 1.856-.772a2.646 2.646 0 000-3.73 2.618 2.618 0 00-1.856-.773h-4.9l3.902-31.386a6.339 6.339 0 012.09-3.94A6.283 6.283 0 0142 79.149c1.53 0 3.008.56 4.158 1.575a6.339 6.339 0 012.09 3.94l3.903 31.386H47.25c-.696 0-1.364.278-1.856.773a2.642 2.642 0 000 3.73c.492.494 1.16.772 1.856.772h107.625a2.62 2.62 0 001.856-.772 2.647 2.647 0 000-3.73 2.617 2.617 0 00-1.856-.773zm-42-38.017l-4.827-4.85c3.157.89 6.497.89 9.654 0l-4.827 4.85zM99.75 55.388v-10.55h.451a20.32 20.32 0 0012.674-4.392 20.32 20.32 0 0012.674 4.392H126v10.55a13.22 13.22 0 01-3.844 9.325 13.095 13.095 0 01-9.281 3.862c-3.481 0-6.819-1.39-9.281-3.862a13.22 13.22 0 01-3.844-9.325zM13.608 116.05a7.908 7.908 0 012.865-3.813A7.846 7.846 0 0121 110.775h6.213l-.656 5.275H13.608zm80.892-7.912c0 2.098-.83 4.111-2.306 5.595a7.855 7.855 0 01-5.569 2.317H75.862a13.11 13.11 0 00-2.414-5.262c.018 0 .034-.013.055-.013h13.125c.696 0 1.364-.278 1.856-.772a2.645 2.645 0 000-3.73 2.618 2.618 0 00-1.856-.773v-5.275h7.875l-.003 7.913zm-26.25-7.913c2.6-.002 5.16-.65 7.45-1.889a15.778 15.778 0 005.675-5.206v12.37H73.5a7.795 7.795 0 00-4.523 1.514A12.95 12.95 0 0063 105.5h-6.87l-.656-5.275H68.25zm-11.463 10.55H63a7.78 7.78 0 014.707 1.607l.023.026h.019a7.91 7.91 0 012.643 3.642h-12.95l-.655-5.275zm58.713 5.275v-2.637c0-.7.277-1.371.769-1.865a2.617 2.617 0 011.856-.773h13.125a2.62 2.62 0 001.856-.772 2.647 2.647 0 000-3.73 2.617 2.617 0 00-1.856-.773v-5.275h7.875v7.913c0 2.098-.83 4.111-2.307 5.595a7.852 7.852 0 01-5.568 2.317H115.5z" fill="#3B31B3"/><path d="M13.125 100.225H21c.696 0 1.364-.278 1.856-.772a2.644 2.644 0 000-3.73A2.619 2.619 0 0021 94.95h-7.875a7.856 7.856 0 01-5.568-2.318 7.932 7.932 0 01-2.307-5.595v-31.65c0-2.098.83-4.11 2.307-5.595a7.856 7.856 0 015.568-2.317h57.75c2.089 0 4.092.834 5.569 2.317a7.932 7.932 0 012.306 5.596c0 .699.277 1.37.769 1.864a2.619 2.619 0 003.712 0A2.644 2.644 0 0084 55.389a13.235 13.235 0 00-3.849-9.32 13.11 13.11 0 00-9.276-3.868h-2.129l6.907-12.02c.141-.245.242-.512.299-.79l3.326-16.353c.105-.54.04-1.1-.188-1.602a2.633 2.633 0 00-1.081-1.192 2.614 2.614 0 00-3.042.307L62.546 21.628a2.608 2.608 0 00-.525.654l-2.205 3.837a7.921 7.921 0 00-3.938-4.22l1.736-5.235a2.65 2.65 0 00-.05-1.815l-5.25-13.187c-.195-.49-.531-.911-.966-1.207A2.616 2.616 0 0049.875 0h-10.5c-.525 0-1.037.157-1.472.452a2.635 2.635 0 00-.967 1.204l-5.25 13.188a2.65 2.65 0 00-.05 1.815l1.736 5.235a7.839 7.839 0 00-3.403 3.105 7.893 7.893 0 00.534 8.813 7.826 7.826 0 003.753 2.667l.357 5.721h-9.662l-.365-.638 2.273-1.319a2.63 2.63 0 001.236-1.602 2.65 2.65 0 00-.939-2.786 2.62 2.62 0 00-2.922-.18l-2.273 1.319-2.625-4.566 2.273-1.319a2.629 2.629 0 001.236-1.602 2.65 2.65 0 00-.939-2.786 2.621 2.621 0 00-1.95-.518 2.615 2.615 0 00-.972.338l-2.273 1.319-2.625-4.568 2.273-1.319a2.629 2.629 0 001.236-1.602 2.65 2.65 0 00-.939-2.786 2.621 2.621 0 00-1.95-.518 2.617 2.617 0 00-.972.338l-2.273 1.319-2.625-4.569 9.093-5.275 6.402 11.141a2.635 2.635 0 001.594 1.242 2.612 2.612 0 002.773-.943 2.643 2.643 0 00.18-2.936L21.163 3.956a2.614 2.614 0 00-3.575-.965l-13.65 7.912a2.649 2.649 0 00-.96 3.603L18.899 42.2h-5.775a13.11 13.11 0 00-9.276 3.867A13.235 13.235 0 000 55.387v31.65a13.235 13.235 0 003.849 9.32 13.108 13.108 0 009.276 3.868zm58.412-75.477l-2.783-1.614 3.804-3.392-1.022 5.006zm-6.3 2.442l4.546 2.637L62.685 42.2h-6.064l8.616-15.01zM41.152 5.275H42v7.912c0 .7.277 1.37.769 1.866a2.619 2.619 0 003.712 0 2.644 2.644 0 00.769-1.866V5.276h.848l4.234 10.632-1.725 5.193H38.643l-1.725-5.193 4.234-10.632zm-4.402 21.1H52.5c.696 0 1.364.278 1.856.773a2.644 2.644 0 010 3.73 2.619 2.619 0 01-1.856.772H36.75a2.619 2.619 0 01-1.856-.772 2.644 2.644 0 010-3.73 2.619 2.619 0 011.856-.773zm2.793 10.55h10.164l-.328 5.275H39.87l-.328-5.275z" fill="#C4C4C4"/><path d="M13.125 100.225H21c.696 0 1.364-.278 1.856-.772a2.644 2.644 0 000-3.73A2.619 2.619 0 0021 94.95h-7.875a7.856 7.856 0 01-5.568-2.318 7.932 7.932 0 01-2.307-5.595v-31.65c0-2.098.83-4.11 2.307-5.595a7.856 7.856 0 015.568-2.317h57.75c2.089 0 4.092.834 5.569 2.317a7.932 7.932 0 012.306 5.596c0 .699.277 1.37.769 1.864a2.619 2.619 0 003.712 0A2.644 2.644 0 0084 55.389a13.235 13.235 0 00-3.849-9.32 13.11 13.11 0 00-9.276-3.868h-2.129l6.907-12.02c.141-.245.242-.512.299-.79l3.326-16.353c.105-.54.04-1.1-.188-1.602a2.633 2.633 0 00-1.081-1.192 2.614 2.614 0 00-3.042.307L62.546 21.628a2.608 2.608 0 00-.525.654l-2.205 3.837a7.921 7.921 0 00-3.938-4.22l1.736-5.235a2.65 2.65 0 00-.05-1.815l-5.25-13.187c-.195-.49-.531-.911-.966-1.207A2.616 2.616 0 0049.875 0h-10.5c-.525 0-1.037.157-1.472.452a2.635 2.635 0 00-.967 1.204l-5.25 13.188a2.65 2.65 0 00-.05 1.815l1.736 5.235a7.839 7.839 0 00-3.403 3.105 7.893 7.893 0 00.534 8.813 7.826 7.826 0 003.753 2.667l.357 5.721h-9.662l-.365-.638 2.273-1.319a2.63 2.63 0 001.236-1.602 2.65 2.65 0 00-.939-2.786 2.62 2.62 0 00-2.922-.18l-2.273 1.319-2.625-4.566 2.273-1.319a2.629 2.629 0 001.236-1.602 2.65 2.65 0 00-.939-2.786 2.621 2.621 0 00-1.95-.518 2.615 2.615 0 00-.972.338l-2.273 1.319-2.625-4.568 2.273-1.319a2.629 2.629 0 001.236-1.602 2.65 2.65 0 00-.939-2.786 2.621 2.621 0 00-1.95-.518 2.617 2.617 0 00-.972.338l-2.273 1.319-2.625-4.569 9.093-5.275 6.402 11.141a2.635 2.635 0 001.594 1.242 2.612 2.612 0 002.773-.943 2.643 2.643 0 00.18-2.936L21.163 3.956a2.614 2.614 0 00-3.575-.965l-13.65 7.912a2.649 2.649 0 00-.96 3.603L18.899 42.2h-5.775a13.11 13.11 0 00-9.276 3.867A13.235 13.235 0 000 55.387v31.65a13.235 13.235 0 003.849 9.32 13.108 13.108 0 009.276 3.868zm58.412-75.477l-2.783-1.614 3.804-3.392-1.022 5.006zm-6.3 2.442l4.546 2.637L62.685 42.2h-6.064l8.616-15.01zM41.152 5.275H42v7.912c0 .7.277 1.37.769 1.866a2.619 2.619 0 003.712 0 2.644 2.644 0 00.769-1.866V5.276h.848l4.234 10.632-1.725 5.193H38.643l-1.725-5.193 4.234-10.632zm-4.402 21.1H52.5c.696 0 1.364.278 1.856.773a2.644 2.644 0 010 3.73 2.619 2.619 0 01-1.856.772H36.75a2.619 2.619 0 01-1.856-.772 2.644 2.644 0 010-3.73 2.619 2.619 0 011.856-.773zm2.793 10.55h10.164l-.328 5.275H39.87l-.328-5.275z" fill="#3B31B3"/><path d="M31.5 60.663c-.696 0-1.364.278-1.856.772a2.644 2.644 0 000 3.73c.492.495 1.16.773 1.856.773h21c.696 0 1.364-.278 1.856-.773a2.644 2.644 0 000-3.73 2.619 2.619 0 00-1.856-.772h-21z" fill="#C4C4C4"/><path d="M31.5 60.663c-.696 0-1.364.278-1.856.772a2.644 2.644 0 000 3.73c.492.495 1.16.773 1.856.773h21c.696 0 1.364-.278 1.856-.773a2.644 2.644 0 000-3.73 2.619 2.619 0 00-1.856-.772h-21z" fill="#3B31B3"/></symbol><symbol fill="none" viewBox="0 0 104 101" id="define" xmlns="http://www.w3.org/2000/svg"><path d="M52 .756c-10.175 0-20.123 2.937-28.584 8.438-8.461 5.501-15.056 13.32-18.95 22.469a48.815 48.815 0 00-2.928 28.926c1.986 9.712 6.886 18.633 14.081 25.635 7.196 7.001 16.364 11.77 26.344 13.701a52.773 52.773 0 0029.727-2.849c9.401-3.789 17.437-10.206 23.09-18.44 5.654-8.232 8.671-17.912 8.671-27.814 0-13.278-5.42-26.013-15.07-35.402C78.734 6.031 65.647.756 52.002.756zm40.614 31.291H52a19.812 19.812 0 00-3.73.345L62.71 8.297a45.512 45.512 0 0117.701 8.598 44.006 44.006 0 0112.204 15.152zm-27.75 18.775c.01 2.99-1.08 5.884-3.073 8.16C59.8 61.258 57.034 62.765 54 63.23a13.158 13.158 0 01-8.756-1.714c-2.614-1.57-4.564-4-5.498-6.849a12.203 12.203 0 01.41-8.681c1.199-2.753 3.37-4.998 6.122-6.329a13.185 13.185 0 018.88-.925c2.979.734 5.589 2.481 7.359 4.925l.257.345a12.275 12.275 0 012.09 6.82zM52 7.015c1.319 0 2.637 0 3.923.187L36.373 39.87a18.676 18.676 0 00-1.737 2.816L20.455 19.531C28.879 11.499 40.206 7.005 52 7.015zM6.981 50.822c.002-9.464 3.175-18.67 9.036-26.222l16.69 27.16c.238 4.298 1.986 8.385 4.952 11.578H8.718A42.522 42.522 0 016.98 50.822zm4.406 18.775H52a19.813 19.813 0 003.73-.345L41.293 93.346a45.512 45.512 0 01-17.701-8.597 44.008 44.008 0 01-12.204-15.152zM52 94.629c-1.318 0-2.636 0-3.923-.188L67.63 61.775a18.555 18.555 0 003.022-6.258l16.079 23.28a44.884 44.884 0 01-15.546 11.695A46.064 46.064 0 0152 94.63zM68.08 40.715l-.45-.657-.258-.376c-.364-.48-.76-.949-1.19-1.408h28.942a42.254 42.254 0 011.565 17.993 42.607 42.607 0 01-6.1 17.053l-22.51-32.605z" fill="#C4C4C4"/><path d="M52 .756c-10.175 0-20.123 2.937-28.584 8.438-8.461 5.501-15.056 13.32-18.95 22.469a48.815 48.815 0 00-2.928 28.926c1.986 9.712 6.886 18.633 14.081 25.635 7.196 7.001 16.364 11.77 26.344 13.701a52.773 52.773 0 0029.727-2.849c9.401-3.789 17.437-10.206 23.09-18.44 5.654-8.232 8.671-17.912 8.671-27.814 0-13.278-5.42-26.013-15.07-35.402C78.734 6.031 65.647.756 52.002.756zm40.614 31.291H52a19.812 19.812 0 00-3.73.345L62.71 8.297a45.512 45.512 0 0117.701 8.598 44.006 44.006 0 0112.204 15.152zm-27.75 18.775c.01 2.99-1.08 5.884-3.073 8.16C59.8 61.258 57.034 62.765 54 63.23a13.158 13.158 0 01-8.756-1.714c-2.614-1.57-4.564-4-5.498-6.849a12.203 12.203 0 01.41-8.681c1.199-2.753 3.37-4.998 6.122-6.329a13.185 13.185 0 018.88-.925c2.979.734 5.589 2.481 7.359 4.925l.257.345a12.275 12.275 0 012.09 6.82zM52 7.015c1.319 0 2.637 0 3.923.187L36.373 39.87a18.676 18.676 0 00-1.737 2.816L20.455 19.531C28.879 11.499 40.206 7.005 52 7.015zM6.981 50.822c.002-9.464 3.175-18.67 9.036-26.222l16.69 27.16c.238 4.298 1.986 8.385 4.952 11.578H8.718A42.522 42.522 0 016.98 50.822zm4.406 18.775H52a19.813 19.813 0 003.73-.345L41.293 93.346a45.512 45.512 0 01-17.701-8.597 44.008 44.008 0 01-12.204-15.152zM52 94.629c-1.318 0-2.636 0-3.923-.188L67.63 61.775a18.555 18.555 0 003.022-6.258l16.079 23.28a44.884 44.884 0 01-15.546 11.695A46.064 46.064 0 0152 94.63zM68.08 40.715l-.45-.657-.258-.376c-.364-.48-.76-.949-1.19-1.408h28.942a42.254 42.254 0 011.565 17.993 42.607 42.607 0 01-6.1 17.053l-22.51-32.605z" fill="#3B31B3"/></symbol><symbol fill="none" viewBox="0 0 102 102" id="design" xmlns="http://www.w3.org/2000/svg"><mask id="da" maskUnits="userSpaceOnUse" x="-.132" y="-.065" width="103" height="102" fill="#000"><path fill="#fff" d="M-.132-.065h103v102h-103z"/><path d="M82.708.95c-4.559-.192-9.07 1.324-12.455 4.615L49.633 25.59 32.353 8.776a2.624 2.624 0 00-.453-.361A18.63 18.63 0 0019.32 3.519c-4.728-.003-9.474 1.755-13.073 5.257-7.198 7.003-7.162 18.391.041 25.4l17.239 16.813L9.465 64.673C5.132 68.893 3.832 76.216 2.99 82.65c-.842 6.434-.825 12.038-.825 12.038 0 .68.279 1.334.773 1.816a2.678 2.678 0 001.867.752s5.76-.023 12.372-.843 14.098-2.084 18.434-6.3L49.715 76.43l6.021 5.898a2.692 2.692 0 001.875.75 2.692 2.692 0 001.872-.756 2.548 2.548 0 00.777-1.821 2.547 2.547 0 00-.77-1.824L10 30.565c-5.203-5.063-5.192-13.126 0-18.178 5.192-5.052 13.438-5.022 18.64.04.067.057.135.11.207.16l63.139 61.475c5.202 5.063 5.192 13.086 0 18.138-5.193 5.051-13.438 5.022-18.64-.04l-7.177-6.982a2.66 2.66 0 00-.86-.56 2.718 2.718 0 00-1.016-.197c-.704 0-1.379.272-1.877.757a2.547 2.547 0 00-.777 1.825c0 .685.28 1.342.777 1.826l7.217 6.982c7.204 7.009 18.907 7.004 26.106 0 7.198-7.004 7.162-18.391-.042-25.4L75.821 51.029l20.578-20.023c6.766-6.588 6.136-17.545-.99-24.478-3.562-3.466-8.143-5.385-12.701-5.577zm-1.32 5.137c3.56-.165 7.331 1.155 10.31 4.053 5.295 5.152 5.524 12.8.949 17.255l-20.58 20.023-7.464-7.303 18.6-18.098c.409-.373.685-.865.787-1.402a2.506 2.506 0 00-.217-1.584 2.6 2.6 0 00-1.138-1.153 2.703 2.703 0 00-1.618-.274 2.666 2.666 0 00-1.526.762L60.85 36.503 53.385 29.2 73.965 9.177c2.003-1.948 4.653-2.962 7.423-3.09zM28.229 16.32a2.666 2.666 0 00-1.526.762l-2.64 2.608a2.585 2.585 0 00-.693.83 2.515 2.515 0 00.484 2.986c.262.255.576.453.922.582a2.706 2.706 0 002.147-.112c.33-.164.62-.394.853-.674l2.639-2.569a2.55 2.55 0 00.788-1.402 2.506 2.506 0 00-.217-1.584 2.601 2.601 0 00-1.138-1.153 2.703 2.703 0 00-1.619-.274zm13.197 12.84a2.665 2.665 0 00-1.526.763l-2.64 2.568a2.57 2.57 0 00-.598.83 2.51 2.51 0 00.541 2.837c.247.243.541.435.865.566a2.705 2.705 0 002.044-.008c.323-.134.616-.329.86-.574l2.64-2.568a2.55 2.55 0 00.788-1.402 2.506 2.506 0 00-.217-1.585 2.6 2.6 0 00-1.139-1.152 2.703 2.703 0 00-1.618-.275zM54.623 42a2.666 2.666 0 00-1.526.763l-2.64 2.568a2.569 2.569 0 00-.598.83A2.51 2.51 0 0050.4 49c.247.242.54.435.865.566a2.702 2.702 0 002.044-.009c.323-.133.616-.328.86-.573l2.64-2.568a2.55 2.55 0 00.788-1.403 2.506 2.506 0 00-.217-1.584 2.601 2.601 0 00-1.139-1.153 2.704 2.704 0 00-1.618-.274zM27.281 54.6l8.124 7.946-13.98 13.603a2.568 2.568 0 00-.599.83 2.51 2.51 0 00.541 2.837c.247.243.541.435.865.566a2.703 2.703 0 002.044-.008c.323-.134.616-.329.86-.573l14.022-13.644 6.804 6.662L31.9 86.501c-2.204 2.142-9.152 4.043-15.383 4.815-1.18.146-2.223.28-3.134.361a2.562 2.562 0 00-.124-.12L7.98 86.42a2.585 2.585 0 00-.082-.08c.08-.887.18-1.902.33-3.05.793-6.062 2.788-12.822 4.99-14.966L27.28 54.6zm40.539.242a2.665 2.665 0 00-1.526.762l-2.64 2.568a2.57 2.57 0 00-.598.83 2.512 2.512 0 00.541 2.837c.247.243.541.435.865.566a2.703 2.703 0 002.044-.008c.323-.134.615-.328.86-.573l2.64-2.569c.409-.374.685-.865.787-1.402a2.505 2.505 0 00-.217-1.584 2.6 2.6 0 00-1.138-1.153 2.702 2.702 0 00-1.618-.274zm13.197 12.84a2.666 2.666 0 00-1.526.763l-2.64 2.568a2.569 2.569 0 00-.6.83 2.511 2.511 0 00.541 2.838c.247.243.542.436.866.567a2.705 2.705 0 002.045-.01c.323-.133.615-.329.86-.574l2.64-2.568a2.55 2.55 0 00.787-1.402 2.506 2.506 0 00-.217-1.585 2.601 2.601 0 00-1.138-1.152 2.703 2.703 0 00-1.618-.275z"/></mask><path d="M82.708.95c-4.559-.192-9.07 1.324-12.455 4.615L49.633 25.59 32.353 8.776a2.624 2.624 0 00-.453-.361A18.63 18.63 0 0019.32 3.519c-4.728-.003-9.474 1.755-13.073 5.257-7.198 7.003-7.162 18.391.041 25.4l17.239 16.813L9.465 64.673C5.132 68.893 3.832 76.216 2.99 82.65c-.842 6.434-.825 12.038-.825 12.038 0 .68.279 1.334.773 1.816a2.678 2.678 0 001.867.752s5.76-.023 12.372-.843 14.098-2.084 18.434-6.3L49.715 76.43l6.021 5.898a2.692 2.692 0 001.875.75 2.692 2.692 0 001.872-.756 2.548 2.548 0 00.777-1.821 2.547 2.547 0 00-.77-1.824L10 30.565c-5.203-5.063-5.192-13.126 0-18.178 5.192-5.052 13.438-5.022 18.64.04.067.057.135.11.207.16l63.139 61.475c5.202 5.063 5.192 13.086 0 18.138-5.193 5.051-13.438 5.022-18.64-.04l-7.177-6.982a2.66 2.66 0 00-.86-.56 2.718 2.718 0 00-1.016-.197c-.704 0-1.379.272-1.877.757a2.547 2.547 0 00-.777 1.825c0 .685.28 1.342.777 1.826l7.217 6.982c7.204 7.009 18.907 7.004 26.106 0 7.198-7.004 7.162-18.391-.042-25.4L75.821 51.029l20.578-20.023c6.766-6.588 6.136-17.545-.99-24.478-3.562-3.466-8.143-5.385-12.701-5.577zm-1.32 5.137c3.56-.165 7.331 1.155 10.31 4.053 5.295 5.152 5.524 12.8.949 17.255l-20.58 20.023-7.464-7.303 18.6-18.098c.409-.373.685-.865.787-1.402a2.506 2.506 0 00-.217-1.584 2.6 2.6 0 00-1.138-1.153 2.703 2.703 0 00-1.618-.274 2.666 2.666 0 00-1.526.762L60.85 36.503 53.385 29.2 73.965 9.177c2.003-1.948 4.653-2.962 7.423-3.09zM28.229 16.32a2.666 2.666 0 00-1.526.762l-2.64 2.608a2.585 2.585 0 00-.693.83 2.515 2.515 0 00.484 2.986c.262.255.576.453.922.582a2.706 2.706 0 002.147-.112c.33-.164.62-.394.853-.674l2.639-2.569a2.55 2.55 0 00.788-1.402 2.506 2.506 0 00-.217-1.584 2.601 2.601 0 00-1.138-1.153 2.703 2.703 0 00-1.619-.274zm13.197 12.84a2.665 2.665 0 00-1.526.763l-2.64 2.568a2.57 2.57 0 00-.598.83 2.51 2.51 0 00.541 2.837c.247.243.541.435.865.566a2.705 2.705 0 002.044-.008c.323-.134.616-.329.86-.574l2.64-2.568a2.55 2.55 0 00.788-1.402 2.506 2.506 0 00-.217-1.585 2.6 2.6 0 00-1.139-1.152 2.703 2.703 0 00-1.618-.275zM54.623 42a2.666 2.666 0 00-1.526.763l-2.64 2.568a2.569 2.569 0 00-.598.83A2.51 2.51 0 0050.4 49c.247.242.54.435.865.566a2.702 2.702 0 002.044-.009c.323-.133.616-.328.86-.573l2.64-2.568a2.55 2.55 0 00.788-1.403 2.506 2.506 0 00-.217-1.584 2.601 2.601 0 00-1.139-1.153 2.704 2.704 0 00-1.618-.274zM27.281 54.6l8.124 7.946-13.98 13.603a2.568 2.568 0 00-.599.83 2.51 2.51 0 00.541 2.837c.247.243.541.435.865.566a2.703 2.703 0 002.044-.008c.323-.134.616-.329.86-.573l14.022-13.644 6.804 6.662L31.9 86.501c-2.204 2.142-9.152 4.043-15.383 4.815-1.18.146-2.223.28-3.134.361a2.562 2.562 0 00-.124-.12L7.98 86.42a2.585 2.585 0 00-.082-.08c.08-.887.18-1.902.33-3.05.793-6.062 2.788-12.822 4.99-14.966L27.28 54.6zm40.539.242a2.665 2.665 0 00-1.526.762l-2.64 2.568a2.57 2.57 0 00-.598.83 2.512 2.512 0 00.541 2.837c.247.243.541.435.865.566a2.703 2.703 0 002.044-.008c.323-.134.615-.328.86-.573l2.64-2.569c.409-.374.685-.865.787-1.402a2.505 2.505 0 00-.217-1.584 2.6 2.6 0 00-1.138-1.153 2.702 2.702 0 00-1.618-.274zm13.197 12.84a2.666 2.666 0 00-1.526.763l-2.64 2.568a2.569 2.569 0 00-.6.83 2.511 2.511 0 00.541 2.838c.247.243.542.436.866.567a2.705 2.705 0 002.045-.01c.323-.133.615-.329.86-.574l2.64-2.568a2.55 2.55 0 00.787-1.402 2.506 2.506 0 00-.217-1.585 2.601 2.601 0 00-1.138-1.152 2.703 2.703 0 00-1.618-.275z" fill="#C4C4C4"/><path d="M82.708.95c-4.559-.192-9.07 1.324-12.455 4.615L49.633 25.59 32.353 8.776a2.624 2.624 0 00-.453-.361A18.63 18.63 0 0019.32 3.519c-4.728-.003-9.474 1.755-13.073 5.257-7.198 7.003-7.162 18.391.041 25.4l17.239 16.813L9.465 64.673C5.132 68.893 3.832 76.216 2.99 82.65c-.842 6.434-.825 12.038-.825 12.038 0 .68.279 1.334.773 1.816a2.678 2.678 0 001.867.752s5.76-.023 12.372-.843 14.098-2.084 18.434-6.3L49.715 76.43l6.021 5.898a2.692 2.692 0 001.875.75 2.692 2.692 0 001.872-.756 2.548 2.548 0 00.777-1.821 2.547 2.547 0 00-.77-1.824L10 30.565c-5.203-5.063-5.192-13.126 0-18.178 5.192-5.052 13.438-5.022 18.64.04.067.057.135.11.207.16l63.139 61.475c5.202 5.063 5.192 13.086 0 18.138-5.193 5.051-13.438 5.022-18.64-.04l-7.177-6.982a2.66 2.66 0 00-.86-.56 2.718 2.718 0 00-1.016-.197c-.704 0-1.379.272-1.877.757a2.547 2.547 0 00-.777 1.825c0 .685.28 1.342.777 1.826l7.217 6.982c7.204 7.009 18.907 7.004 26.106 0 7.198-7.004 7.162-18.391-.042-25.4L75.821 51.029l20.578-20.023c6.766-6.588 6.136-17.545-.99-24.478-3.562-3.466-8.143-5.385-12.701-5.577zm-1.32 5.137c3.56-.165 7.331 1.155 10.31 4.053 5.295 5.152 5.524 12.8.949 17.255l-20.58 20.023-7.464-7.303 18.6-18.098c.409-.373.685-.865.787-1.402a2.506 2.506 0 00-.217-1.584 2.6 2.6 0 00-1.138-1.153 2.703 2.703 0 00-1.618-.274 2.666 2.666 0 00-1.526.762L60.85 36.503 53.385 29.2 73.965 9.177c2.003-1.948 4.653-2.962 7.423-3.09zM28.229 16.32a2.666 2.666 0 00-1.526.762l-2.64 2.608a2.585 2.585 0 00-.693.83 2.515 2.515 0 00.484 2.986c.262.255.576.453.922.582a2.706 2.706 0 002.147-.112c.33-.164.62-.394.853-.674l2.639-2.569a2.55 2.55 0 00.788-1.402 2.506 2.506 0 00-.217-1.584 2.601 2.601 0 00-1.138-1.153 2.703 2.703 0 00-1.619-.274zm13.197 12.84a2.665 2.665 0 00-1.526.763l-2.64 2.568a2.57 2.57 0 00-.598.83 2.51 2.51 0 00.541 2.837c.247.243.541.435.865.566a2.705 2.705 0 002.044-.008c.323-.134.616-.329.86-.574l2.64-2.568a2.55 2.55 0 00.788-1.402 2.506 2.506 0 00-.217-1.585 2.6 2.6 0 00-1.139-1.152 2.703 2.703 0 00-1.618-.275zM54.623 42a2.666 2.666 0 00-1.526.763l-2.64 2.568a2.569 2.569 0 00-.598.83A2.51 2.51 0 0050.4 49c.247.242.54.435.865.566a2.702 2.702 0 002.044-.009c.323-.133.616-.328.86-.573l2.64-2.568a2.55 2.55 0 00.788-1.403 2.506 2.506 0 00-.217-1.584 2.601 2.601 0 00-1.139-1.153 2.704 2.704 0 00-1.618-.274zM27.281 54.6l8.124 7.946-13.98 13.603a2.568 2.568 0 00-.599.83 2.51 2.51 0 00.541 2.837c.247.243.541.435.865.566a2.703 2.703 0 002.044-.008c.323-.134.616-.329.86-.573l14.022-13.644 6.804 6.662L31.9 86.501c-2.204 2.142-9.152 4.043-15.383 4.815-1.18.146-2.223.28-3.134.361a2.562 2.562 0 00-.124-.12L7.98 86.42a2.585 2.585 0 00-.082-.08c.08-.887.18-1.902.33-3.05.793-6.062 2.788-12.822 4.99-14.966L27.28 54.6zm40.539.242a2.665 2.665 0 00-1.526.762l-2.64 2.568a2.57 2.57 0 00-.598.83 2.512 2.512 0 00.541 2.837c.247.243.541.435.865.566a2.703 2.703 0 002.044-.008c.323-.134.615-.328.86-.573l2.64-2.569c.409-.374.685-.865.787-1.402a2.505 2.505 0 00-.217-1.584 2.6 2.6 0 00-1.138-1.153 2.702 2.702 0 00-1.618-.274zm13.197 12.84a2.666 2.666 0 00-1.526.763l-2.64 2.568a2.569 2.569 0 00-.6.83 2.511 2.511 0 00.541 2.838c.247.243.542.436.866.567a2.705 2.705 0 002.045-.01c.323-.133.615-.329.86-.574l2.64-2.568a2.55 2.55 0 00.787-1.402 2.506 2.506 0 00-.217-1.585 2.601 2.601 0 00-1.138-1.152 2.703 2.703 0 00-1.618-.275z" fill="#3B31B3"/><path d="M82.708.95c-4.559-.192-9.07 1.324-12.455 4.615L49.633 25.59 32.353 8.776a2.624 2.624 0 00-.453-.361A18.63 18.63 0 0019.32 3.519c-4.728-.003-9.474 1.755-13.073 5.257-7.198 7.003-7.162 18.391.041 25.4l17.239 16.813L9.465 64.673C5.132 68.893 3.832 76.216 2.99 82.65c-.842 6.434-.825 12.038-.825 12.038 0 .68.279 1.334.773 1.816a2.678 2.678 0 001.867.752s5.76-.023 12.372-.843 14.098-2.084 18.434-6.3L49.715 76.43l6.021 5.898a2.692 2.692 0 001.875.75 2.692 2.692 0 001.872-.756 2.548 2.548 0 00.777-1.821 2.547 2.547 0 00-.77-1.824L10 30.565c-5.203-5.063-5.192-13.126 0-18.178 5.192-5.052 13.438-5.022 18.64.04.067.057.135.11.207.16l63.139 61.475c5.202 5.063 5.192 13.086 0 18.138-5.193 5.051-13.438 5.022-18.64-.04l-7.177-6.982a2.66 2.66 0 00-.86-.56 2.718 2.718 0 00-1.016-.197c-.704 0-1.379.272-1.877.757a2.547 2.547 0 00-.777 1.825c0 .685.28 1.342.777 1.826l7.217 6.982c7.204 7.009 18.907 7.004 26.106 0 7.198-7.004 7.162-18.391-.042-25.4L75.821 51.029l20.578-20.023c6.766-6.588 6.136-17.545-.99-24.478-3.562-3.466-8.143-5.385-12.701-5.577zm-1.32 5.137c3.56-.165 7.331 1.155 10.31 4.053 5.295 5.152 5.524 12.8.949 17.255l-20.58 20.023-7.464-7.303 18.6-18.098c.409-.373.685-.865.787-1.402a2.506 2.506 0 00-.217-1.584 2.6 2.6 0 00-1.138-1.153 2.703 2.703 0 00-1.618-.274 2.666 2.666 0 00-1.526.762L60.85 36.503 53.385 29.2 73.965 9.177c2.003-1.948 4.653-2.962 7.423-3.09zM28.229 16.32a2.666 2.666 0 00-1.526.762l-2.64 2.608a2.585 2.585 0 00-.693.83 2.515 2.515 0 00.484 2.986c.262.255.576.453.922.582a2.706 2.706 0 002.147-.112c.33-.164.62-.394.853-.674l2.639-2.569a2.55 2.55 0 00.788-1.402 2.506 2.506 0 00-.217-1.584 2.601 2.601 0 00-1.138-1.153 2.703 2.703 0 00-1.619-.274zm13.197 12.84a2.665 2.665 0 00-1.526.763l-2.64 2.568a2.57 2.57 0 00-.598.83 2.51 2.51 0 00.541 2.837c.247.243.541.435.865.566a2.705 2.705 0 002.044-.008c.323-.134.616-.329.86-.574l2.64-2.568a2.55 2.55 0 00.788-1.402 2.506 2.506 0 00-.217-1.585 2.6 2.6 0 00-1.139-1.152 2.703 2.703 0 00-1.618-.275zM54.623 42a2.666 2.666 0 00-1.526.763l-2.64 2.568a2.569 2.569 0 00-.598.83A2.51 2.51 0 0050.4 49c.247.242.54.435.865.566a2.702 2.702 0 002.044-.009c.323-.133.616-.328.86-.573l2.64-2.568a2.55 2.55 0 00.788-1.403 2.506 2.506 0 00-.217-1.584 2.601 2.601 0 00-1.139-1.153 2.704 2.704 0 00-1.618-.274zM27.281 54.6l8.124 7.946-13.98 13.603a2.568 2.568 0 00-.599.83 2.51 2.51 0 00.541 2.837c.247.243.541.435.865.566a2.703 2.703 0 002.044-.008c.323-.134.616-.329.86-.573l14.022-13.644 6.804 6.662L31.9 86.501c-2.204 2.142-9.152 4.043-15.383 4.815-1.18.146-2.223.28-3.134.361a2.562 2.562 0 00-.124-.12L7.98 86.42a2.585 2.585 0 00-.082-.08c.08-.887.18-1.902.33-3.05.793-6.062 2.788-12.822 4.99-14.966L27.28 54.6h0zm40.539.242a2.665 2.665 0 00-1.526.762l-2.64 2.568a2.57 2.57 0 00-.598.83 2.512 2.512 0 00.541 2.837c.247.243.541.435.865.566a2.703 2.703 0 002.044-.008c.323-.134.615-.328.86-.573l2.64-2.569c.409-.374.685-.865.787-1.402a2.505 2.505 0 00-.217-1.584 2.6 2.6 0 00-1.138-1.153 2.702 2.702 0 00-1.618-.274zm13.197 12.84a2.666 2.666 0 00-1.526.763l-2.64 2.568a2.569 2.569 0 00-.6.83 2.511 2.511 0 00.541 2.838c.247.243.542.436.866.567a2.705 2.705 0 002.045-.01c.323-.133.615-.329.86-.574l2.64-2.568a2.55 2.55 0 00.787-1.402 2.506 2.506 0 00-.217-1.585 2.601 2.601 0 00-1.138-1.152 2.703 2.703 0 00-1.618-.275z" stroke="#C4C4C4" stroke-width="1.5" mask="url(#da)"/><path d="M82.708.95c-4.559-.192-9.07 1.324-12.455 4.615L49.633 25.59 32.353 8.776a2.624 2.624 0 00-.453-.361A18.63 18.63 0 0019.32 3.519c-4.728-.003-9.474 1.755-13.073 5.257-7.198 7.003-7.162 18.391.041 25.4l17.239 16.813L9.465 64.673C5.132 68.893 3.832 76.216 2.99 82.65c-.842 6.434-.825 12.038-.825 12.038 0 .68.279 1.334.773 1.816a2.678 2.678 0 001.867.752s5.76-.023 12.372-.843 14.098-2.084 18.434-6.3L49.715 76.43l6.021 5.898a2.692 2.692 0 001.875.75 2.692 2.692 0 001.872-.756 2.548 2.548 0 00.777-1.821 2.547 2.547 0 00-.77-1.824L10 30.565c-5.203-5.063-5.192-13.126 0-18.178 5.192-5.052 13.438-5.022 18.64.04.067.057.135.11.207.16l63.139 61.475c5.202 5.063 5.192 13.086 0 18.138-5.193 5.051-13.438 5.022-18.64-.04l-7.177-6.982a2.66 2.66 0 00-.86-.56 2.718 2.718 0 00-1.016-.197c-.704 0-1.379.272-1.877.757a2.547 2.547 0 00-.777 1.825c0 .685.28 1.342.777 1.826l7.217 6.982c7.204 7.009 18.907 7.004 26.106 0 7.198-7.004 7.162-18.391-.042-25.4L75.821 51.029l20.578-20.023c6.766-6.588 6.136-17.545-.99-24.478-3.562-3.466-8.143-5.385-12.701-5.577zm-1.32 5.137c3.56-.165 7.331 1.155 10.31 4.053 5.295 5.152 5.524 12.8.949 17.255l-20.58 20.023-7.464-7.303 18.6-18.098c.409-.373.685-.865.787-1.402a2.506 2.506 0 00-.217-1.584 2.6 2.6 0 00-1.138-1.153 2.703 2.703 0 00-1.618-.274 2.666 2.666 0 00-1.526.762L60.85 36.503 53.385 29.2 73.965 9.177c2.003-1.948 4.653-2.962 7.423-3.09zM28.229 16.32a2.666 2.666 0 00-1.526.762l-2.64 2.608a2.585 2.585 0 00-.693.83 2.515 2.515 0 00.484 2.986c.262.255.576.453.922.582a2.706 2.706 0 002.147-.112c.33-.164.62-.394.853-.674l2.639-2.569a2.55 2.55 0 00.788-1.402 2.506 2.506 0 00-.217-1.584 2.601 2.601 0 00-1.138-1.153 2.703 2.703 0 00-1.619-.274zm13.197 12.84a2.665 2.665 0 00-1.526.763l-2.64 2.568a2.57 2.57 0 00-.598.83 2.51 2.51 0 00.541 2.837c.247.243.541.435.865.566a2.705 2.705 0 002.044-.008c.323-.134.616-.329.86-.574l2.64-2.568a2.55 2.55 0 00.788-1.402 2.506 2.506 0 00-.217-1.585 2.6 2.6 0 00-1.139-1.152 2.703 2.703 0 00-1.618-.275zM54.623 42a2.666 2.666 0 00-1.526.763l-2.64 2.568a2.569 2.569 0 00-.598.83A2.51 2.51 0 0050.4 49c.247.242.54.435.865.566a2.702 2.702 0 002.044-.009c.323-.133.616-.328.86-.573l2.64-2.568a2.55 2.55 0 00.788-1.403 2.506 2.506 0 00-.217-1.584 2.601 2.601 0 00-1.139-1.153 2.704 2.704 0 00-1.618-.274zM27.281 54.6l8.124 7.946-13.98 13.603a2.568 2.568 0 00-.599.83 2.51 2.51 0 00.541 2.837c.247.243.541.435.865.566a2.703 2.703 0 002.044-.008c.323-.134.616-.329.86-.573l14.022-13.644 6.804 6.662L31.9 86.501c-2.204 2.142-9.152 4.043-15.383 4.815-1.18.146-2.223.28-3.134.361a2.562 2.562 0 00-.124-.12L7.98 86.42a2.585 2.585 0 00-.082-.08c.08-.887.18-1.902.33-3.05.793-6.062 2.788-12.822 4.99-14.966L27.28 54.6h0zm40.539.242a2.665 2.665 0 00-1.526.762l-2.64 2.568a2.57 2.57 0 00-.598.83 2.512 2.512 0 00.541 2.837c.247.243.541.435.865.566a2.703 2.703 0 002.044-.008c.323-.134.615-.328.86-.573l2.64-2.569c.409-.374.685-.865.787-1.402a2.505 2.505 0 00-.217-1.584 2.6 2.6 0 00-1.138-1.153 2.702 2.702 0 00-1.618-.274zm13.197 12.84a2.666 2.666 0 00-1.526.763l-2.64 2.568a2.569 2.569 0 00-.6.83 2.511 2.511 0 00.541 2.838c.247.243.542.436.866.567a2.705 2.705 0 002.045-.01c.323-.133.615-.329.86-.574l2.64-2.568a2.55 2.55 0 00.787-1.402 2.506 2.506 0 00-.217-1.585 2.601 2.601 0 00-1.138-1.152 2.703 2.703 0 00-1.618-.275z" stroke="#3B31B3" stroke-width="1.5" mask="url(#da)"/></symbol><symbol fill="none" viewBox="0 0 96 101" id="discover" xmlns="http://www.w3.org/2000/svg"><path d="M94.435 94.24l-11.158-9.302a16.159 16.159 0 00.767-14.526 16.583 16.583 0 00-4.525-6.028 17.17 17.17 0 00-6.788-3.48 16.23 16.23 0 00-4.32-.562c-4.511 0-8.838 1.744-12.028 4.848-3.19 3.104-4.982 7.314-4.982 11.704 0 4.39 1.792 8.6 4.982 11.703 3.19 3.104 7.517 4.848 12.028 4.848a16.022 16.022 0 004.252-.53 16.992 16.992 0 006.158-2.979l11.192 9.335c.34.283.733.498 1.158.632a3.483 3.483 0 002.596-.197 3.39 3.39 0 001.043-.799c.29-.33.51-.713.649-1.126a3.229 3.229 0 00-.203-2.527 3.325 3.325 0 00-.82-1.014zm-23.54-7.713c-.81.21-1.646.31-2.484.297a10.35 10.35 0 01-7.217-2.908 9.797 9.797 0 01-2.989-7.022 9.797 9.797 0 012.99-7.023 10.35 10.35 0 017.216-2.908 9.495 9.495 0 012.551.33 10.23 10.23 0 015.52 3.534 9.76 9.76 0 012.138 6.083 9.76 9.76 0 01-2.139 6.083 10.23 10.23 0 01-5.519 3.534h-.068z" fill="#C4C4C4"/><path d="M94.435 94.24l-11.158-9.302a16.159 16.159 0 00.767-14.526 16.583 16.583 0 00-4.525-6.028 17.17 17.17 0 00-6.788-3.48 16.23 16.23 0 00-4.32-.562c-4.511 0-8.838 1.744-12.028 4.848-3.19 3.104-4.982 7.314-4.982 11.704 0 4.39 1.792 8.6 4.982 11.703 3.19 3.104 7.517 4.848 12.028 4.848a16.022 16.022 0 004.252-.53 16.992 16.992 0 006.158-2.979l11.192 9.335c.34.283.733.498 1.158.632a3.483 3.483 0 002.596-.197 3.39 3.39 0 001.043-.799c.29-.33.51-.713.649-1.126a3.229 3.229 0 00-.203-2.527 3.325 3.325 0 00-.82-1.014zm-23.54-7.713c-.81.21-1.646.31-2.484.297a10.35 10.35 0 01-7.217-2.908 9.797 9.797 0 01-2.989-7.022 9.797 9.797 0 012.99-7.023 10.35 10.35 0 017.216-2.908 9.495 9.495 0 012.551.33 10.23 10.23 0 015.52 3.534 9.76 9.76 0 012.138 6.083 9.76 9.76 0 01-2.139 6.083 10.23 10.23 0 01-5.519 3.534h-.068z" fill="#3B31B3"/><path d="M54.803 100.066H3.775a3.45 3.45 0 01-2.406-.97 3.266 3.266 0 01-.996-2.34V4.066c0-.877.358-1.72.996-2.34a3.45 3.45 0 012.406-.97h68.038a3.45 3.45 0 012.405.97c.638.62.997 1.463.997 2.34v50.086c0 .878-.359 1.72-.997 2.34a3.45 3.45 0 01-2.405.97 3.45 3.45 0 01-2.406-.97 3.266 3.266 0 01-.996-2.34V7.377H7.177v86.068h47.626a3.45 3.45 0 012.406.97c.638.62.996 1.462.996 2.34 0 .878-.358 1.72-.996 2.341a3.45 3.45 0 01-2.406.97z" fill="#C4C4C4"/><path d="M54.803 100.066H3.775a3.45 3.45 0 01-2.406-.97 3.266 3.266 0 01-.996-2.34V4.066c0-.877.358-1.72.996-2.34a3.45 3.45 0 012.406-.97h68.038a3.45 3.45 0 012.405.97c.638.62.997 1.463.997 2.34v50.086c0 .878-.359 1.72-.997 2.34a3.45 3.45 0 01-2.405.97 3.45 3.45 0 01-2.406-.97 3.266 3.266 0 01-.996-2.34V7.377H7.177v86.068h47.626a3.45 3.45 0 012.406.97c.638.62.996 1.462.996 2.34 0 .878-.358 1.72-.996 2.341a3.45 3.45 0 01-2.406.97z" fill="#3B31B3"/><path d="M20.784 40.48a3.47 3.47 0 01-1.9-.552 3.332 3.332 0 01-1.262-1.489 3.228 3.228 0 01-.193-1.92c.133-.645.46-1.237.94-1.7l10.205-9.93a3.43 3.43 0 011.588-.856c.6-.14 1.226-.119 1.814.06l8.505 2.748 12.28-8.871c.358-.261.765-.45 1.197-.559a3.493 3.493 0 012.578.358c.384.222.72.515.988.863s.463.743.574 1.164a3.225 3.225 0 01-.368 2.509c-.228.374-.529.7-.886.961l-13.608 9.931a3.45 3.45 0 01-1.502.625 3.491 3.491 0 01-1.627-.128l-8.199-2.649-8.709 8.475a3.41 3.41 0 01-1.11.714 3.485 3.485 0 01-1.305.246z" fill="#C4C4C4"/><path d="M20.784 40.48a3.47 3.47 0 01-1.9-.552 3.332 3.332 0 01-1.262-1.489 3.228 3.228 0 01-.193-1.92c.133-.645.46-1.237.94-1.7l10.205-9.93a3.43 3.43 0 011.588-.856c.6-.14 1.226-.119 1.814.06l8.505 2.748 12.28-8.871c.358-.261.765-.45 1.197-.559a3.493 3.493 0 012.578.358c.384.222.72.515.988.863s.463.743.574 1.164a3.225 3.225 0 01-.368 2.509c-.228.374-.529.7-.886.961l-13.608 9.931a3.45 3.45 0 01-1.502.625 3.491 3.491 0 01-1.627-.128l-8.199-2.649-8.709 8.475a3.41 3.41 0 01-1.11.714 3.485 3.485 0 01-1.305.246z" fill="#3B31B3"/><path d="M54.804 57.032h-34.02a3.45 3.45 0 01-2.405-.97 3.266 3.266 0 01-.996-2.34c0-.879.358-1.72.996-2.341a3.45 3.45 0 012.406-.97h34.019a3.45 3.45 0 012.405.97c.638.62.996 1.462.996 2.34 0 .879-.358 1.72-.996 2.341a3.45 3.45 0 01-2.405.97z" fill="#C4C4C4"/><path d="M54.804 57.032h-34.02a3.45 3.45 0 01-2.405-.97 3.266 3.266 0 01-.996-2.34c0-.879.358-1.72.996-2.341a3.45 3.45 0 012.406-.97h34.019a3.45 3.45 0 012.405.97c.638.62.996 1.462.996 2.34 0 .879-.358 1.72-.996 2.341a3.45 3.45 0 01-2.405.97z" fill="#3B31B3"/><path d="M44.598 70.273H20.785a3.45 3.45 0 01-2.406-.97 3.266 3.266 0 01-.996-2.34c0-.878.358-1.72.996-2.341a3.45 3.45 0 012.406-.97h23.813a3.45 3.45 0 012.405.97c.638.62.997 1.463.997 2.34 0 .879-.359 1.72-.997 2.341a3.45 3.45 0 01-2.405.97z" fill="#C4C4C4"/><path d="M44.598 70.273H20.785a3.45 3.45 0 01-2.406-.97 3.266 3.266 0 01-.996-2.34c0-.878.358-1.72.996-2.341a3.45 3.45 0 012.406-.97h23.813a3.45 3.45 0 012.405.97c.638.62.997 1.463.997 2.34 0 .879-.359 1.72-.997 2.341a3.45 3.45 0 01-2.405.97z" fill="#3B31B3"/><path d="M44.598 83.514H20.785a3.45 3.45 0 01-2.406-.97 3.266 3.266 0 01-.996-2.34c0-.878.358-1.72.996-2.34a3.45 3.45 0 012.406-.97h23.813a3.45 3.45 0 012.405.97c.638.62.997 1.462.997 2.34 0 .878-.359 1.72-.997 2.34a3.45 3.45 0 01-2.405.97z" fill="#C4C4C4"/><path d="M44.598 83.514H20.785a3.45 3.45 0 01-2.406-.97 3.266 3.266 0 01-.996-2.34c0-.878.358-1.72.996-2.34a3.45 3.45 0 012.406-.97h23.813a3.45 3.45 0 012.405.97c.638.62.997 1.462.997 2.34 0 .878-.359 1.72-.997 2.34a3.45 3.45 0 01-2.405.97z" fill="#3B31B3"/></symbol><symbol viewBox="0 0 512 512" id="envelope" xmlns="http://www.w3.org/2000/svg"><path fill="currentColor" d="M464 64H48C21.49 64 0 85.49 0 112v288c0 26.51 21.49 48 48 48h416c26.51 0 48-21.49 48-48V112c0-26.51-21.49-48-48-48zm0 48v40.805c-22.422 18.259-58.168 46.651-134.587 106.49-16.841 13.247-50.201 45.072-73.413 44.701-23.208.375-56.579-31.459-73.413-44.701C106.18 199.465 70.425 171.067 48 152.805V112h416zM48 400V214.398c22.914 18.251 55.409 43.862 104.938 82.646 21.857 17.205 60.134 55.186 103.062 54.955 42.717.231 80.509-37.199 103.053-54.947 49.528-38.783 82.032-64.401 104.947-82.653V400H48z"/></symbol><symbol viewBox="0 0 512 512" id="heart" xmlns="http://www.w3.org/2000/svg"><path fill="currentColor" d="M462.3 62.6C407.5 15.9 326 24.3 275.7 76.2L256 96.5l-19.7-20.3C186.1 24.3 104.5 15.9 49.7 62.6c-62.8 53.6-66.1 149.8-9.9 207.9l193.5 199.8c12.5 12.9 32.8 12.9 45.3 0l193.5-199.8c56.3-58.1 53-154.3-9.8-207.9z"/></symbol><symbol viewBox="0 0 448 512" id="instagram" xmlns="http://www.w3.org/2000/svg"><path fill="currentColor" d="M224.1 141c-63.6 0-114.9 51.3-114.9 114.9s51.3 114.9 114.9 114.9S339 319.5 339 255.9 287.7 141 224.1 141zm0 189.6c-41.1 0-74.7-33.5-74.7-74.7s33.5-74.7 74.7-74.7 74.7 33.5 74.7 74.7-33.6 74.7-74.7 74.7zm146.4-194.3c0 14.9-12 26.8-26.8 26.8-14.9 0-26.8-12-26.8-26.8s12-26.8 26.8-26.8 26.8 12 26.8 26.8zm76.1 27.2c-1.7-35.9-9.9-67.7-36.2-93.9-26.2-26.2-58-34.4-93.9-36.2-37-2.1-147.9-2.1-184.9 0-35.8 1.7-67.6 9.9-93.9 36.1s-34.4 58-36.2 93.9c-2.1 37-2.1 147.9 0 184.9 1.7 35.9 9.9 67.7 36.2 93.9s58 34.4 93.9 36.2c37 2.1 147.9 2.1 184.9 0 35.9-1.7 67.7-9.9 93.9-36.2 26.2-26.2 34.4-58 36.2-93.9 2.1-37 2.1-147.8 0-184.8zM398.8 388c-7.8 19.6-22.9 34.7-42.6 42.6-29.5 11.7-99.5 9-132.1 9s-102.7 2.6-132.1-9c-19.6-7.8-34.7-22.9-42.6-42.6-11.7-29.5-9-99.5-9-132.1s-2.6-102.7 9-132.1c7.8-19.6 22.9-34.7 42.6-42.6 29.5-11.7 99.5-9 132.1-9s102.7-2.6 132.1 9c19.6 7.8 34.7 22.9 42.6 42.6 11.7 29.5 9 99.5 9 132.1s2.7 102.7-9 132.1z"/></symbol><symbol viewBox="0 0 448 512" id="linkedin" xmlns="http://www.w3.org/2000/svg"><path fill="currentColor" d="M100.28 448H7.4V148.9h92.88zM53.79 108.1C24.09 108.1 0 83.5 0 53.8a53.79 53.79 0 01107.58 0c0 29.7-24.1 54.3-53.79 54.3zM447.9 448h-92.68V302.4c0-34.7-.7-79.2-48.29-79.2-48.29 0-55.69 37.7-55.69 76.7V448h-92.78V148.9h89.08v40.8h1.3c12.4-23.5 42.69-48.3 87.88-48.3 94 0 111.28 61.9 111.28 142.3V448z"/></symbol><symbol fill="none" viewBox="0 0 115 118" id="travel" xmlns="http://www.w3.org/2000/svg"><path d="M57.033 13.767h-11.8v-11.8A1.967 1.967 0 0043.267 0H23.6a1.967 1.967 0 00-1.967 1.967v11.8h-11.8A9.845 9.845 0 000 23.6v76.7a9.847 9.847 0 009.833 9.833v5.9A1.967 1.967 0 0011.8 118h7.867a1.966 1.966 0 001.966-1.967v-5.9h23.6v5.9A1.967 1.967 0 0047.2 118h7.867a1.966 1.966 0 001.966-1.967v-5.9a9.846 9.846 0 009.834-9.833V23.6a9.846 9.846 0 00-9.834-9.833zM47.2 98.333a1.966 1.966 0 00-1.967 1.967v5.9h-23.6v-5.9a1.967 1.967 0 00-1.966-1.967H3.933V25.567h15.734a1.966 1.966 0 001.966-1.967v-5.9h23.6v5.9a1.966 1.966 0 001.967 1.967h15.733v72.766H47.2zm15.371-76.7H49.168V17.7h7.866a5.9 5.9 0 015.538 3.933zM41.3 3.933V5.9H25.567V3.933H41.3zm-15.733 5.9H41.3v3.934H25.567V9.833zM9.833 17.7H17.7v3.933H4.295A5.9 5.9 0 019.833 17.7zm-5.538 84.567H17.7v3.933H9.833a5.9 5.9 0 01-5.538-3.933zm13.405 11.8h-3.933v-3.934H17.7v3.934zm35.4 0h-3.933v-3.934H53.1v3.934zm3.933-7.867h-7.866v-3.933H62.57a5.9 5.9 0 01-5.538 3.933z" fill="#C4C4C4"/><path d="M57.033 13.767h-11.8v-11.8A1.967 1.967 0 0043.267 0H23.6a1.967 1.967 0 00-1.967 1.967v11.8h-11.8A9.845 9.845 0 000 23.6v76.7a9.847 9.847 0 009.833 9.833v5.9A1.967 1.967 0 0011.8 118h7.867a1.966 1.966 0 001.966-1.967v-5.9h23.6v5.9A1.967 1.967 0 0047.2 118h7.867a1.966 1.966 0 001.966-1.967v-5.9a9.846 9.846 0 009.834-9.833V23.6a9.846 9.846 0 00-9.834-9.833zM47.2 98.333a1.966 1.966 0 00-1.967 1.967v5.9h-23.6v-5.9a1.967 1.967 0 00-1.966-1.967H3.933V25.567h15.734a1.966 1.966 0 001.966-1.967v-5.9h23.6v5.9a1.966 1.966 0 001.967 1.967h15.733v72.766H47.2zm15.371-76.7H49.168V17.7h7.866a5.9 5.9 0 015.538 3.933zM41.3 3.933V5.9H25.567V3.933H41.3zm-15.733 5.9H41.3v3.934H25.567V9.833zM9.833 17.7H17.7v3.933H4.295A5.9 5.9 0 019.833 17.7zm-5.538 84.567H17.7v3.933H9.833a5.9 5.9 0 01-5.538-3.933zm13.405 11.8h-3.933v-3.934H17.7v3.934zm35.4 0h-3.933v-3.934H53.1v3.934zm3.933-7.867h-7.866v-3.933H62.57a5.9 5.9 0 01-5.538 3.933z" fill="#3B31B3"/><path d="M37.367 31.467H29.5a1.967 1.967 0 00-1.967 1.967v59A1.967 1.967 0 0029.5 94.4h7.867a1.967 1.967 0 001.966-1.967v-59a1.967 1.967 0 00-1.966-1.966zm-1.967 59h-3.933V35.4H35.4v55.067z" fill="#C4C4C4"/><path d="M37.367 31.467H29.5a1.967 1.967 0 00-1.967 1.967v59A1.967 1.967 0 0029.5 94.4h7.867a1.967 1.967 0 001.966-1.967v-59a1.967 1.967 0 00-1.966-1.966zm-1.967 59h-3.933V35.4H35.4v55.067z" fill="#3B31B3"/><path d="M53.1 31.467h-7.867a1.967 1.967 0 00-1.966 1.967v59a1.966 1.966 0 001.966 1.966H53.1a1.967 1.967 0 001.967-1.967v-59a1.967 1.967 0 00-1.967-1.966zm-1.967 59H47.2V35.4h3.933v55.067z" fill="#C4C4C4"/><path d="M53.1 31.467h-7.867a1.967 1.967 0 00-1.966 1.967v59a1.966 1.966 0 001.966 1.966H53.1a1.967 1.967 0 001.967-1.967v-59a1.967 1.967 0 00-1.967-1.966zm-1.967 59H47.2V35.4h3.933v55.067z" fill="#3B31B3"/><path d="M21.633 31.467h-7.866a1.967 1.967 0 00-1.967 1.967v59a1.967 1.967 0 001.966 1.966h7.867a1.967 1.967 0 001.967-1.967v-59a1.967 1.967 0 00-1.967-1.966zm-1.966 59h-3.934V35.4h3.933v55.067z" fill="#C4C4C4"/><path d="M21.633 31.467h-7.866a1.967 1.967 0 00-1.967 1.967v59a1.967 1.967 0 001.966 1.966h7.867a1.967 1.967 0 001.967-1.967v-59a1.967 1.967 0 00-1.967-1.966zm-1.966 59h-3.934V35.4h3.933v55.067z" fill="#3B31B3"/><path d="M106.2 51.33V23.6a1.966 1.966 0 00-1.967-1.967h-23.6a1.967 1.967 0 00-1.966 1.967v27.73a9.85 9.85 0 00-7.867 9.637V100.3a9.847 9.847 0 009.833 9.833v3.934a1.967 1.967 0 001.967 1.966h3.933a1.966 1.966 0 001.967-1.966v-3.934h7.867v3.934a1.966 1.966 0 001.966 1.966h3.934a1.966 1.966 0 001.966-1.966v-3.934a9.846 9.846 0 009.834-9.833V60.967a9.852 9.852 0 00-7.867-9.637zm-9.834-6.097H88.5v-1.966h7.867v1.966zM88.5 49.167h7.867v1.966H88.5v-1.966zm9.833-9.834h-11.8a1.967 1.967 0 00-1.966 1.967v9.833H82.6V31.467h19.667v19.666H100.3V41.3a1.965 1.965 0 00-1.967-1.967zm3.934-13.766v1.966H82.6v-1.966h19.667zm-21.634 29.5h23.6a5.899 5.899 0 015.9 5.9v7.866H100.3v-1.966a1.965 1.965 0 00-1.967-1.967h-11.8a1.967 1.967 0 00-1.966 1.967v1.966h-9.834v-7.866a5.9 5.9 0 015.9-5.9zm17.7 29.5h-11.8a1.966 1.966 0 00-1.966 1.966V88.5h-9.834V72.767h9.834v1.966a1.966 1.966 0 001.966 1.967h11.8a1.966 1.966 0 001.967-1.967v-1.966h9.833V88.5H100.3v-1.967a1.965 1.965 0 00-1.967-1.966zM96.367 88.5v3.933H88.5V88.5h7.867zM88.5 72.767v-3.934h7.867v3.934H88.5zm15.733 33.433h-23.6a5.902 5.902 0 01-5.9-5.9v-7.867h9.834V94.4a1.966 1.966 0 001.966 1.967h11.8A1.967 1.967 0 00100.3 94.4v-1.967h9.833v7.867a5.898 5.898 0 01-5.9 5.9z" fill="#C4C4C4"/><path d="M106.2 51.33V23.6a1.966 1.966 0 00-1.967-1.967h-23.6a1.967 1.967 0 00-1.966 1.967v27.73a9.85 9.85 0 00-7.867 9.637V100.3a9.847 9.847 0 009.833 9.833v3.934a1.967 1.967 0 001.967 1.966h3.933a1.966 1.966 0 001.967-1.966v-3.934h7.867v3.934a1.966 1.966 0 001.966 1.966h3.934a1.966 1.966 0 001.966-1.966v-3.934a9.846 9.846 0 009.834-9.833V60.967a9.852 9.852 0 00-7.867-9.637zm-9.834-6.097H88.5v-1.966h7.867v1.966zM88.5 49.167h7.867v1.966H88.5v-1.966zm9.833-9.834h-11.8a1.967 1.967 0 00-1.966 1.967v9.833H82.6V31.467h19.667v19.666H100.3V41.3a1.965 1.965 0 00-1.967-1.967zm3.934-13.766v1.966H82.6v-1.966h19.667zm-21.634 29.5h23.6a5.899 5.899 0 015.9 5.9v7.866H100.3v-1.966a1.965 1.965 0 00-1.967-1.967h-11.8a1.967 1.967 0 00-1.966 1.967v1.966h-9.834v-7.866a5.9 5.9 0 015.9-5.9zm17.7 29.5h-11.8a1.966 1.966 0 00-1.966 1.966V88.5h-9.834V72.767h9.834v1.966a1.966 1.966 0 001.966 1.967h11.8a1.966 1.966 0 001.967-1.967v-1.966h9.833V88.5H100.3v-1.967a1.965 1.965 0 00-1.967-1.966zM96.367 88.5v3.933H88.5V88.5h7.867zM88.5 72.767v-3.934h7.867v3.934H88.5zm15.733 33.433h-23.6a5.902 5.902 0 01-5.9-5.9v-7.867h9.834V94.4a1.966 1.966 0 001.966 1.967h11.8A1.967 1.967 0 00100.3 94.4v-1.967h9.833v7.867a5.898 5.898 0 01-5.9 5.9z" fill="#3B31B3"/></symbol><symbol fill="none" viewBox="0 0 86 102" id="validate" xmlns="http://www.w3.org/2000/svg"><path d="M85.475 6.882H54.014A12.018 12.018 0 0049.5 1.946 12.484 12.484 0 0042.977.112c-2.31 0-4.57.636-6.524 1.834a12.018 12.018 0 00-4.514 4.936H.524v94.183h84.951V6.882zM37.26 13.665l.593-2.68a5.115 5.115 0 011.846-2.9 5.366 5.366 0 013.306-1.135c1.203 0 2.37.4 3.307 1.134a5.115 5.115 0 011.846 2.902l.593 2.679h6.75v6.274H30.51v-6.274h6.75zm41.244 80.629H7.495v-80.63H23.54v13.058h38.92V13.665h16.044v80.629z" fill="#C4C4C4"/><path d="M85.475 6.882H54.014A12.018 12.018 0 0049.5 1.946 12.484 12.484 0 0042.977.112c-2.31 0-4.57.636-6.524 1.834a12.018 12.018 0 00-4.514 4.936H.524v94.183h84.951V6.882zM37.26 13.665l.593-2.68a5.115 5.115 0 011.846-2.9 5.366 5.366 0 013.306-1.135c1.203 0 2.37.4 3.307 1.134a5.115 5.115 0 011.846 2.902l.593 2.679h6.75v6.274H30.51v-6.274h6.75zm41.244 80.629H7.495v-80.63H23.54v13.058h38.92V13.665h16.044v80.629z" fill="#3B31B3"/><path d="M71.58 43.737H44.103v6.783H71.58v-6.783z" fill="#C4C4C4"/><path d="M71.58 43.737H44.103v6.783H71.58v-6.783z" fill="#3B31B3"/><path d="M24.491 46.744l-4.775-3.765-4.391 5.28 10.038 7.902L39.28 40.413l-5.286-4.42-9.504 10.751z" fill="#C4C4C4"/><path d="M24.491 46.744l-4.775-3.765-4.391 5.28 10.038 7.902L39.28 40.413l-5.286-4.42-9.504 10.751z" fill="#3B31B3"/><path d="M70.998 70.383H43.521v6.783h27.477v-6.783z" fill="#C4C4C4"/><path d="M70.998 70.383H43.521v6.783h27.477v-6.783z" fill="#3B31B3"/><path d="M31.556 63.283l-5.867 5.698-5.855-5.698-4.926 4.794 5.855 5.709-5.855 5.698 4.926 4.793 5.855-5.698 5.867 5.698 4.927-4.793-5.856-5.698 5.856-5.71-4.926-4.793z" fill="#C4C4C4"/><path d="M31.556 63.283l-5.867 5.698-5.855-5.698-4.926 4.794 5.855 5.709-5.855 5.698 4.926 4.793 5.855-5.698 5.867 5.698 4.927-4.793-5.856-5.698 5.856-5.71-4.926-4.793z" fill="#3B31B3"/></symbol><symbol fill="none" viewBox="0 0 131 109" id="wellbeing" xmlns="http://www.w3.org/2000/svg"><path d="M117.9 15.26a8.726 8.726 0 00-7.118 3.677 10.894 10.894 0 00-8.165-3.677H98.25a15.313 15.313 0 00-10.802 4.475 15.265 15.265 0 00-4.481 10.785v7.817l-26.31-26.27a11.456 11.456 0 00-16.177.011 11.42 11.42 0 00-.01 16.152l33.555 33.505-3.222 14.48-49.32-51.296-8.052-17.687A12.368 12.368 0 008.87 1.968 12.395 12.395 0 002.183 0 2.186 2.186 0 00.166 1.346C.056 1.61 0 1.894 0 2.18v34.88a2.177 2.177 0 001.348 2.014c.265.11.549.166.835.166h5.402l37.311 54.188A35.932 35.932 0 0057.37 104.64H30.567V109h85.15v-4.36H91.675a35.989 35.989 0 0015.472-16.372 68.32 68.32 0 006.386-28.743v-3.612a19.616 19.616 0 006.811 5.386 19.644 19.644 0 008.473 1.921 2.188 2.188 0 002.017-1.346c.11-.264.166-.548.166-.834v-32.7a13.084 13.084 0 00-3.841-9.245 13.126 13.126 0 00-9.259-3.835zM96.067 45.78h-2.184a6.562 6.562 0 01-4.63-1.918 6.543 6.543 0 01-1.92-4.622v-8.72c0-.732.074-1.462.22-2.18h6.33v4.36a2.177 2.177 0 00.64 1.541l8.733 8.72a2.196 2.196 0 001.544.639h4.367v6.54H98.25v-2.18a2.178 2.178 0 00-2.183-2.18zm2.183-26.16h4.367a6.562 6.562 0 014.629 1.918 6.542 6.542 0 011.921 4.622v13.08h-3.463l-7.454-7.443V26.16a2.178 2.178 0 00-2.183-2.18h-6.544a10.903 10.903 0 018.727-4.36zm-56.767.529a7.062 7.062 0 014.37-6.53 7.09 7.09 0 017.716 1.531l36.057 36.003a7.063 7.063 0 01-.002 9.994 7.085 7.085 0 01-10.01.003L43.557 25.147a7.021 7.021 0 01-2.074-4.998zM57.092 68.25L42.05 81.6 11.56 37.32l8.057-8.045L57.092 68.25zM4.367 4.665a8.012 8.012 0 015.09 4.37l7.58 16.652-9.208 9.193H4.367V4.665zm70.177 99.975a31.646 31.646 0 01-14.717-3.628 31.593 31.593 0 01-11.332-10.054l-3.951-5.737 15.574-13.823L70.475 82.17c.19.195.413.354.661.467l-.001.002 26.344 12.14a31.765 31.765 0 01-22.935 9.86zm34.623-45.115a63.952 63.952 0 01-5.977 26.9 31.276 31.276 0 01-2.841 4.875L74.563 79.417l3.15-14.153a11.456 11.456 0 0016.638-3.094 11.416 11.416 0 001.597-7.67h13.219v5.025zm17.466-.82a15.314 15.314 0 01-9.364-5.12 15.273 15.273 0 01-3.736-9.985V23.98a4.373 4.373 0 014.367-4.36 8.753 8.753 0 016.173 2.557 8.72 8.72 0 012.56 6.163v30.365z" fill="#C4C4C4"/><path d="M117.9 15.26a8.726 8.726 0 00-7.118 3.677 10.894 10.894 0 00-8.165-3.677H98.25a15.313 15.313 0 00-10.802 4.475 15.265 15.265 0 00-4.481 10.785v7.817l-26.31-26.27a11.456 11.456 0 00-16.177.011 11.42 11.42 0 00-.01 16.152l33.555 33.505-3.222 14.48-49.32-51.296-8.052-17.687A12.368 12.368 0 008.87 1.968 12.395 12.395 0 002.183 0 2.186 2.186 0 00.166 1.346C.056 1.61 0 1.894 0 2.18v34.88a2.177 2.177 0 001.348 2.014c.265.11.549.166.835.166h5.402l37.311 54.188A35.932 35.932 0 0057.37 104.64H30.567V109h85.15v-4.36H91.675a35.989 35.989 0 0015.472-16.372 68.32 68.32 0 006.386-28.743v-3.612a19.616 19.616 0 006.811 5.386 19.644 19.644 0 008.473 1.921 2.188 2.188 0 002.017-1.346c.11-.264.166-.548.166-.834v-32.7a13.084 13.084 0 00-3.841-9.245 13.126 13.126 0 00-9.259-3.835zM96.067 45.78h-2.184a6.562 6.562 0 01-4.63-1.918 6.543 6.543 0 01-1.92-4.622v-8.72c0-.732.074-1.462.22-2.18h6.33v4.36a2.177 2.177 0 00.64 1.541l8.733 8.72a2.196 2.196 0 001.544.639h4.367v6.54H98.25v-2.18a2.178 2.178 0 00-2.183-2.18zm2.183-26.16h4.367a6.562 6.562 0 014.629 1.918 6.542 6.542 0 011.921 4.622v13.08h-3.463l-7.454-7.443V26.16a2.178 2.178 0 00-2.183-2.18h-6.544a10.903 10.903 0 018.727-4.36zm-56.767.529a7.062 7.062 0 014.37-6.53 7.09 7.09 0 017.716 1.531l36.057 36.003a7.063 7.063 0 01-.002 9.994 7.085 7.085 0 01-10.01.003L43.557 25.147a7.021 7.021 0 01-2.074-4.998zM57.092 68.25L42.05 81.6 11.56 37.32l8.057-8.045L57.092 68.25zM4.367 4.665a8.012 8.012 0 015.09 4.37l7.58 16.652-9.208 9.193H4.367V4.665zm70.177 99.975a31.646 31.646 0 01-14.717-3.628 31.593 31.593 0 01-11.332-10.054l-3.951-5.737 15.574-13.823L70.475 82.17c.19.195.413.354.661.467l-.001.002 26.344 12.14a31.765 31.765 0 01-22.935 9.86zm34.623-45.115a63.952 63.952 0 01-5.977 26.9 31.276 31.276 0 01-2.841 4.875L74.563 79.417l3.15-14.153a11.456 11.456 0 0016.638-3.094 11.416 11.416 0 001.597-7.67h13.219v5.025zm17.466-.82a15.314 15.314 0 01-9.364-5.12 15.273 15.273 0 01-3.736-9.985V23.98a4.373 4.373 0 014.367-4.36 8.753 8.753 0 016.173 2.557 8.72 8.72 0 012.56 6.163v30.365z" fill="#3B31B3"/></symbol></svg>